G04 Layer_Color=8388736*
%FSLAX25Y25*%
%MOIN*%
G70*
G01*
G75*
%ADD46R,0.02375X0.02769*%
%ADD47R,0.04461X0.04658*%
%ADD48R,0.08674X0.06706*%
%ADD49O,0.03162X0.09461*%
%ADD50O,0.24422X0.12611*%
%ADD51R,0.06706X0.04343*%
%ADD52R,0.14579X0.05524*%
%ADD53C,0.08362*%
%ADD54R,0.05367X0.06587*%
%ADD55R,0.06587X0.05367*%
%ADD56R,0.08674X0.08674*%
%ADD57R,0.04068X0.04737*%
%ADD58R,0.04658X0.04461*%
%ADD59R,0.03162X0.05131*%
%ADD60R,0.09461X0.14579*%
%ADD61R,0.09461X0.04737*%
%ADD62O,0.07487X0.01502*%
%ADD63O,0.01502X0.07487*%
%ADD64R,0.10642X0.08674*%
%ADD65R,0.05721X0.02769*%
%ADD66C,0.07493*%
%ADD67R,0.07493X0.07493*%
%ADD68C,0.07099*%
%ADD69C,0.12611*%
%ADD70C,0.02769*%
%ADD71C,0.03162*%
D46*
X955000Y62449D02*
D03*
Y56937D02*
D03*
D47*
X1046469Y44938D02*
D03*
X1052532D02*
D03*
X1052532Y52438D02*
D03*
X1046469D02*
D03*
X1437469Y69437D02*
D03*
X1443532D02*
D03*
X1437469Y62437D02*
D03*
X1443532D02*
D03*
X1437469Y55437D02*
D03*
X1443532D02*
D03*
X1437469Y48438D02*
D03*
X1443532D02*
D03*
X525969Y69937D02*
D03*
X532031D02*
D03*
X525969Y62937D02*
D03*
X532031D02*
D03*
X525969Y55937D02*
D03*
X532031D02*
D03*
X525969Y48937D02*
D03*
X532031D02*
D03*
X1516531D02*
D03*
X1510468D02*
D03*
X1516531Y55937D02*
D03*
X1510468D02*
D03*
X1516531Y62937D02*
D03*
X1510468D02*
D03*
X1516531Y69937D02*
D03*
X1510468D02*
D03*
X598032Y48438D02*
D03*
X591968D02*
D03*
X598032Y55437D02*
D03*
X591968D02*
D03*
X598032Y62437D02*
D03*
X591968D02*
D03*
X598032Y69437D02*
D03*
X591968D02*
D03*
X202532Y75437D02*
D03*
X196468D02*
D03*
X183468Y68937D02*
D03*
X189532D02*
D03*
X189532Y75937D02*
D03*
X183468D02*
D03*
X1046469Y60438D02*
D03*
X1052532D02*
D03*
X1038531Y44938D02*
D03*
X1032469D02*
D03*
X1038531Y51938D02*
D03*
X1032469D02*
D03*
X956968Y76437D02*
D03*
X963031D02*
D03*
D48*
X1061500Y57938D02*
D03*
X1092731Y58016D02*
D03*
D49*
X1459500Y48989D02*
D03*
X1464500D02*
D03*
X1469500D02*
D03*
X1474500D02*
D03*
X1479500D02*
D03*
X1484500D02*
D03*
X1489500D02*
D03*
X1494500D02*
D03*
X1459500Y67886D02*
D03*
X1464500D02*
D03*
X1469500D02*
D03*
X1474500D02*
D03*
X1479500D02*
D03*
X1484500D02*
D03*
X1489500D02*
D03*
X1494500D02*
D03*
X543500Y48989D02*
D03*
X548500D02*
D03*
X553500D02*
D03*
X558500D02*
D03*
X563500D02*
D03*
X568500D02*
D03*
X573500D02*
D03*
X578500D02*
D03*
X543500Y67886D02*
D03*
X548500D02*
D03*
X553500D02*
D03*
X558500D02*
D03*
X563500D02*
D03*
X568500D02*
D03*
X573500D02*
D03*
X578500D02*
D03*
D50*
X178500Y18937D02*
D03*
X1062667D02*
D03*
X288833D02*
D03*
X1173500D02*
D03*
X399667D02*
D03*
X1284333D02*
D03*
X510500D02*
D03*
X1394667D02*
D03*
X621333D02*
D03*
X1504000D02*
D03*
X731667D02*
D03*
X1614333D02*
D03*
X841500D02*
D03*
X1724667D02*
D03*
X951833D02*
D03*
X1835500D02*
D03*
D51*
X123031Y19902D02*
D03*
Y32894D02*
D03*
X103532D02*
D03*
X103347Y19902D02*
D03*
X233494D02*
D03*
Y32894D02*
D03*
X213994D02*
D03*
X213809Y19902D02*
D03*
X343957D02*
D03*
Y32894D02*
D03*
X324457D02*
D03*
X324272Y19902D02*
D03*
X454420D02*
D03*
Y32894D02*
D03*
X434920D02*
D03*
X434735Y19902D02*
D03*
X564882D02*
D03*
Y32894D02*
D03*
X545382D02*
D03*
X545197Y19902D02*
D03*
X675345D02*
D03*
Y32894D02*
D03*
X655845D02*
D03*
X655660Y19902D02*
D03*
X785808D02*
D03*
Y32894D02*
D03*
X766308D02*
D03*
X766123Y19902D02*
D03*
X896270D02*
D03*
Y32894D02*
D03*
X876770D02*
D03*
X876585Y19902D02*
D03*
X1006733D02*
D03*
Y32894D02*
D03*
X987233D02*
D03*
X987048Y19902D02*
D03*
X1117196D02*
D03*
Y32894D02*
D03*
X1097696D02*
D03*
X1097511Y19902D02*
D03*
X1227659D02*
D03*
Y32894D02*
D03*
X1208159D02*
D03*
X1207974Y19902D02*
D03*
X1338121D02*
D03*
Y32894D02*
D03*
X1318621D02*
D03*
X1318436Y19902D02*
D03*
X1448584D02*
D03*
Y32894D02*
D03*
X1429084D02*
D03*
X1428899Y19902D02*
D03*
X1559047D02*
D03*
Y32894D02*
D03*
X1539547D02*
D03*
X1539362Y19902D02*
D03*
X1669510D02*
D03*
Y32894D02*
D03*
X1650010D02*
D03*
X1649825Y19902D02*
D03*
X1779972D02*
D03*
Y32894D02*
D03*
X1760472D02*
D03*
X1760287Y19902D02*
D03*
X965000Y68827D02*
D03*
Y55048D02*
D03*
D52*
X223000Y56552D02*
D03*
Y69937D02*
D03*
D53*
X1128500Y53438D02*
D03*
X1118500D02*
D03*
X1148500Y53938D02*
D03*
X1138500D02*
D03*
D54*
X115996Y9938D02*
D03*
X123004D02*
D03*
X226496Y11000D02*
D03*
X233504D02*
D03*
X336996D02*
D03*
X344004D02*
D03*
X447496Y10000D02*
D03*
X454504D02*
D03*
X557996Y9500D02*
D03*
X565004D02*
D03*
X668496Y10500D02*
D03*
X675504D02*
D03*
X778496Y11500D02*
D03*
X785504D02*
D03*
X889496Y11000D02*
D03*
X896504D02*
D03*
X999496D02*
D03*
X1006504D02*
D03*
X1109996D02*
D03*
X1117004D02*
D03*
X1220496D02*
D03*
X1227504D02*
D03*
X1330996Y10500D02*
D03*
X1338004D02*
D03*
X1441496Y9938D02*
D03*
X1448504D02*
D03*
X1551829D02*
D03*
X1558837D02*
D03*
X1662163Y10437D02*
D03*
X1669171D02*
D03*
X1772996Y11438D02*
D03*
X1780004D02*
D03*
X1054004Y69437D02*
D03*
X1046996D02*
D03*
X1031996D02*
D03*
X1039004D02*
D03*
X1031996Y59938D02*
D03*
X1039004D02*
D03*
D55*
X237000Y65441D02*
D03*
Y58434D02*
D03*
X181500Y54934D02*
D03*
Y61941D02*
D03*
X947000Y56434D02*
D03*
Y63441D02*
D03*
X886000Y65434D02*
D03*
Y72441D02*
D03*
D56*
X185232Y44938D02*
D03*
X201768D02*
D03*
X64232Y62937D02*
D03*
X80768D02*
D03*
D57*
X211000Y75083D02*
D03*
Y65792D02*
D03*
D58*
Y52406D02*
D03*
Y58469D02*
D03*
X189500Y61969D02*
D03*
Y55906D02*
D03*
X939000Y63469D02*
D03*
Y57406D02*
D03*
X894000Y72469D02*
D03*
Y66406D02*
D03*
X173000Y48906D02*
D03*
Y54969D02*
D03*
D59*
X203240Y57926D02*
D03*
X199500D02*
D03*
X195760D02*
D03*
Y68949D02*
D03*
X199500D02*
D03*
X203240D02*
D03*
D60*
X904189Y63437D02*
D03*
D61*
X927811Y72493D02*
D03*
Y63437D02*
D03*
Y54382D02*
D03*
D62*
X1018945Y49611D02*
D03*
Y51579D02*
D03*
Y53548D02*
D03*
Y55516D02*
D03*
Y57485D02*
D03*
Y59453D02*
D03*
Y61422D02*
D03*
Y63390D02*
D03*
Y65359D02*
D03*
Y67327D02*
D03*
Y69296D02*
D03*
Y71264D02*
D03*
X987055D02*
D03*
Y69296D02*
D03*
Y67327D02*
D03*
Y65359D02*
D03*
Y63390D02*
D03*
Y61422D02*
D03*
Y59453D02*
D03*
Y57485D02*
D03*
Y55516D02*
D03*
Y53548D02*
D03*
Y51579D02*
D03*
Y49611D02*
D03*
D63*
X1013827Y76382D02*
D03*
X1011858D02*
D03*
X1009890D02*
D03*
X1007921D02*
D03*
X1005953D02*
D03*
X1003984D02*
D03*
X1002016D02*
D03*
X1000047D02*
D03*
X998079D02*
D03*
X996110D02*
D03*
X994142D02*
D03*
X992173D02*
D03*
Y44493D02*
D03*
X994142D02*
D03*
X996110D02*
D03*
X998079D02*
D03*
X1000047D02*
D03*
X1002016D02*
D03*
X1003984D02*
D03*
X1005953D02*
D03*
X1007921D02*
D03*
X1009890D02*
D03*
X1011858D02*
D03*
X1013827D02*
D03*
D64*
X13000Y16969D02*
D03*
Y61772D02*
D03*
X1876500Y61772D02*
D03*
Y16969D02*
D03*
D65*
X23138Y25591D02*
D03*
Y29528D02*
D03*
Y33465D02*
D03*
Y37402D02*
D03*
Y41339D02*
D03*
Y45276D02*
D03*
Y49213D02*
D03*
Y53150D02*
D03*
X1866362Y53150D02*
D03*
Y49213D02*
D03*
Y45276D02*
D03*
Y41339D02*
D03*
Y37402D02*
D03*
Y33465D02*
D03*
Y29528D02*
D03*
Y25591D02*
D03*
D66*
X1108500Y69437D02*
D03*
X1118500D02*
D03*
X1128500D02*
D03*
X1138500D02*
D03*
D67*
X1148500D02*
D03*
D68*
X76500Y44827D02*
D03*
Y31048D02*
D03*
D69*
X51181Y38500D02*
D03*
X393701Y58363D02*
D03*
X1574803D02*
D03*
D70*
X1353500Y49437D02*
D03*
X1334000Y49437D02*
D03*
X1312500Y49437D02*
D03*
X1295500D02*
D03*
X1277500D02*
D03*
X1253500D02*
D03*
X1234500D02*
D03*
X1226500D02*
D03*
X1209500D02*
D03*
X1196000D02*
D03*
X1176500D02*
D03*
X1165500D02*
D03*
X1175500Y69000D02*
D03*
X1188500Y74437D02*
D03*
X1215500Y69437D02*
D03*
X1229500Y74000D02*
D03*
X1364000Y69437D02*
D03*
X1313500D02*
D03*
X1274500D02*
D03*
X1288500Y75500D02*
D03*
X1346000Y75437D02*
D03*
X12500Y38500D02*
D03*
X38500Y12000D02*
D03*
X37000Y66000D02*
D03*
X1072500Y42000D02*
D03*
X1876000Y49500D02*
D03*
Y74437D02*
D03*
X976500Y70000D02*
D03*
D71*
X1026500Y70438D02*
D03*
X1057500Y35000D02*
D03*
X1495000Y32500D02*
D03*
X1472875Y38500D02*
D03*
X1524500Y75000D02*
D03*
X1505500D02*
D03*
X1453000Y75437D02*
D03*
X965000Y59000D02*
D03*
X1093000Y74437D02*
D03*
X1011858Y37858D02*
D03*
X976500Y38000D02*
D03*
X1868000Y61437D02*
D03*
X1854000Y54500D02*
D03*
X1854646Y25500D02*
D03*
X1854500Y33437D02*
D03*
X1864500Y14500D02*
D03*
X1868000Y25500D02*
D03*
X1864500Y29500D02*
D03*
X1863500Y68500D02*
D03*
X1840500D02*
D03*
X21035Y33465D02*
D03*
X21091Y49091D02*
D03*
Y25591D02*
D03*
X25500Y37500D02*
D03*
Y53150D02*
D03*
X989500Y41938D02*
D03*
X116000Y10000D02*
D03*
X103532Y32894D02*
D03*
X226500Y11000D02*
D03*
X213994Y32894D02*
D03*
X337000Y11000D02*
D03*
X324457Y32894D02*
D03*
X447500Y10000D02*
D03*
X434920Y32894D02*
D03*
X558000Y9500D02*
D03*
X545382Y32894D02*
D03*
X668500Y10500D02*
D03*
X655845Y32894D02*
D03*
X778500Y11500D02*
D03*
X766308Y32894D02*
D03*
X889500Y11000D02*
D03*
X876770Y32894D02*
D03*
X999500Y11000D02*
D03*
X987233Y32894D02*
D03*
X1110000Y11000D02*
D03*
X1097696Y32894D02*
D03*
X1220500Y11000D02*
D03*
X1208159Y32894D02*
D03*
X1331000Y10500D02*
D03*
X1318621Y32894D02*
D03*
X1441500Y10000D02*
D03*
X1429084Y32894D02*
D03*
X1552000Y10000D02*
D03*
X1539547Y32894D02*
D03*
X1773000Y11500D02*
D03*
X1760472Y32894D02*
D03*
X1662500Y10000D02*
D03*
X1650010Y32894D02*
D03*
X1059500Y48937D02*
D03*
X1010500Y51437D02*
D03*
X1002000D02*
D03*
X1004000Y55437D02*
D03*
X1009500Y57938D02*
D03*
X1011000Y61437D02*
D03*
X998000Y49937D02*
D03*
X1065500Y51437D02*
D03*
X1006000Y49937D02*
D03*
X1039000Y75937D02*
D03*
X963031Y75187D02*
D03*
X187500Y47438D02*
D03*
X190500Y75437D02*
D03*
X199500Y70438D02*
D03*
X1054000Y50937D02*
D03*
X1051000Y44938D02*
D03*
X1013000Y67937D02*
D03*
X1001000Y62937D02*
D03*
X1459500Y67886D02*
D03*
X1464500Y67437D02*
D03*
X1469500Y67886D02*
D03*
X1474500Y67437D02*
D03*
X558500Y66938D02*
D03*
X553500D02*
D03*
X548500Y66438D02*
D03*
X1004000Y60438D02*
D03*
X543500Y66438D02*
D03*
X987500Y73937D02*
D03*
X1520500Y69937D02*
D03*
Y62937D02*
D03*
Y55937D02*
D03*
Y48937D02*
D03*
X1432500Y69437D02*
D03*
X1046500Y49000D02*
D03*
X1043000Y63000D02*
D03*
X582000Y68000D02*
D03*
X597500D02*
D03*
X563500Y67886D02*
D03*
X578500Y68000D02*
D03*
X521000Y70000D02*
D03*
X1479500Y72500D02*
D03*
X1494500Y72421D02*
D03*
X952500Y77150D02*
D03*
X976500Y59000D02*
D03*
X1093000Y66000D02*
D03*
X1433000Y48438D02*
D03*
X123004Y9938D02*
D03*
X1780000Y11000D02*
D03*
X1669171Y10171D02*
D03*
X1558837Y9938D02*
D03*
X1448504D02*
D03*
X1338004Y10500D02*
D03*
X1227504Y11000D02*
D03*
X1117004D02*
D03*
X1006504D02*
D03*
X896270Y11233D02*
D03*
X785504Y11500D02*
D03*
X675345Y10659D02*
D03*
X564882Y9622D02*
D03*
X454420Y10084D02*
D03*
X343957Y11047D02*
D03*
X233494Y11010D02*
D03*
X1849000Y45500D02*
D03*
X1861000D02*
D03*
X1865150Y53150D02*
D03*
X1865000Y37500D02*
D03*
X1868213Y49213D02*
D03*
X1868000Y33500D02*
D03*
X949000Y63437D02*
D03*
X998000Y65938D02*
D03*
X995000Y68937D02*
D03*
X992500Y64438D02*
D03*
X969500Y47500D02*
D03*
X972500Y44000D02*
D03*
X37500Y41500D02*
D03*
Y45500D02*
D03*
X111000Y57500D02*
D03*
X1448584Y19584D02*
D03*
X1489500Y67500D02*
D03*
X237000Y65441D02*
D03*
X226500Y48000D02*
D03*
M02*
