G04 Layer_Color=65535*
%FSLAX25Y25*%
%MOIN*%
G70*
G01*
G75*
%ADD10C,0.01000*%
%ADD39C,0.00787*%
%ADD40C,0.00984*%
%ADD41C,0.01181*%
%ADD42C,0.01575*%
%ADD43C,0.01969*%
%ADD44C,0.00600*%
%ADD45C,0.00500*%
D10*
X92248Y37938D02*
X92216Y38936D01*
X92121Y39931D01*
X91963Y40918D01*
X91743Y41893D01*
X91462Y42851D01*
X91120Y43790D01*
X90719Y44706D01*
X90261Y45594D01*
X89748Y46452D01*
X89181Y47275D01*
X88564Y48060D01*
X87897Y48805D01*
X87185Y49506D01*
X86430Y50160D01*
X85635Y50766D01*
X84803Y51319D01*
X83937Y51819D01*
X83042Y52262D01*
X82120Y52649D01*
X81176Y52975D01*
X80213Y53242D01*
X79235Y53446D01*
X78246Y53588D01*
X77249Y53668D01*
X76250Y53684D01*
X75252Y53636D01*
X74259Y53525D01*
X73275Y53352D01*
X72304Y53116D01*
X71349Y52819D01*
X70416Y52463D01*
X69507Y52048D01*
X68626Y51576D01*
X67777Y51049D01*
X66963Y50469D01*
X66187Y49839D01*
X65453Y49161D01*
X64764Y48438D01*
X64121Y47672D01*
X63529Y46868D01*
X62989Y46027D01*
X62503Y45154D01*
X62073Y44251D01*
X61702Y43324D01*
X61390Y42374D01*
X61139Y41407D01*
X60950Y40426D01*
X60823Y39434D01*
X60760Y38437D01*
Y37438D01*
X60823Y36441D01*
X60950Y35449D01*
X61139Y34468D01*
X61390Y33501D01*
X61702Y32551D01*
X62073Y31624D01*
X62503Y30721D01*
X62989Y29848D01*
X63529Y29007D01*
X64121Y28203D01*
X64764Y27437D01*
X65453Y26714D01*
X66187Y26036D01*
X66963Y25406D01*
X67777Y24826D01*
X68626Y24299D01*
X69507Y23827D01*
X70416Y23412D01*
X71349Y23056D01*
X72304Y22759D01*
X73275Y22523D01*
X74259Y22350D01*
X75252Y22239D01*
X76250Y22192D01*
X77249Y22207D01*
X78246Y22287D01*
X79235Y22429D01*
X80213Y22633D01*
X81176Y22900D01*
X82120Y23226D01*
X83042Y23613D01*
X83937Y24056D01*
X84803Y24556D01*
X85635Y25109D01*
X86430Y25715D01*
X87185Y26369D01*
X87897Y27070D01*
X88564Y27815D01*
X89181Y28600D01*
X89748Y29423D01*
X90261Y30281D01*
X90719Y31169D01*
X91120Y32085D01*
X91462Y33024D01*
X91743Y33982D01*
X91963Y34957D01*
X92121Y35944D01*
X92216Y36939D01*
X92248Y37937D01*
X1143382Y59838D02*
Y63532D01*
X1113854Y59737D02*
Y63532D01*
Y59737D02*
X1143382D01*
X1098894Y59637D02*
X1108736D01*
X1148500Y59737D02*
X1157949D01*
X1098894Y83038D02*
X1157949D01*
Y59737D02*
Y83038D01*
X1098894Y59637D02*
Y83038D01*
X1148500Y59737D02*
Y63532D01*
X1143382D02*
X1148500D01*
X1108736Y59637D02*
Y63532D01*
X1113854D01*
X1077231Y60416D02*
Y63016D01*
Y56016D02*
Y58616D01*
X1074231Y54016D02*
X1080131D01*
X1070231Y60116D02*
Y63016D01*
X1084231D01*
Y60116D02*
Y63016D01*
X1064587Y65496D02*
X1089390D01*
X1064587Y50536D02*
X1089390D01*
X1064587Y62216D02*
Y65496D01*
X1089390Y62216D02*
Y65496D01*
X1064587Y50536D02*
Y53416D01*
X1089390Y50536D02*
Y53416D01*
X61000Y37938D02*
X92000D01*
X62000Y32937D02*
X91500D01*
X65000Y27937D02*
X88500D01*
X215126Y55371D02*
X230874D01*
Y71119D01*
X215126D02*
X230874D01*
X215126Y55371D02*
Y71119D01*
X184248Y39032D02*
Y39819D01*
Y50056D02*
Y50843D01*
X202752Y50056D02*
Y50843D01*
Y39032D02*
Y39819D01*
X184248Y39032D02*
X202752D01*
X196453D02*
Y50843D01*
X184248D02*
X202752D01*
X205012Y61469D02*
Y65406D01*
X193988Y61469D02*
Y65406D01*
X205012D01*
X193988Y61469D02*
X205012D01*
X910488Y75248D02*
X921512D01*
X910488Y51626D02*
Y75248D01*
Y51626D02*
X921512D01*
Y75248D01*
X960768Y65776D02*
X969232D01*
X960768Y54851D02*
Y69024D01*
X969232Y54851D02*
Y69024D01*
X63248Y57032D02*
Y57819D01*
Y68056D02*
Y68843D01*
X81752Y68056D02*
Y68843D01*
Y57032D02*
Y57819D01*
X63248Y57032D02*
X81752D01*
X75453D02*
Y68843D01*
X63248D02*
X81752D01*
X500Y13244D02*
Y65496D01*
Y13244D02*
X7000D01*
X500Y65496D02*
X7000D01*
X19000Y13244D02*
X23000D01*
Y23244D01*
Y55496D02*
Y65496D01*
X19000D02*
X23000D01*
X1889000Y13244D02*
Y65496D01*
X1882500D02*
X1889000D01*
X1882500Y13244D02*
X1889000D01*
X1866500Y65496D02*
X1870500D01*
X1866500Y55496D02*
Y65496D01*
Y13244D02*
Y23244D01*
Y13244D02*
X1870500D01*
X1832350Y34086D02*
Y28087D01*
Y30087D01*
X1836349Y34086D01*
X1833350Y31087D01*
X1836349Y28087D01*
X1841347D02*
X1839348D01*
X1838348Y29087D01*
Y31087D01*
X1839348Y32086D01*
X1841347D01*
X1842347Y31087D01*
Y30087D01*
X1838348D01*
X1844346Y32086D02*
Y29087D01*
X1845346Y28087D01*
X1848345D01*
Y27088D01*
X1847345Y26088D01*
X1846345D01*
X1848345Y28087D02*
Y32086D01*
X1850344Y28087D02*
X1852344D01*
X1851344D01*
Y34086D01*
X1850344Y33086D01*
X1859341Y34086D02*
X1857342Y33086D01*
X1855342Y31087D01*
Y29087D01*
X1856342Y28087D01*
X1858341D01*
X1859341Y29087D01*
Y30087D01*
X1858341Y31087D01*
X1855342D01*
X948683Y34086D02*
Y28087D01*
Y30087D01*
X952682Y34086D01*
X949683Y31087D01*
X952682Y28087D01*
X957680D02*
X955681D01*
X954681Y29087D01*
Y31087D01*
X955681Y32086D01*
X957680D01*
X958680Y31087D01*
Y30087D01*
X954681D01*
X960679Y32086D02*
Y29087D01*
X961679Y28087D01*
X964678D01*
Y27088D01*
X963678Y26088D01*
X962679D01*
X964678Y28087D02*
Y32086D01*
X966677Y33086D02*
X967677Y34086D01*
X969676D01*
X970676Y33086D01*
Y32086D01*
X969676Y31087D01*
X970676Y30087D01*
Y29087D01*
X969676Y28087D01*
X967677D01*
X966677Y29087D01*
Y30087D01*
X967677Y31087D01*
X966677Y32086D01*
Y33086D01*
X967677Y31087D02*
X969676D01*
X1721517Y34086D02*
Y28087D01*
Y30087D01*
X1725515Y34086D01*
X1722516Y31087D01*
X1725515Y28087D01*
X1730514D02*
X1728514D01*
X1727515Y29087D01*
Y31087D01*
X1728514Y32086D01*
X1730514D01*
X1731513Y31087D01*
Y30087D01*
X1727515D01*
X1733513Y32086D02*
Y29087D01*
X1734512Y28087D01*
X1737511D01*
Y27088D01*
X1736512Y26088D01*
X1735512D01*
X1737511Y28087D02*
Y32086D01*
X1739511Y28087D02*
X1741510D01*
X1740511D01*
Y34086D01*
X1739511Y33086D01*
X1748508Y34086D02*
X1744509D01*
Y31087D01*
X1746508Y32086D01*
X1747508D01*
X1748508Y31087D01*
Y29087D01*
X1747508Y28087D01*
X1745509D01*
X1744509Y29087D01*
X838350Y34086D02*
Y28087D01*
Y30087D01*
X842349Y34086D01*
X839350Y31087D01*
X842349Y28087D01*
X847347D02*
X845348D01*
X844348Y29087D01*
Y31087D01*
X845348Y32086D01*
X847347D01*
X848347Y31087D01*
Y30087D01*
X844348D01*
X850346Y32086D02*
Y29087D01*
X851346Y28087D01*
X854345D01*
Y27088D01*
X853345Y26088D01*
X852345D01*
X854345Y28087D02*
Y32086D01*
X856344Y34086D02*
X860343D01*
Y33086D01*
X856344Y29087D01*
Y28087D01*
X1611183Y34086D02*
Y28087D01*
Y30087D01*
X1615182Y34086D01*
X1612183Y31087D01*
X1615182Y28087D01*
X1620180D02*
X1618181D01*
X1617181Y29087D01*
Y31087D01*
X1618181Y32086D01*
X1620180D01*
X1621180Y31087D01*
Y30087D01*
X1617181D01*
X1623179Y32086D02*
Y29087D01*
X1624179Y28087D01*
X1627178D01*
Y27088D01*
X1626178Y26088D01*
X1625179D01*
X1627178Y28087D02*
Y32086D01*
X1629177Y28087D02*
X1631177D01*
X1630177D01*
Y34086D01*
X1629177Y33086D01*
X1637175Y28087D02*
Y34086D01*
X1634176Y31087D01*
X1638175D01*
X728517Y34086D02*
Y28087D01*
Y30087D01*
X732515Y34086D01*
X729516Y31087D01*
X732515Y28087D01*
X737514D02*
X735514D01*
X734515Y29087D01*
Y31087D01*
X735514Y32086D01*
X737514D01*
X738513Y31087D01*
Y30087D01*
X734515D01*
X740513Y32086D02*
Y29087D01*
X741512Y28087D01*
X744512D01*
Y27088D01*
X743512Y26088D01*
X742512D01*
X744512Y28087D02*
Y32086D01*
X750510Y34086D02*
X748510Y33086D01*
X746511Y31087D01*
Y29087D01*
X747510Y28087D01*
X749510D01*
X750510Y29087D01*
Y30087D01*
X749510Y31087D01*
X746511D01*
X1500850Y34086D02*
Y28087D01*
Y30087D01*
X1504849Y34086D01*
X1501850Y31087D01*
X1504849Y28087D01*
X1509847D02*
X1507848D01*
X1506848Y29087D01*
Y31087D01*
X1507848Y32086D01*
X1509847D01*
X1510847Y31087D01*
Y30087D01*
X1506848D01*
X1512846Y32086D02*
Y29087D01*
X1513846Y28087D01*
X1516845D01*
Y27088D01*
X1515845Y26088D01*
X1514845D01*
X1516845Y28087D02*
Y32086D01*
X1518844Y28087D02*
X1520844D01*
X1519844D01*
Y34086D01*
X1518844Y33086D01*
X1523843D02*
X1524842Y34086D01*
X1526842D01*
X1527841Y33086D01*
Y32086D01*
X1526842Y31087D01*
X1525842D01*
X1526842D01*
X1527841Y30087D01*
Y29087D01*
X1526842Y28087D01*
X1524842D01*
X1523843Y29087D01*
X618183Y34086D02*
Y28087D01*
Y30087D01*
X622182Y34086D01*
X619183Y31087D01*
X622182Y28087D01*
X627180D02*
X625181D01*
X624181Y29087D01*
Y31087D01*
X625181Y32086D01*
X627180D01*
X628180Y31087D01*
Y30087D01*
X624181D01*
X630179Y32086D02*
Y29087D01*
X631179Y28087D01*
X634178D01*
Y27088D01*
X633179Y26088D01*
X632179D01*
X634178Y28087D02*
Y32086D01*
X640176Y34086D02*
X636177D01*
Y31087D01*
X638177Y32086D01*
X639177D01*
X640176Y31087D01*
Y29087D01*
X639177Y28087D01*
X637177D01*
X636177Y29087D01*
X1391517Y34086D02*
Y28087D01*
Y30087D01*
X1395515Y34086D01*
X1392516Y31087D01*
X1395515Y28087D01*
X1400514D02*
X1398514D01*
X1397515Y29087D01*
Y31087D01*
X1398514Y32086D01*
X1400514D01*
X1401513Y31087D01*
Y30087D01*
X1397515D01*
X1403513Y32086D02*
Y29087D01*
X1404512Y28087D01*
X1407512D01*
Y27088D01*
X1406512Y26088D01*
X1405512D01*
X1407512Y28087D02*
Y32086D01*
X1409511Y28087D02*
X1411510D01*
X1410511D01*
Y34086D01*
X1409511Y33086D01*
X1418508Y28087D02*
X1414509D01*
X1418508Y32086D01*
Y33086D01*
X1417508Y34086D01*
X1415509D01*
X1414509Y33086D01*
X507350Y34086D02*
Y28087D01*
Y30087D01*
X511349Y34086D01*
X508350Y31087D01*
X511349Y28087D01*
X516347D02*
X514348D01*
X513348Y29087D01*
Y31087D01*
X514348Y32086D01*
X516347D01*
X517347Y31087D01*
Y30087D01*
X513348D01*
X519346Y32086D02*
Y29087D01*
X520346Y28087D01*
X523345D01*
Y27088D01*
X522345Y26088D01*
X521346D01*
X523345Y28087D02*
Y32086D01*
X528343Y28087D02*
Y34086D01*
X525344Y31087D01*
X529343D01*
X1281183Y34086D02*
Y28087D01*
Y30087D01*
X1285182Y34086D01*
X1282183Y31087D01*
X1285182Y28087D01*
X1290180D02*
X1288181D01*
X1287181Y29087D01*
Y31087D01*
X1288181Y32086D01*
X1290180D01*
X1291180Y31087D01*
Y30087D01*
X1287181D01*
X1293179Y32086D02*
Y29087D01*
X1294179Y28087D01*
X1297178D01*
Y27088D01*
X1296178Y26088D01*
X1295179D01*
X1297178Y28087D02*
Y32086D01*
X1299177Y28087D02*
X1301177D01*
X1300177D01*
Y34086D01*
X1299177Y33086D01*
X1304176Y28087D02*
X1306175D01*
X1305175D01*
Y34086D01*
X1304176Y33086D01*
X396517Y34086D02*
Y28087D01*
Y30087D01*
X400515Y34086D01*
X397516Y31087D01*
X400515Y28087D01*
X405514D02*
X403514D01*
X402515Y29087D01*
Y31087D01*
X403514Y32086D01*
X405514D01*
X406513Y31087D01*
Y30087D01*
X402515D01*
X408513Y32086D02*
Y29087D01*
X409513Y28087D01*
X412511D01*
Y27088D01*
X411512Y26088D01*
X410512D01*
X412511Y28087D02*
Y32086D01*
X414511Y33086D02*
X415511Y34086D01*
X417510D01*
X418510Y33086D01*
Y32086D01*
X417510Y31087D01*
X416510D01*
X417510D01*
X418510Y30087D01*
Y29087D01*
X417510Y28087D01*
X415511D01*
X414511Y29087D01*
X1170350Y34086D02*
Y28087D01*
Y30087D01*
X1174349Y34086D01*
X1171350Y31087D01*
X1174349Y28087D01*
X1179347D02*
X1177348D01*
X1176348Y29087D01*
Y31087D01*
X1177348Y32086D01*
X1179347D01*
X1180347Y31087D01*
Y30087D01*
X1176348D01*
X1182346Y32086D02*
Y29087D01*
X1183346Y28087D01*
X1186345D01*
Y27088D01*
X1185345Y26088D01*
X1184345D01*
X1186345Y28087D02*
Y32086D01*
X1188344Y28087D02*
X1190343D01*
X1189344D01*
Y34086D01*
X1188344Y33086D01*
X1193342D02*
X1194342Y34086D01*
X1196342D01*
X1197341Y33086D01*
Y29087D01*
X1196342Y28087D01*
X1194342D01*
X1193342Y29087D01*
Y33086D01*
X285683Y34086D02*
Y28087D01*
Y30087D01*
X289682Y34086D01*
X286683Y31087D01*
X289682Y28087D01*
X294680D02*
X292681D01*
X291681Y29087D01*
Y31087D01*
X292681Y32086D01*
X294680D01*
X295680Y31087D01*
Y30087D01*
X291681D01*
X297679Y32086D02*
Y29087D01*
X298679Y28087D01*
X301678D01*
Y27088D01*
X300678Y26088D01*
X299679D01*
X301678Y28087D02*
Y32086D01*
X307676Y28087D02*
X303678D01*
X307676Y32086D01*
Y33086D01*
X306677Y34086D01*
X304677D01*
X303678Y33086D01*
X1059517Y34086D02*
Y28087D01*
Y30087D01*
X1063515Y34086D01*
X1060516Y31087D01*
X1063515Y28087D01*
X1068514D02*
X1066514D01*
X1065515Y29087D01*
Y31087D01*
X1066514Y32086D01*
X1068514D01*
X1069513Y31087D01*
Y30087D01*
X1065515D01*
X1071513Y32086D02*
Y29087D01*
X1072512Y28087D01*
X1075511D01*
Y27088D01*
X1074512Y26088D01*
X1073512D01*
X1075511Y28087D02*
Y32086D01*
X1077511Y29087D02*
X1078510Y28087D01*
X1080510D01*
X1081509Y29087D01*
Y33086D01*
X1080510Y34086D01*
X1078510D01*
X1077511Y33086D01*
Y32086D01*
X1078510Y31087D01*
X1081509D01*
X175350Y34086D02*
Y28087D01*
Y30087D01*
X179349Y34086D01*
X176350Y31087D01*
X179349Y28087D01*
X184347D02*
X182348D01*
X181348Y29087D01*
Y31087D01*
X182348Y32086D01*
X184347D01*
X185347Y31087D01*
Y30087D01*
X181348D01*
X187346Y32086D02*
Y29087D01*
X188346Y28087D01*
X191345D01*
Y27088D01*
X190345Y26088D01*
X189346D01*
X191345Y28087D02*
Y32086D01*
X193344Y28087D02*
X195343D01*
X194344D01*
Y34086D01*
X193344Y33086D01*
X883000Y59436D02*
Y55437D01*
X884999Y53438D01*
X886999Y55437D01*
Y59436D01*
X888998Y53438D02*
Y59436D01*
X891997D01*
X892997Y58436D01*
Y56437D01*
X891997Y55437D01*
X888998D01*
X890997D02*
X892997Y53438D01*
X894996D02*
X896996D01*
X895996D01*
Y59436D01*
X894996Y58436D01*
X1167998Y69439D02*
Y71438D01*
Y70438D01*
X1163000D01*
X1162000Y71438D01*
Y72438D01*
X1163000Y73438D01*
X1162000Y67439D02*
X1167998D01*
Y64440D01*
X1166998Y63441D01*
X1164999D01*
X1163999Y64440D01*
Y67439D01*
X1162000Y61441D02*
Y59442D01*
Y60442D01*
X1167998D01*
X1166998Y61441D01*
X1863450Y69120D02*
Y75118D01*
X1866449D01*
X1867449Y74119D01*
Y72119D01*
X1866449Y71119D01*
X1863450D01*
X1873447Y75118D02*
X1869448D01*
Y72119D01*
X1871447Y73119D01*
X1872447D01*
X1873447Y72119D01*
Y70120D01*
X1872447Y69120D01*
X1870448D01*
X1869448Y70120D01*
X26050Y9620D02*
Y3622D01*
X23051D01*
X22051Y4622D01*
Y6621D01*
X23051Y7621D01*
X26050D01*
X16053Y3622D02*
X18053Y4622D01*
X20052Y6621D01*
Y8620D01*
X19052Y9620D01*
X17053D01*
X16053Y8620D01*
Y7621D01*
X17053Y6621D01*
X20052D01*
D39*
X1045032Y55548D02*
X1043918Y55086D01*
X1043457Y53973D01*
Y50902D02*
X1043918Y49788D01*
X1045032Y49327D01*
X1053969Y49327D02*
X1055082Y49788D01*
X1055543Y50902D01*
X1055543Y53973D02*
X1055082Y55086D01*
X1053969Y55548D01*
X126469Y12438D02*
X126007Y13551D01*
X124894Y14012D01*
X124894Y5863D02*
X126007Y6324D01*
X126469Y7438D01*
X112531Y7438D02*
X112993Y6324D01*
X114106Y5863D01*
X114106Y14012D02*
X112993Y13551D01*
X112531Y12438D01*
X236968Y13500D02*
X236507Y14614D01*
X235394Y15075D01*
X235394Y6925D02*
X236507Y7386D01*
X236968Y8500D01*
X223031Y8500D02*
X223493Y7386D01*
X224606Y6925D01*
X224606Y15075D02*
X223493Y14614D01*
X223031Y13500D01*
X347468Y13500D02*
X347007Y14614D01*
X345894Y15075D01*
X345894Y6925D02*
X347007Y7386D01*
X347468Y8500D01*
X333531Y8500D02*
X333993Y7386D01*
X335106Y6925D01*
X335106Y15075D02*
X333993Y14614D01*
X333531Y13500D01*
X457969Y12500D02*
X457507Y13614D01*
X456394Y14075D01*
X456394Y5925D02*
X457507Y6386D01*
X457969Y7500D01*
X444031Y7500D02*
X444493Y6386D01*
X445606Y5925D01*
X445606Y14075D02*
X444493Y13614D01*
X444031Y12500D01*
X568469Y12000D02*
X568007Y13114D01*
X566894Y13575D01*
X566894Y5425D02*
X568007Y5886D01*
X568469Y7000D01*
X554531Y7000D02*
X554993Y5886D01*
X556106Y5425D01*
X556106Y13575D02*
X554993Y13114D01*
X554531Y12000D01*
X678968Y13000D02*
X678507Y14114D01*
X677394Y14575D01*
X677394Y6425D02*
X678507Y6887D01*
X678968Y8000D01*
X665031Y8000D02*
X665493Y6886D01*
X666606Y6425D01*
X666606Y14575D02*
X665493Y14114D01*
X665031Y13000D01*
X788969Y14000D02*
X788507Y15114D01*
X787394Y15575D01*
X787394Y7425D02*
X788507Y7886D01*
X788969Y9000D01*
X775032Y9000D02*
X775493Y7886D01*
X776606Y7425D01*
X776606Y15575D02*
X775493Y15114D01*
X775032Y14000D01*
X899969Y13500D02*
X899507Y14614D01*
X898394Y15075D01*
X898394Y6925D02*
X899507Y7386D01*
X899969Y8500D01*
X886032Y8500D02*
X886493Y7386D01*
X887606Y6925D01*
X887606Y15075D02*
X886493Y14614D01*
X886032Y13500D01*
X1009968Y13500D02*
X1009507Y14614D01*
X1008394Y15075D01*
X1008394Y6925D02*
X1009507Y7386D01*
X1009968Y8500D01*
X996031Y8500D02*
X996493Y7386D01*
X997606Y6925D01*
X997606Y15075D02*
X996493Y14614D01*
X996031Y13500D01*
X1120469Y13500D02*
X1120007Y14614D01*
X1118894Y15075D01*
X1118894Y6925D02*
X1120007Y7386D01*
X1120469Y8500D01*
X1106532Y8500D02*
X1106993Y7386D01*
X1108106Y6925D01*
X1108106Y15075D02*
X1106993Y14614D01*
X1106532Y13500D01*
X1230968Y13500D02*
X1230507Y14614D01*
X1229394Y15075D01*
X1229394Y6925D02*
X1230507Y7386D01*
X1230968Y8500D01*
X1217031Y8500D02*
X1217493Y7386D01*
X1218606Y6925D01*
X1218606Y15075D02*
X1217493Y14614D01*
X1217031Y13500D01*
X1341469Y13000D02*
X1341007Y14114D01*
X1339894Y14575D01*
X1339894Y6425D02*
X1341007Y6887D01*
X1341469Y8000D01*
X1327532Y8000D02*
X1327993Y6886D01*
X1329106Y6425D01*
X1329106Y14575D02*
X1327993Y14114D01*
X1327532Y13000D01*
X1451968Y12438D02*
X1451507Y13551D01*
X1450394Y14012D01*
X1450394Y5863D02*
X1451507Y6324D01*
X1451968Y7438D01*
X1438031Y7438D02*
X1438493Y6324D01*
X1439606Y5863D01*
X1439606Y14012D02*
X1438493Y13551D01*
X1438031Y12438D01*
X1562302Y12438D02*
X1561841Y13551D01*
X1560727Y14012D01*
X1560727Y5863D02*
X1561841Y6324D01*
X1562302Y7438D01*
X1548365Y7438D02*
X1548826Y6324D01*
X1549940Y5863D01*
X1549940Y14012D02*
X1548826Y13551D01*
X1548365Y12438D01*
X1672635Y12937D02*
X1672174Y14051D01*
X1671060Y14512D01*
X1671060Y6363D02*
X1672174Y6824D01*
X1672635Y7937D01*
X1658698Y7937D02*
X1659159Y6824D01*
X1660273Y6363D01*
X1660273Y14512D02*
X1659159Y14051D01*
X1658698Y12937D01*
X1783468Y13938D02*
X1783007Y15051D01*
X1781894Y15512D01*
X1781894Y7363D02*
X1783007Y7824D01*
X1783468Y8937D01*
X1769531Y8937D02*
X1769993Y7824D01*
X1771106Y7363D01*
X1771106Y15512D02*
X1769993Y15051D01*
X1769531Y13938D01*
X1444969Y66327D02*
X1446082Y66789D01*
X1446543Y67902D01*
Y70973D02*
X1446082Y72087D01*
X1444969Y72548D01*
X1436032Y72548D02*
X1434918Y72087D01*
X1434457Y70973D01*
X1434457Y67902D02*
X1434918Y66789D01*
X1436032Y66327D01*
X1444969Y59327D02*
X1446082Y59789D01*
X1446543Y60902D01*
Y63973D02*
X1446082Y65087D01*
X1444969Y65548D01*
X1436032Y65548D02*
X1434918Y65087D01*
X1434457Y63973D01*
X1434457Y60902D02*
X1434918Y59789D01*
X1436032Y59327D01*
X1444969Y52327D02*
X1446082Y52789D01*
X1446543Y53902D01*
Y56973D02*
X1446082Y58087D01*
X1444969Y58548D01*
X1436032Y58548D02*
X1434918Y58087D01*
X1434457Y56973D01*
X1434457Y53902D02*
X1434918Y52789D01*
X1436032Y52327D01*
X1444969Y45327D02*
X1446082Y45788D01*
X1446543Y46902D01*
Y49973D02*
X1446082Y51086D01*
X1444969Y51548D01*
X1436032Y51548D02*
X1434918Y51086D01*
X1434457Y49973D01*
X1434457Y46902D02*
X1434918Y45788D01*
X1436032Y45327D01*
X533468Y66827D02*
X534582Y67289D01*
X535043Y68402D01*
Y71473D02*
X534582Y72587D01*
X533468Y73048D01*
X524532Y73048D02*
X523418Y72587D01*
X522957Y71473D01*
X522957Y68402D02*
X523418Y67289D01*
X524532Y66827D01*
X533468Y59827D02*
X534582Y60289D01*
X535043Y61402D01*
Y64473D02*
X534582Y65587D01*
X533468Y66048D01*
X524532Y66048D02*
X523418Y65587D01*
X522957Y64473D01*
X522957Y61402D02*
X523418Y60289D01*
X524532Y59827D01*
X533468Y52827D02*
X534582Y53289D01*
X535043Y54402D01*
Y57473D02*
X534582Y58587D01*
X533468Y59048D01*
X524532Y59048D02*
X523418Y58587D01*
X522957Y57473D01*
X522957Y54402D02*
X523418Y53289D01*
X524532Y52827D01*
X533468Y45827D02*
X534582Y46288D01*
X535043Y47402D01*
Y50473D02*
X534582Y51587D01*
X533468Y52048D01*
X524532Y52048D02*
X523418Y51587D01*
X522957Y50473D01*
X522957Y47402D02*
X523418Y46288D01*
X524532Y45827D01*
X1509031Y52048D02*
X1507918Y51587D01*
X1507457Y50473D01*
Y47402D02*
X1507918Y46288D01*
X1509031Y45827D01*
X1517968Y45827D02*
X1519082Y46288D01*
X1519543Y47402D01*
X1519543Y50473D02*
X1519082Y51587D01*
X1517968Y52048D01*
X1509031Y59048D02*
X1507918Y58587D01*
X1507457Y57473D01*
Y54402D02*
X1507918Y53289D01*
X1509031Y52827D01*
X1517968Y52827D02*
X1519082Y53289D01*
X1519543Y54402D01*
X1519543Y57473D02*
X1519082Y58587D01*
X1517968Y59048D01*
X1509031Y66048D02*
X1507918Y65587D01*
X1507457Y64473D01*
Y61402D02*
X1507918Y60289D01*
X1509031Y59827D01*
X1517968Y59827D02*
X1519082Y60289D01*
X1519543Y61402D01*
X1519543Y64473D02*
X1519082Y65587D01*
X1517968Y66048D01*
X1509031Y73048D02*
X1507918Y72587D01*
X1507457Y71473D01*
Y68402D02*
X1507918Y67289D01*
X1509031Y66827D01*
X1517968Y66827D02*
X1519082Y67289D01*
X1519543Y68402D01*
X1519543Y71473D02*
X1519082Y72587D01*
X1517968Y73048D01*
X590531Y51548D02*
X589418Y51086D01*
X588957Y49973D01*
Y46902D02*
X589418Y45788D01*
X590531Y45327D01*
X599469Y45327D02*
X600582Y45788D01*
X601043Y46902D01*
X601043Y49973D02*
X600582Y51086D01*
X599469Y51548D01*
X590531Y58548D02*
X589418Y58087D01*
X588957Y56973D01*
Y53902D02*
X589418Y52789D01*
X590531Y52327D01*
X599469Y52327D02*
X600582Y52789D01*
X601043Y53902D01*
X601043Y56973D02*
X600582Y58087D01*
X599469Y58548D01*
X590531Y65548D02*
X589418Y65087D01*
X588957Y63973D01*
Y60902D02*
X589418Y59789D01*
X590531Y59327D01*
X599469Y59327D02*
X600582Y59789D01*
X601043Y60902D01*
X601043Y63973D02*
X600582Y65087D01*
X599469Y65548D01*
X590531Y72548D02*
X589418Y72087D01*
X588957Y70973D01*
Y67902D02*
X589418Y66789D01*
X590531Y66327D01*
X599469Y66327D02*
X600582Y66789D01*
X601043Y67902D01*
X601043Y70973D02*
X600582Y72087D01*
X599469Y72548D01*
X239500Y54969D02*
X240614Y55430D01*
X241075Y56544D01*
X232925Y56544D02*
X233386Y55430D01*
X234500Y54969D01*
X234500Y68906D02*
X233386Y68445D01*
X232925Y67331D01*
X241075Y67331D02*
X240614Y68445D01*
X239500Y68906D01*
X214110Y59906D02*
X213649Y61020D01*
X212535Y61481D01*
X209465D02*
X208351Y61020D01*
X207890Y59906D01*
X207890Y50969D02*
X208351Y49855D01*
X209465Y49394D01*
X212535Y49394D02*
X213649Y49855D01*
X214110Y50969D01*
X179000Y65406D02*
X177886Y64945D01*
X177425Y63831D01*
X185575Y63831D02*
X185114Y64945D01*
X184000Y65406D01*
X184000Y51469D02*
X185114Y51930D01*
X185575Y53044D01*
X177425Y53044D02*
X177886Y51930D01*
X179000Y51469D01*
X935890Y55969D02*
X936351Y54855D01*
X937465Y54394D01*
X940535D02*
X941649Y54855D01*
X942110Y55969D01*
X942110Y64906D02*
X941649Y66020D01*
X940535Y66481D01*
X937465Y66481D02*
X936351Y66020D01*
X935890Y64906D01*
X944500Y66906D02*
X943386Y66445D01*
X942925Y65331D01*
X951075Y65331D02*
X950614Y66445D01*
X949500Y66906D01*
X949500Y52969D02*
X950614Y53430D01*
X951075Y54544D01*
X942925Y54544D02*
X943386Y53430D01*
X944500Y52969D01*
X890890Y64969D02*
X891351Y63855D01*
X892465Y63394D01*
X895535D02*
X896649Y63855D01*
X897110Y64969D01*
X897110Y73906D02*
X896649Y75020D01*
X895535Y75481D01*
X892465Y75481D02*
X891351Y75020D01*
X890890Y73906D01*
X883500Y75906D02*
X882386Y75445D01*
X881925Y74331D01*
X890075Y74331D02*
X889614Y75445D01*
X888500Y75906D01*
X888500Y61969D02*
X889614Y62430D01*
X890075Y63544D01*
X881925Y63544D02*
X882386Y62430D01*
X883500Y61969D01*
X1053969Y57327D02*
X1055082Y57788D01*
X1055543Y58902D01*
Y61973D02*
X1055082Y63086D01*
X1053969Y63548D01*
X1045032Y63548D02*
X1043918Y63086D01*
X1043457Y61973D01*
X1043457Y58902D02*
X1043918Y57788D01*
X1045032Y57327D01*
X1031032Y48048D02*
X1029918Y47587D01*
X1029457Y46473D01*
Y43402D02*
X1029918Y42289D01*
X1031032Y41827D01*
X1039968Y41827D02*
X1041082Y42289D01*
X1041543Y43402D01*
X1041543Y46473D02*
X1041082Y47587D01*
X1039968Y48048D01*
X1031032Y55048D02*
X1029918Y54586D01*
X1029457Y53473D01*
Y50402D02*
X1029918Y49288D01*
X1031032Y48827D01*
X1039968Y48827D02*
X1041082Y49288D01*
X1041543Y50402D01*
X1041543Y53473D02*
X1041082Y54586D01*
X1039968Y55048D01*
X964468Y73327D02*
X965582Y73788D01*
X966043Y74902D01*
Y77973D02*
X965582Y79087D01*
X964468Y79548D01*
X955532Y79548D02*
X954418Y79087D01*
X953957Y77973D01*
X953957Y74902D02*
X954418Y73788D01*
X955532Y73327D01*
X1043457Y48048D02*
X1047925D01*
X1051075D02*
X1055543D01*
X1043457Y41827D02*
X1047925D01*
X1055543D02*
Y48048D01*
X1043457Y41827D02*
Y48048D01*
X1051075Y41827D02*
X1055543D01*
X1045032Y49327D02*
X1047925D01*
X1051075Y49327D02*
X1053969D01*
X1051075Y55548D02*
X1053969D01*
X1043457Y50902D02*
Y53973D01*
X1055543Y50902D02*
Y53973D01*
X1045032Y55548D02*
X1047925D01*
X1457315Y54894D02*
X1496685D01*
X1457315Y61981D02*
X1496685D01*
X1457315Y54894D02*
Y61981D01*
X1496685Y54894D02*
Y61981D01*
X541315Y54894D02*
X580685D01*
X541315Y61981D02*
X580685D01*
X541315Y54894D02*
Y61981D01*
X580685Y54894D02*
Y61981D01*
X114106Y14012D02*
X117728D01*
X121272D02*
X124894D01*
X121272Y5863D02*
X124894D01*
X126469Y7438D02*
Y12438D01*
X114106Y5863D02*
X117728D01*
X112531Y7438D02*
Y12438D01*
X224606Y15075D02*
X228228D01*
X231772D02*
X235394D01*
X231772Y6925D02*
X235394D01*
X236968Y8500D02*
Y13500D01*
X224606Y6925D02*
X228228D01*
X223031Y8500D02*
Y13500D01*
X335106Y15075D02*
X338728D01*
X342272D02*
X345894D01*
X342272Y6925D02*
X345894D01*
X347468Y8500D02*
Y13500D01*
X335106Y6925D02*
X338728D01*
X333531Y8500D02*
Y13500D01*
X445606Y14075D02*
X449228D01*
X452772D02*
X456394D01*
X452772Y5925D02*
X456394D01*
X457969Y7500D02*
Y12500D01*
X445606Y5925D02*
X449228D01*
X444031Y7500D02*
Y12500D01*
X556106Y13575D02*
X559728D01*
X563272D02*
X566894D01*
X563272Y5425D02*
X566894D01*
X568469Y7000D02*
Y12000D01*
X556106Y5425D02*
X559728D01*
X554531Y7000D02*
Y12000D01*
X666606Y14575D02*
X670228D01*
X673772D02*
X677394D01*
X673772Y6425D02*
X677394D01*
X678968Y8000D02*
Y13000D01*
X666606Y6425D02*
X670228D01*
X665031Y8000D02*
Y13000D01*
X776606Y15575D02*
X780228D01*
X783772D02*
X787394D01*
X783772Y7425D02*
X787394D01*
X788969Y9000D02*
Y14000D01*
X776606Y7425D02*
X780228D01*
X775032Y9000D02*
Y14000D01*
X887606Y15075D02*
X891228D01*
X894772D02*
X898394D01*
X894772Y6925D02*
X898394D01*
X899969Y8500D02*
Y13500D01*
X887606Y6925D02*
X891228D01*
X886032Y8500D02*
Y13500D01*
X997606Y15075D02*
X1001228D01*
X1004772D02*
X1008394D01*
X1004772Y6925D02*
X1008394D01*
X1009968Y8500D02*
Y13500D01*
X997606Y6925D02*
X1001228D01*
X996031Y8500D02*
Y13500D01*
X1108106Y15075D02*
X1111728D01*
X1115272D02*
X1118894D01*
X1115272Y6925D02*
X1118894D01*
X1120469Y8500D02*
Y13500D01*
X1108106Y6925D02*
X1111728D01*
X1106532Y8500D02*
Y13500D01*
X1218606Y15075D02*
X1222228D01*
X1225772D02*
X1229394D01*
X1225772Y6925D02*
X1229394D01*
X1230968Y8500D02*
Y13500D01*
X1218606Y6925D02*
X1222228D01*
X1217031Y8500D02*
Y13500D01*
X1329106Y14575D02*
X1332728D01*
X1336272D02*
X1339894D01*
X1336272Y6425D02*
X1339894D01*
X1341469Y8000D02*
Y13000D01*
X1329106Y6425D02*
X1332728D01*
X1327532Y8000D02*
Y13000D01*
X1439606Y14012D02*
X1443228D01*
X1446772D02*
X1450394D01*
X1446772Y5863D02*
X1450394D01*
X1451968Y7438D02*
Y12438D01*
X1439606Y5863D02*
X1443228D01*
X1438031Y7438D02*
Y12438D01*
X1549940Y14012D02*
X1553562D01*
X1557105D02*
X1560727D01*
X1557105Y5863D02*
X1560727D01*
X1562302Y7438D02*
Y12438D01*
X1549940Y5863D02*
X1553562D01*
X1548365Y7438D02*
Y12438D01*
X1660273Y14512D02*
X1663895D01*
X1667438D02*
X1671060D01*
X1667438Y6363D02*
X1671060D01*
X1672635Y7937D02*
Y12937D01*
X1660273Y6363D02*
X1663895D01*
X1658698Y7937D02*
Y12937D01*
X1771106Y15512D02*
X1774728D01*
X1778272D02*
X1781894D01*
X1778272Y7363D02*
X1781894D01*
X1783468Y8937D02*
Y13938D01*
X1771106Y7363D02*
X1774728D01*
X1769531Y8937D02*
Y13938D01*
X1442075Y72548D02*
X1444969D01*
X1436032Y72548D02*
X1438925D01*
X1436032Y66327D02*
X1438925D01*
X1446543Y67902D02*
Y70973D01*
X1434457Y67902D02*
Y70973D01*
X1442075Y66327D02*
X1444969D01*
X1442075Y65548D02*
X1444969D01*
X1436032Y65548D02*
X1438925D01*
X1436032Y59327D02*
X1438925D01*
X1446543Y60902D02*
Y63973D01*
X1434457Y60902D02*
Y63973D01*
X1442075Y59327D02*
X1444969D01*
X1442075Y58548D02*
X1444969D01*
X1436032Y58548D02*
X1438925D01*
X1436032Y52327D02*
X1438925D01*
X1446543Y53902D02*
Y56973D01*
X1434457Y53902D02*
Y56973D01*
X1442075Y52327D02*
X1444969D01*
X1442075Y51548D02*
X1444969D01*
X1436032Y51548D02*
X1438925D01*
X1436032Y45327D02*
X1438925D01*
X1446543Y46902D02*
Y49973D01*
X1434457Y46902D02*
Y49973D01*
X1442075Y45327D02*
X1444969D01*
X530575Y73048D02*
X533468D01*
X524532Y73048D02*
X527425D01*
X524532Y66827D02*
X527425D01*
X535043Y68402D02*
Y71473D01*
X522957Y68402D02*
Y71473D01*
X530575Y66827D02*
X533468D01*
X530575Y66048D02*
X533468D01*
X524532Y66048D02*
X527425D01*
X524532Y59827D02*
X527425D01*
X535043Y61402D02*
Y64473D01*
X522957Y61402D02*
Y64473D01*
X530575Y59827D02*
X533468D01*
X530575Y59048D02*
X533468D01*
X524532Y59048D02*
X527425D01*
X524532Y52827D02*
X527425D01*
X535043Y54402D02*
Y57473D01*
X522957Y54402D02*
Y57473D01*
X530575Y52827D02*
X533468D01*
X530575Y52048D02*
X533468D01*
X524532Y52048D02*
X527425D01*
X524532Y45827D02*
X527425D01*
X535043Y47402D02*
Y50473D01*
X522957Y47402D02*
Y50473D01*
X530575Y45827D02*
X533468D01*
X1509031D02*
X1511925D01*
X1515075Y45827D02*
X1517968D01*
X1515075Y52048D02*
X1517968D01*
X1507457Y47402D02*
Y50473D01*
X1519543Y47402D02*
Y50473D01*
X1509031Y52048D02*
X1511925D01*
X1509031Y52827D02*
X1511925D01*
X1515075Y52827D02*
X1517968D01*
X1515075Y59048D02*
X1517968D01*
X1507457Y54402D02*
Y57473D01*
X1519543Y54402D02*
Y57473D01*
X1509031Y59048D02*
X1511925D01*
X1509031Y59827D02*
X1511925D01*
X1515075Y59827D02*
X1517968D01*
X1515075Y66048D02*
X1517968D01*
X1507457Y61402D02*
Y64473D01*
X1519543Y61402D02*
Y64473D01*
X1509031Y66048D02*
X1511925D01*
X1509031Y66827D02*
X1511925D01*
X1515075Y66827D02*
X1517968D01*
X1515075Y73048D02*
X1517968D01*
X1507457Y68402D02*
Y71473D01*
X1519543Y68402D02*
Y71473D01*
X1509031Y73048D02*
X1511925D01*
X590531Y45327D02*
X593425D01*
X596575Y45327D02*
X599469D01*
X596575Y51548D02*
X599469D01*
X588957Y46902D02*
Y49973D01*
X601043Y46902D02*
Y49973D01*
X590531Y51548D02*
X593425D01*
X590531Y52327D02*
X593425D01*
X596575Y52327D02*
X599469D01*
X596575Y58548D02*
X599469D01*
X588957Y53902D02*
Y56973D01*
X601043Y53902D02*
Y56973D01*
X590531Y58548D02*
X593425D01*
X590531Y59327D02*
X593425D01*
X596575Y59327D02*
X599469D01*
X596575Y65548D02*
X599469D01*
X588957Y60902D02*
Y63973D01*
X601043Y60902D02*
Y63973D01*
X590531Y65548D02*
X593425D01*
X590531Y66327D02*
X593425D01*
X596575Y66327D02*
X599469D01*
X596575Y72548D02*
X599469D01*
X588957Y67902D02*
Y70973D01*
X601043Y67902D02*
Y70973D01*
X590531Y72548D02*
X593425D01*
X241075Y63709D02*
Y67331D01*
Y56544D02*
Y60166D01*
X232925Y56544D02*
Y60166D01*
X234500Y54969D02*
X239500D01*
X232925Y63709D02*
Y67331D01*
X234500Y68906D02*
X239500D01*
X208638Y72012D02*
X213362D01*
X208638Y68863D02*
X213362D01*
X208638Y69926D02*
X213362D01*
Y68863D02*
Y72012D01*
X208638Y68863D02*
Y72012D01*
X207890Y57012D02*
Y59906D01*
X207890Y50969D02*
Y53863D01*
X214110Y50969D02*
Y53863D01*
X209465Y61481D02*
X212535D01*
X209465Y49394D02*
X212535D01*
X214110Y57012D02*
Y59906D01*
X177425Y53044D02*
Y56666D01*
Y60209D02*
Y63831D01*
X185575Y60209D02*
Y63831D01*
X179000Y65406D02*
X184000D01*
X185575Y53044D02*
Y56666D01*
X179000Y51469D02*
X184000D01*
X192610Y60512D02*
Y64981D01*
Y52894D02*
Y57363D01*
X186390Y60512D02*
Y64981D01*
Y52894D02*
X192610D01*
X186390Y64981D02*
X192610D01*
X186390Y52894D02*
Y57363D01*
X201075Y72327D02*
X205543D01*
X193457D02*
X197925D01*
X201075Y78548D02*
X205543D01*
X193457Y72327D02*
Y78548D01*
X205543Y72327D02*
Y78548D01*
X193457D02*
X197925D01*
X180457Y72048D02*
X184925D01*
X188075D02*
X192543D01*
X180457Y65827D02*
X184925D01*
X192543D02*
Y72048D01*
X180457Y65827D02*
Y72048D01*
X188075Y65827D02*
X192543D01*
X188075Y72827D02*
X192543D01*
X180457D02*
X184925D01*
X188075Y79048D02*
X192543D01*
X180457Y72827D02*
Y79048D01*
X192543Y72827D02*
Y79048D01*
X180457D02*
X184925D01*
X942110Y55969D02*
Y58863D01*
X942110Y62012D02*
Y64906D01*
X935890Y62012D02*
Y64906D01*
X937465Y54394D02*
X940535D01*
X937465Y66481D02*
X940535D01*
X935890Y55969D02*
Y58863D01*
X942925Y54544D02*
Y58166D01*
Y61709D02*
Y65331D01*
X951075Y61709D02*
Y65331D01*
X944500Y66906D02*
X949500D01*
X951075Y54544D02*
Y58166D01*
X944500Y52969D02*
X949500D01*
X897110Y64969D02*
Y67863D01*
X897110Y71012D02*
Y73906D01*
X890890Y71012D02*
Y73906D01*
X892465Y63394D02*
X895535D01*
X892465Y75481D02*
X895535D01*
X890890Y64969D02*
Y67863D01*
X881925Y63544D02*
Y67166D01*
Y70709D02*
Y74331D01*
X890075Y70709D02*
Y74331D01*
X883500Y75906D02*
X888500D01*
X890075Y63544D02*
Y67166D01*
X883500Y61969D02*
X888500D01*
X169890Y45894D02*
Y50363D01*
Y53512D02*
Y57981D01*
X176110Y45894D02*
Y50363D01*
X169890Y57981D02*
X176110D01*
X169890Y45894D02*
X176110D01*
Y53512D02*
Y57981D01*
X1043532Y65363D02*
Y73512D01*
X1057469Y65363D02*
Y73512D01*
X1052272D02*
X1057469D01*
X1043532D02*
X1048728D01*
X1043532Y65363D02*
X1048728D01*
X1052272D02*
X1057469D01*
X1013827Y49611D02*
Y71264D01*
X992173Y49611D02*
Y71264D01*
Y49611D02*
X1013827D01*
X992173Y71264D02*
X1013827D01*
X1028531Y73512D02*
X1042468D01*
Y65363D02*
Y73512D01*
X1028531Y65363D02*
Y73512D01*
Y65363D02*
X1042468D01*
X1028531Y64012D02*
X1042468D01*
Y55863D02*
Y64012D01*
X1028531Y55863D02*
Y64012D01*
Y55863D02*
X1042468D01*
X1051075Y63548D02*
X1053969D01*
X1045032Y63548D02*
X1047925D01*
X1045032Y57327D02*
X1047925D01*
X1055543Y58902D02*
Y61973D01*
X1043457Y58902D02*
Y61973D01*
X1051075Y57327D02*
X1053969D01*
X1031032Y41827D02*
X1033925D01*
X1037075Y41827D02*
X1039968D01*
X1037075Y48048D02*
X1039968D01*
X1029457Y43402D02*
Y46473D01*
X1041543Y43402D02*
Y46473D01*
X1031032Y48048D02*
X1033925D01*
X1031032Y48827D02*
X1033925D01*
X1037075Y48827D02*
X1039968D01*
X1037075Y55048D02*
X1039968D01*
X1029457Y50402D02*
Y53473D01*
X1041543Y50402D02*
Y53473D01*
X1031032Y55048D02*
X1033925D01*
X961575Y79548D02*
X964468D01*
X955532Y79548D02*
X958425D01*
X955532Y73327D02*
X958425D01*
X966043Y74902D02*
Y77973D01*
X953957Y74902D02*
Y77973D01*
X961575Y73327D02*
X964468D01*
D40*
X1456646Y48989D02*
X1455908Y49415D01*
Y48562D01*
X1456646Y48989D01*
X540646D02*
X539908Y49415D01*
Y48562D01*
X540646Y48989D01*
X206882Y69737D02*
X206144Y70163D01*
Y69310D01*
X206882Y69737D01*
D41*
X1020421Y46855D02*
X1019831Y47445D01*
X1019240Y46855D01*
X1019831Y46264D01*
X1020421Y46855D01*
D42*
X1011760Y52465D02*
X1011216Y53214D01*
X1010335Y52928D01*
Y52002D01*
X1011216Y51716D01*
X1011760Y52465D01*
D43*
X26032Y56650D02*
X25244D01*
X26032D01*
X1864256Y22091D02*
X1863469D01*
X1864256D01*
D44*
X953000Y60938D02*
X957000D01*
Y56937D02*
Y62437D01*
X953000Y56937D02*
Y62437D01*
D45*
X163500Y11438D02*
X191000D01*
X163500Y26438D02*
X191000D01*
Y11438D02*
Y26438D01*
X163500D02*
Y36937D01*
Y1438D02*
Y11438D01*
X128067Y1438D02*
X163500D01*
X128000D02*
Y36937D01*
X163500D01*
X1012167D02*
X1047667D01*
X1012167Y1438D02*
Y36937D01*
X1012234Y1438D02*
X1047667D01*
Y11438D01*
Y26438D02*
Y36937D01*
X1075167Y11438D02*
Y26438D01*
X1047667D02*
X1075167D01*
X1047667Y11438D02*
X1075167D01*
X273833D02*
X301333D01*
X273833Y26438D02*
X301333D01*
Y11438D02*
Y26438D01*
X273833D02*
Y36937D01*
Y1438D02*
Y11438D01*
X238400Y1438D02*
X273833D01*
X238333D02*
Y36937D01*
X273833D01*
X1123000D02*
X1158500D01*
X1123000Y1438D02*
Y36937D01*
X1123067Y1438D02*
X1158500D01*
Y11438D01*
Y26438D02*
Y36937D01*
X1186000Y11438D02*
Y26438D01*
X1158500D02*
X1186000D01*
X1158500Y11438D02*
X1186000D01*
X384667D02*
X412167D01*
X384667Y26438D02*
X412167D01*
Y11438D02*
Y26438D01*
X384667D02*
Y36937D01*
Y1438D02*
Y11438D01*
X349234Y1438D02*
X384667D01*
X349167D02*
Y36937D01*
X384667D01*
X1233833D02*
X1269333D01*
X1233833Y1438D02*
Y36937D01*
X1233900Y1438D02*
X1269333D01*
Y11438D01*
Y26438D02*
Y36937D01*
X1296833Y11438D02*
Y26438D01*
X1269333D02*
X1296833D01*
X1269333Y11438D02*
X1296833D01*
X495500D02*
X523000D01*
X495500Y26438D02*
X523000D01*
Y11438D02*
Y26438D01*
X495500D02*
Y36937D01*
Y1438D02*
Y11438D01*
X460067Y1438D02*
X495500D01*
X460000D02*
Y36937D01*
X495500D01*
X1344167D02*
X1379667D01*
X1344167Y1438D02*
Y36937D01*
X1344234Y1438D02*
X1379667D01*
Y11438D01*
Y26438D02*
Y36937D01*
X1407167Y11438D02*
Y26438D01*
X1379667D02*
X1407167D01*
X1379667Y11438D02*
X1407167D01*
X606333D02*
X633833D01*
X606333Y26438D02*
X633833D01*
Y11438D02*
Y26438D01*
X606333D02*
Y36937D01*
Y1438D02*
Y11438D01*
X570900Y1438D02*
X606333D01*
X570833D02*
Y36937D01*
X606333D01*
X1453500D02*
X1489000D01*
X1453500Y1438D02*
Y36937D01*
X1453567Y1438D02*
X1489000D01*
Y11438D01*
Y26438D02*
Y36937D01*
X1516500Y11438D02*
Y26438D01*
X1489000D02*
X1516500D01*
X1489000Y11438D02*
X1516500D01*
X716667D02*
X744167D01*
X716667Y26438D02*
X744167D01*
Y11438D02*
Y26438D01*
X716667D02*
Y36937D01*
Y1438D02*
Y11438D01*
X681234Y1438D02*
X716667D01*
X681167D02*
Y36937D01*
X716667D01*
X1563833D02*
X1599333D01*
X1563833Y1438D02*
Y36937D01*
X1563900Y1438D02*
X1599333D01*
Y11438D01*
Y26438D02*
Y36937D01*
X1626833Y11438D02*
Y26438D01*
X1599333D02*
X1626833D01*
X1599333Y11438D02*
X1626833D01*
X826500D02*
X854000D01*
X826500Y26438D02*
X854000D01*
Y11438D02*
Y26438D01*
X826500D02*
Y36937D01*
Y1438D02*
Y11438D01*
X791067Y1438D02*
X826500D01*
X791000D02*
Y36937D01*
X826500D01*
X1674167D02*
X1709667D01*
X1674167Y1438D02*
Y36937D01*
X1674234Y1438D02*
X1709667D01*
Y11438D01*
Y26438D02*
Y36937D01*
X1737167Y11438D02*
Y26438D01*
X1709667D02*
X1737167D01*
X1709667Y11438D02*
X1737167D01*
X936833D02*
X964333D01*
X936833Y26438D02*
X964333D01*
Y11438D02*
Y26438D01*
X936833D02*
Y36937D01*
Y1438D02*
Y11438D01*
X901400Y1438D02*
X936833D01*
X901333D02*
Y36937D01*
X936833D01*
X1785000D02*
X1820500D01*
X1785000Y1438D02*
Y36937D01*
X1785067Y1438D02*
X1820500D01*
Y11438D01*
Y26438D02*
Y36937D01*
X1848000Y11438D02*
Y26438D01*
X1820500D02*
X1848000D01*
X1820500Y11438D02*
X1848000D01*
X123031Y16556D02*
Y36241D01*
X103347Y16556D02*
X123031D01*
X103347D02*
Y36241D01*
X123031D01*
X233494Y16556D02*
Y36241D01*
X213809Y16556D02*
X233494D01*
X213809D02*
Y36241D01*
X233494D01*
X343957Y16556D02*
Y36241D01*
X324272Y16556D02*
X343957D01*
X324272D02*
Y36241D01*
X343957D01*
X454420Y16556D02*
Y36241D01*
X434735Y16556D02*
X454420D01*
X434735D02*
Y36241D01*
X454420D01*
X564882Y16556D02*
Y36241D01*
X545197Y16556D02*
X564882D01*
X545197D02*
Y36241D01*
X564882D01*
X675345Y16556D02*
Y36241D01*
X655660Y16556D02*
X675345D01*
X655660D02*
Y36241D01*
X675345D01*
X785808Y16556D02*
Y36241D01*
X766123Y16556D02*
X785808D01*
X766123D02*
Y36241D01*
X785808D01*
X896270Y16556D02*
Y36241D01*
X876585Y16556D02*
X896270D01*
X876585D02*
Y36241D01*
X896270D01*
X1006733Y16556D02*
Y36241D01*
X987048Y16556D02*
X1006733D01*
X987048D02*
Y36241D01*
X1006733D01*
X1117196Y16556D02*
Y36241D01*
X1097511Y16556D02*
X1117196D01*
X1097511D02*
Y36241D01*
X1117196D01*
X1227659Y16556D02*
Y36241D01*
X1207974Y16556D02*
X1227659D01*
X1207974D02*
Y36241D01*
X1227659D01*
X1338121Y16556D02*
Y36241D01*
X1318436Y16556D02*
X1338121D01*
X1318436D02*
Y36241D01*
X1338121D01*
X1448584Y16556D02*
Y36241D01*
X1428899Y16556D02*
X1448584D01*
X1428899D02*
Y36241D01*
X1448584D01*
X1559047Y16556D02*
Y36241D01*
X1539362Y16556D02*
X1559047D01*
X1539362D02*
Y36241D01*
X1559047D01*
X1669510Y16556D02*
Y36241D01*
X1649825Y16556D02*
X1669510D01*
X1649825D02*
Y36241D01*
X1669510D01*
X1779972Y16556D02*
Y36241D01*
X1760287Y16556D02*
X1779972D01*
X1760287D02*
Y36241D01*
X1779972D01*
M02*
