G04 Layer_Color=32768*
%FSLAX25Y25*%
%MOIN*%
G70*
G01*
G75*
%ADD72C,0.00394*%
%ADD73C,0.00197*%
%ADD74C,0.00800*%
D72*
X1456331Y43674D02*
X1497669D01*
X1456331Y73201D02*
X1497669D01*
X1456331Y43674D02*
Y73201D01*
X1497669Y43674D02*
Y73201D01*
X1477000Y56469D02*
Y60406D01*
X1475031Y58438D02*
X1478969D01*
X540331Y43674D02*
X581669D01*
X540331Y73201D02*
X581669D01*
X540331Y43674D02*
Y73201D01*
X581669Y43674D02*
Y73201D01*
X561000Y56469D02*
Y60406D01*
X559031Y58438D02*
X562968D01*
X211000Y77918D02*
Y80280D01*
X209819Y79099D02*
X212181D01*
X209819Y62957D02*
X212181D01*
D73*
X1078609Y58016D02*
X1078287Y58902D01*
X1077471Y59373D01*
X1076542Y59209D01*
X1075937Y58487D01*
Y57545D01*
X1076542Y56823D01*
X1077471Y56659D01*
X1078287Y57130D01*
X1078609Y58016D01*
X14378Y39370D02*
X14056Y40256D01*
X13239Y40727D01*
X12311Y40563D01*
X11705Y39841D01*
Y38899D01*
X12311Y38177D01*
X13239Y38013D01*
X14056Y38484D01*
X14378Y39370D01*
X1877878D02*
X1877556Y40256D01*
X1876739Y40727D01*
X1875811Y40563D01*
X1875205Y39841D01*
Y38899D01*
X1875811Y38177D01*
X1876739Y38013D01*
X1877556Y38484D01*
X1877878Y39370D01*
X1075263Y58016D02*
X1079200D01*
X1077231Y56048D02*
Y59985D01*
X11032Y39370D02*
X14968D01*
X13000Y37402D02*
Y41339D01*
X1874532Y39370D02*
X1878469D01*
X1876500Y37402D02*
Y41339D01*
D74*
X176177Y44938D02*
X180114D01*
X178146Y42969D02*
Y46906D01*
X207279Y42969D02*
Y46906D01*
X963031Y50323D02*
X966969D01*
X965000Y48355D02*
Y52292D01*
X963031Y71780D02*
X966969D01*
X55177Y62937D02*
X59114D01*
X57146Y60969D02*
Y64906D01*
X86279Y60969D02*
Y64906D01*
M02*
