G04 Layer_Color=255*
%FSLAX25Y25*%
%MOIN*%
G70*
G01*
G75*
%ADD11R,0.01575X0.01969*%
%ADD12R,0.03661X0.03858*%
%ADD13R,0.07874X0.05906*%
%ADD14O,0.02362X0.08661*%
%ADD15O,0.23622X0.11811*%
%ADD16R,0.05906X0.03543*%
%ADD17R,0.13780X0.04724*%
%ADD18C,0.06000*%
%ADD19R,0.04567X0.05787*%
%ADD20R,0.05787X0.04567*%
%ADD21R,0.07874X0.07874*%
%ADD22R,0.03268X0.03937*%
%ADD23R,0.03858X0.03661*%
%ADD24R,0.02362X0.04331*%
%ADD25R,0.08661X0.13780*%
%ADD26R,0.08661X0.03937*%
%ADD27O,0.07087X0.01102*%
%ADD28O,0.01102X0.07087*%
%ADD29R,0.09843X0.07874*%
%ADD30R,0.04921X0.01969*%
%ADD32C,0.06693*%
%ADD33R,0.06693X0.06693*%
%ADD34C,0.06299*%
%ADD35C,0.11811*%
D11*
X955000Y62449D02*
D03*
Y56937D02*
D03*
D12*
X1046469Y44938D02*
D03*
X1052532D02*
D03*
X1052532Y52438D02*
D03*
X1046469D02*
D03*
X1437469Y69437D02*
D03*
X1443532D02*
D03*
X1437469Y62437D02*
D03*
X1443532D02*
D03*
X1437469Y55437D02*
D03*
X1443532D02*
D03*
X1437469Y48438D02*
D03*
X1443532D02*
D03*
X525969Y69937D02*
D03*
X532031D02*
D03*
X525969Y62937D02*
D03*
X532031D02*
D03*
X525969Y55937D02*
D03*
X532031D02*
D03*
X525969Y48937D02*
D03*
X532031D02*
D03*
X1516531D02*
D03*
X1510468D02*
D03*
X1516531Y55937D02*
D03*
X1510468D02*
D03*
X1516531Y62937D02*
D03*
X1510468D02*
D03*
X1516531Y69937D02*
D03*
X1510468D02*
D03*
X598032Y48438D02*
D03*
X591968D02*
D03*
X598032Y55437D02*
D03*
X591968D02*
D03*
X598032Y62437D02*
D03*
X591968D02*
D03*
X598032Y69437D02*
D03*
X591968D02*
D03*
X202532Y75437D02*
D03*
X196468D02*
D03*
X183468Y68937D02*
D03*
X189532D02*
D03*
X189532Y75937D02*
D03*
X183468D02*
D03*
X1046469Y60438D02*
D03*
X1052532D02*
D03*
X1038531Y44938D02*
D03*
X1032469D02*
D03*
X1038531Y51938D02*
D03*
X1032469D02*
D03*
X956968Y76437D02*
D03*
X963031D02*
D03*
D13*
X1061500Y57938D02*
D03*
X1092731Y58016D02*
D03*
D14*
X1459500Y48989D02*
D03*
X1464500D02*
D03*
X1469500D02*
D03*
X1474500D02*
D03*
X1479500D02*
D03*
X1484500D02*
D03*
X1489500D02*
D03*
X1494500D02*
D03*
X1459500Y67886D02*
D03*
X1464500D02*
D03*
X1469500D02*
D03*
X1474500D02*
D03*
X1479500D02*
D03*
X1484500D02*
D03*
X1489500D02*
D03*
X1494500D02*
D03*
X543500Y48989D02*
D03*
X548500D02*
D03*
X553500D02*
D03*
X558500D02*
D03*
X563500D02*
D03*
X568500D02*
D03*
X573500D02*
D03*
X578500D02*
D03*
X543500Y67886D02*
D03*
X548500D02*
D03*
X553500D02*
D03*
X558500D02*
D03*
X563500D02*
D03*
X568500D02*
D03*
X573500D02*
D03*
X578500D02*
D03*
D15*
X178500Y18937D02*
D03*
X1062667D02*
D03*
X288833D02*
D03*
X1173500D02*
D03*
X399667D02*
D03*
X1284333D02*
D03*
X510500D02*
D03*
X1394667D02*
D03*
X621333D02*
D03*
X1504000D02*
D03*
X731667D02*
D03*
X1614333D02*
D03*
X841500D02*
D03*
X1724667D02*
D03*
X951833D02*
D03*
X1835500D02*
D03*
D16*
X123031Y19902D02*
D03*
Y32894D02*
D03*
X103532D02*
D03*
X103347Y19902D02*
D03*
X233494D02*
D03*
Y32894D02*
D03*
X213994D02*
D03*
X213809Y19902D02*
D03*
X343957D02*
D03*
Y32894D02*
D03*
X324457D02*
D03*
X324272Y19902D02*
D03*
X454420D02*
D03*
Y32894D02*
D03*
X434920D02*
D03*
X434735Y19902D02*
D03*
X564882D02*
D03*
Y32894D02*
D03*
X545382D02*
D03*
X545197Y19902D02*
D03*
X675345D02*
D03*
Y32894D02*
D03*
X655845D02*
D03*
X655660Y19902D02*
D03*
X785808D02*
D03*
Y32894D02*
D03*
X766308D02*
D03*
X766123Y19902D02*
D03*
X896270D02*
D03*
Y32894D02*
D03*
X876770D02*
D03*
X876585Y19902D02*
D03*
X1006733D02*
D03*
Y32894D02*
D03*
X987233D02*
D03*
X987048Y19902D02*
D03*
X1117196D02*
D03*
Y32894D02*
D03*
X1097696D02*
D03*
X1097511Y19902D02*
D03*
X1227659D02*
D03*
Y32894D02*
D03*
X1208159D02*
D03*
X1207974Y19902D02*
D03*
X1338121D02*
D03*
Y32894D02*
D03*
X1318621D02*
D03*
X1318436Y19902D02*
D03*
X1448584D02*
D03*
Y32894D02*
D03*
X1429084D02*
D03*
X1428899Y19902D02*
D03*
X1559047D02*
D03*
Y32894D02*
D03*
X1539547D02*
D03*
X1539362Y19902D02*
D03*
X1669510D02*
D03*
Y32894D02*
D03*
X1650010D02*
D03*
X1649825Y19902D02*
D03*
X1779972D02*
D03*
Y32894D02*
D03*
X1760472D02*
D03*
X1760287Y19902D02*
D03*
X965000Y68827D02*
D03*
Y55048D02*
D03*
D17*
X223000Y56552D02*
D03*
Y69937D02*
D03*
D18*
X1128500Y53438D02*
D03*
X1118500D02*
D03*
X1148500Y53938D02*
D03*
X1138500D02*
D03*
D19*
X115996Y9938D02*
D03*
X123004D02*
D03*
X226496Y11000D02*
D03*
X233504D02*
D03*
X336996D02*
D03*
X344004D02*
D03*
X447496Y10000D02*
D03*
X454504D02*
D03*
X557996Y9500D02*
D03*
X565004D02*
D03*
X668496Y10500D02*
D03*
X675504D02*
D03*
X778496Y11500D02*
D03*
X785504D02*
D03*
X889496Y11000D02*
D03*
X896504D02*
D03*
X999496D02*
D03*
X1006504D02*
D03*
X1109996D02*
D03*
X1117004D02*
D03*
X1220496D02*
D03*
X1227504D02*
D03*
X1330996Y10500D02*
D03*
X1338004D02*
D03*
X1441496Y9938D02*
D03*
X1448504D02*
D03*
X1551829D02*
D03*
X1558837D02*
D03*
X1662163Y10437D02*
D03*
X1669171D02*
D03*
X1772996Y11438D02*
D03*
X1780004D02*
D03*
X1054004Y69437D02*
D03*
X1046996D02*
D03*
X1031996D02*
D03*
X1039004D02*
D03*
X1031996Y59938D02*
D03*
X1039004D02*
D03*
D20*
X237000Y65441D02*
D03*
Y58434D02*
D03*
X181500Y54934D02*
D03*
Y61941D02*
D03*
X947000Y56434D02*
D03*
Y63441D02*
D03*
X886000Y65434D02*
D03*
Y72441D02*
D03*
D21*
X185232Y44938D02*
D03*
X201768D02*
D03*
X64232Y62937D02*
D03*
X80768D02*
D03*
D22*
X211000Y75083D02*
D03*
Y65792D02*
D03*
D23*
Y52406D02*
D03*
Y58469D02*
D03*
X189500Y61969D02*
D03*
Y55906D02*
D03*
X939000Y63469D02*
D03*
Y57406D02*
D03*
X894000Y72469D02*
D03*
Y66406D02*
D03*
X173000Y48906D02*
D03*
Y54969D02*
D03*
D24*
X203240Y57926D02*
D03*
X199500D02*
D03*
X195760D02*
D03*
Y68949D02*
D03*
X199500D02*
D03*
X203240D02*
D03*
D25*
X904189Y63437D02*
D03*
D26*
X927811Y72493D02*
D03*
Y63437D02*
D03*
Y54382D02*
D03*
D27*
X1018945Y49611D02*
D03*
Y51579D02*
D03*
Y53548D02*
D03*
Y55516D02*
D03*
Y57485D02*
D03*
Y59453D02*
D03*
Y61422D02*
D03*
Y63390D02*
D03*
Y65359D02*
D03*
Y67327D02*
D03*
Y69296D02*
D03*
Y71264D02*
D03*
X987055D02*
D03*
Y69296D02*
D03*
Y67327D02*
D03*
Y65359D02*
D03*
Y63390D02*
D03*
Y61422D02*
D03*
Y59453D02*
D03*
Y57485D02*
D03*
Y55516D02*
D03*
Y53548D02*
D03*
Y51579D02*
D03*
Y49611D02*
D03*
D28*
X1013827Y76382D02*
D03*
X1011858D02*
D03*
X1009890D02*
D03*
X1007921D02*
D03*
X1005953D02*
D03*
X1003984D02*
D03*
X1002016D02*
D03*
X1000047D02*
D03*
X998079D02*
D03*
X996110D02*
D03*
X994142D02*
D03*
X992173D02*
D03*
Y44493D02*
D03*
X994142D02*
D03*
X996110D02*
D03*
X998079D02*
D03*
X1000047D02*
D03*
X1002016D02*
D03*
X1003984D02*
D03*
X1005953D02*
D03*
X1007921D02*
D03*
X1009890D02*
D03*
X1011858D02*
D03*
X1013827D02*
D03*
D29*
X13000Y16969D02*
D03*
Y61772D02*
D03*
X1876500Y61772D02*
D03*
Y16969D02*
D03*
D30*
X23138Y25591D02*
D03*
Y29528D02*
D03*
Y33465D02*
D03*
Y37402D02*
D03*
Y41339D02*
D03*
Y45276D02*
D03*
Y49213D02*
D03*
Y53150D02*
D03*
X1866362Y53150D02*
D03*
Y49213D02*
D03*
Y45276D02*
D03*
Y41339D02*
D03*
Y37402D02*
D03*
Y33465D02*
D03*
Y29528D02*
D03*
Y25591D02*
D03*
D32*
X1108500Y69437D02*
D03*
X1118500D02*
D03*
X1128500D02*
D03*
X1138500D02*
D03*
D33*
X1148500D02*
D03*
D34*
X76500Y44827D02*
D03*
Y31048D02*
D03*
D35*
X51181Y38500D02*
D03*
X393701Y58363D02*
D03*
X1574803D02*
D03*
M02*
