M48
;Layer_Color=9474304
;FILE_FORMAT=2:5
INCH,LZ
;TYPE=PLATED
T1F00S00C0.01181
T2F00S00C0.02800
T3F00S00C0.02953
T4F00S00C0.03543
T5F00S00C0.08661
%
T01
X18645Y00145
X1868Y00255
X18645Y00295
X1868Y00335
X1865Y00375
X1861Y00455
X1849
X18545Y0033437
X1854646Y00255
X178Y0011
X1773Y00115
X1760472Y0032894
X165001
X16625Y001
X1669171Y0010171
X1558837Y0009938
X1552Y001
X1539547Y0032894
X1495Y00325
X1472875Y00385
X1448584Y0019584
X1448504Y0009938
X14415Y001
X1429084Y0032894
X1433Y0048438
X1338004Y00105
X1331
X1318621Y0032894
X1208159
X12205Y0011
X1227504
X1117004
X111
X1097696Y0032894
X10725Y0042
X10575Y0035
X1051Y0044938
X1011858Y0037858
X09895Y0041938
X0987233Y0032894
X09765Y0038
X09725Y0044
X09695Y00475
X09995Y0011
X1006504
X089627Y0011233
X08895Y0011
X087677Y0032894
X0766308
X07785Y00115
X0785504
X0675345Y0010659
X06685Y00105
X0655845Y0032894
X0545382
X0558Y00095
X0564882Y0009622
X045442Y0010084
X04475Y001
X043492Y0032894
X0324457
X0337Y0011
X0343957Y0011047
X0233494Y001101
X02265Y0011
X0213994Y0032894
X02265Y0048
X01875Y0047438
X0103532Y0032894
X0116Y001
X0123004Y0009938
X00385Y0012
X00375Y00415
Y00455
X00255Y00375
X0021035Y0033465
X0021091Y0025591
X00125Y00385
X0021091Y0049091
X00255Y005315
X0037Y0066
X0111Y00575
X01905Y0075437
X01995Y0070438
X0237Y0065441
X0521Y007
X05435Y0066438
X05485
X05535Y0066938
X05585
X05635Y0067886
X05785Y0068
X0582
X05975
X0949Y0063437
X09525Y007715
X0963031Y0075187
X0965Y0059
X09765
Y007
X09875Y0073937
X0995Y0068937
X0998Y0065938
X1001Y0062937
X1004Y0060438
Y0055437
X1002Y0051437
X0998Y0049937
X1006
X10105Y0051437
X10095Y0057938
X1011Y0061437
X09925Y0064438
X1013Y0067937
X10265Y0070438
X1039Y0075937
X1043Y0063
X10465Y0049
X1054Y0050937
X10595Y0048937
X10655Y0051437
X1093Y0066
Y0074437
X11655Y0049437
X11765
X1196
X12095
X12265
X12345
X12535
X12775
X12955
X13125
X13135Y0069437
X12885Y00755
X12745Y0069437
X12295Y0074
X12155Y0069437
X11885Y0074437
X11755Y0069
X1346Y0075437
X1364Y0069437
X13535Y0049437
X1334Y0049437
X14325Y0069437
X1453Y0075437
X14595Y0067886
X14645Y0067437
X14695Y0067886
X14745Y0067437
X14795Y00725
X14895Y00675
X14945Y0072421
X15055Y0075
X15245
X15205Y0069937
Y0062937
Y0055937
Y0048937
X1854Y00545
X186515Y005315
X1868213Y0049213
X1876Y00495
X1868Y0061437
X18635Y00685
X1876Y0074437
X18405Y00685
T02
X1824Y0036437
X1749
X1734
X16365Y0021438
X13065
X1164Y0036437
X1104
X10815Y0021438
X09765
X07515
X04215
X0084Y0036437
X0069
X0249Y0066438
X0264
X0279
X0294
X0309
X0324
X0339
X0354
X0369
X0384
X0399
X0414
X0429
X0444
X0459
X0474
X0489
X0504
X0609
X0624
X0639
X0654
X0669
X0684
X0699
X0714
X0729
X0744
X0759
X0774
X0789
X0804
X0819
X0834
X0849
X0864
X1524
X1539
X1554
X1569
X1584
X1599
X1614
X1629
X1644
X1659
X1674
X1689
X1704
X1719
X1734
X1749
X1764
X1779
X1794
X1809
X18315Y0051437
T03
X00765Y0031048
Y0044827
T04
X11085Y0069437
X11185
X11285
X11385
X11485
T05
X0051181Y00385
X0393701Y0058363
X1574803
M30
