M48
;Layer_Color=9474304
;FILE_FORMAT=2:5
INCH,LZ
;TYPE=PLATED
T1F00S00C0.01181
T2F00S00C0.02756
T3F00S00C0.02800
T4F00S00C0.02953
T6F00S00C0.03543
;TYPE=NON_PLATED
T7F00S00C0.01968
%
T01
X0479815Y02155
X0483177
X04755Y02295
X051Y0223886
Y02165
X053Y02275
Y02435
X0524Y0273
X05205Y0277
X0523Y0281
X05205Y02845
X04965Y02755
X04755Y0275468
X0453Y02855
X04425Y02745
X04215Y02775
X04245Y0281
X04215Y02845
X0425Y0294
X0427Y031
X04Y03065
X0375468
X03695
X03765Y0299
Y0276571
X03695Y0272
X0369496Y02655
X0376
X0357921Y0268231
X0358Y0237
X0351Y023
X0343Y02335
Y0221031
X0364Y0212
X03785Y0199469
X0386Y02055
X03975Y0213
X03995Y0222
X04045Y0222264
X0415069Y021
X0418431
X0421Y02335
X0405Y0251
X0398Y0250969
Y0257031
X0405252Y0263748
X0391Y02715
X0384736Y0227
X03695Y024
X0347969Y03055
X04635Y02975
X0458756Y0321626
X0438Y03265
X0433Y032
X0424031Y03205
X0411031
X0411437Y03375
X0431Y03485
X04255Y0354969
X043Y0313
X0438Y0314
X0392Y03205
X03755Y0324532
X0347969Y0324689
X0338945Y0345055
X0357055Y0348311
X0367Y0345
X0384555Y0348311
X0382968Y03895
X0375969
X0366354Y038
X0366968Y0403
X0356457Y039926
X0352Y0403
X0348472Y0403
X0348468Y0410004
X0352Y04165
X0346732Y04245
X0348Y0393
X0346Y03675
X0339
X0392969Y0399732
X0412Y0404
X03815Y04175
X04615Y0369
X0468402Y0369067
X04715Y03655
X04745Y0363
X0478Y036
X0481Y03575
X04855Y03445
Y034
X05085Y0342098
X0511949Y0338949
X0514701Y0335799
X051785Y033265
X05195Y0342059
X05235Y0346
X0520067Y0349933
X05235Y03535
X052Y03575
X05235Y03615
X0520319Y0365681
X0524Y03695
X0519555Y0373555
X0524Y0338
T02
X0452Y0222854
Y0242146
T03
X0495Y021
X051
X05025Y0225
X051Y024
X0495
X05025Y0255
X05175
X051Y027
X0495
X048
X04875Y0255
X05025Y0285
X0465Y027
Y024
Y021
X045
X0435
X04425Y0255
X0435Y027
X04125Y0285
Y0255
X039Y03
X0345Y024
X036Y033
X039
X0405
X03975Y0345
X039Y036
X03975Y0375
X03825
X0405Y039
X0392969Y0416268
X03975Y0435
X04125
X04275
X04425
X04575
Y0405
X045Y039
Y033
X036Y036
X03675Y0435
X03825
X03525
X04725
X05025
X05325
X0525Y042
X05325Y0405
X050475Y04015
X049875
X04875Y0405
X04725
X048Y039
X051
X0511Y0383
X0495Y033
X048
X047475Y03355
X046875
X04725Y0345
X04875Y0315
T04
X04265Y037461
Y038839
T06
X0344Y02025
X0354
X0339Y02505
Y02605
Y02705
Y02805
Y02905
X0401Y03515
Y03615
T07
X0474902Y0207465
X049065
M30
