G04 Layer_Color=16711935*
%FSLAX25Y25*%
%MOIN*%
G70*
G01*
G75*
%ADD91R,0.16548X0.08674*%
%ADD92R,0.08674X0.16548*%
%ADD93R,0.06706X0.06706*%
%ADD94C,0.06706*%
%ADD95C,0.07099*%
%ADD96C,0.00008*%
%ADD97R,0.06706X0.06706*%
%ADD98C,0.07493*%
%ADD99R,0.07493X0.07493*%
%ADD100C,0.02769*%
%ADD101C,0.03162*%
%ADD102C,0.05800*%
D91*
X461000Y393000D02*
D03*
Y417410D02*
D03*
D92*
X442496Y403630D02*
D03*
D93*
X401000Y361500D02*
D03*
D94*
Y351500D02*
D03*
X344000Y202500D02*
D03*
D95*
X426500Y388390D02*
D03*
Y374610D02*
D03*
X452000Y222854D02*
D03*
Y242146D02*
D03*
D96*
X490650Y207465D02*
D03*
X474902D02*
D03*
D97*
X354000Y202500D02*
D03*
D98*
X339000Y250500D02*
D03*
Y260500D02*
D03*
Y270500D02*
D03*
Y280500D02*
D03*
D99*
Y290500D02*
D03*
D100*
X397500Y213000D02*
D03*
X386000Y205500D02*
D03*
X364000Y212000D02*
D03*
X463500Y297500D02*
D03*
X461500Y369000D02*
D03*
X346000Y367500D02*
D03*
X519500Y342059D02*
D03*
D101*
X405252Y263748D02*
D03*
X398000Y257031D02*
D03*
X453000Y285500D02*
D03*
X430000Y313000D02*
D03*
X425000Y294000D02*
D03*
X427000Y310000D02*
D03*
X369500Y306500D02*
D03*
Y272000D02*
D03*
X343000Y221031D02*
D03*
X378500Y199469D02*
D03*
X418431Y210000D02*
D03*
X415069D02*
D03*
X421000Y233500D02*
D03*
X391000Y271500D02*
D03*
X351000Y230000D02*
D03*
X343000Y233500D02*
D03*
X384736Y227000D02*
D03*
X352000Y403000D02*
D03*
Y416500D02*
D03*
X530000Y243500D02*
D03*
Y227500D02*
D03*
X346732Y424500D02*
D03*
X348000Y393000D02*
D03*
X412000Y404000D02*
D03*
X339000Y367500D02*
D03*
X366354Y380000D02*
D03*
X347969Y305500D02*
D03*
X400000Y306500D02*
D03*
X375468D02*
D03*
X367000Y345000D02*
D03*
X338945Y345055D02*
D03*
X384555Y348311D02*
D03*
X357055D02*
D03*
X375500Y324532D02*
D03*
X347969Y324689D02*
D03*
X358000Y237000D02*
D03*
X405000Y251000D02*
D03*
X404500Y222264D02*
D03*
X399500Y222000D02*
D03*
X398000Y250969D02*
D03*
X421500Y284500D02*
D03*
Y277500D02*
D03*
X442500Y274500D02*
D03*
X510000Y216500D02*
D03*
Y223886D02*
D03*
X424500Y281000D02*
D03*
X517850Y332650D02*
D03*
X520500Y284500D02*
D03*
X523000Y281000D02*
D03*
X514701Y335799D02*
D03*
X520500Y277000D02*
D03*
X511949Y338949D02*
D03*
X508500Y342098D02*
D03*
X524000Y273000D02*
D03*
Y338000D02*
D03*
X523500Y346000D02*
D03*
X485500Y340000D02*
D03*
Y344500D02*
D03*
X520067Y349933D02*
D03*
X523500Y353500D02*
D03*
X481000Y357500D02*
D03*
X478000Y360000D02*
D03*
X520000Y357500D02*
D03*
X523500Y361500D02*
D03*
X474500Y363000D02*
D03*
X471500Y365500D02*
D03*
X520319Y365681D02*
D03*
X524000Y369500D02*
D03*
X468402Y369067D02*
D03*
X519555Y373555D02*
D03*
X376500Y299000D02*
D03*
Y276571D02*
D03*
X424031Y320500D02*
D03*
X392000D02*
D03*
X411031D02*
D03*
X376000Y265500D02*
D03*
X357921Y268231D02*
D03*
X369500Y240000D02*
D03*
X369496Y265500D02*
D03*
X433000Y320000D02*
D03*
X438000Y314000D02*
D03*
Y326500D02*
D03*
X425500Y354969D02*
D03*
X431000Y348500D02*
D03*
X411437Y337500D02*
D03*
X496500Y275500D02*
D03*
X475500Y275468D02*
D03*
X382968Y389500D02*
D03*
X375969D02*
D03*
X348472Y403000D02*
D03*
X348468Y410004D02*
D03*
X381500Y417500D02*
D03*
X356457Y399260D02*
D03*
X392969Y399732D02*
D03*
X366968Y403000D02*
D03*
X458756Y321626D02*
D03*
X483177Y215500D02*
D03*
X479815D02*
D03*
X475500Y229500D02*
D03*
D102*
X392969Y416268D02*
D03*
X511000Y383000D02*
D03*
X468750Y335500D02*
D03*
X474750D02*
D03*
X498750Y401500D02*
D03*
X504750D02*
D03*
M02*
