G04 Layer_Color=32768*
%FSLAX25Y25*%
%MOIN*%
G70*
G01*
G75*
%ADD104C,0.00394*%
%ADD105C,0.00197*%
%ADD106C,0.00800*%
D104*
X385949Y397000D02*
X388311D01*
X387130Y395819D02*
Y398181D01*
X370988Y395819D02*
Y398181D01*
X419020Y347319D02*
Y349681D01*
X435161Y347319D02*
Y349681D01*
X433980Y348500D02*
X436342D01*
D105*
X359378Y252500D02*
X359056Y253386D01*
X358239Y253857D01*
X357311Y253693D01*
X356705Y252971D01*
Y252029D01*
X357311Y251307D01*
X358239Y251143D01*
X359056Y251614D01*
X359378Y252500D01*
X533378Y229598D02*
X533056Y230484D01*
X532239Y230956D01*
X531311Y230792D01*
X530705Y230070D01*
Y229127D01*
X531311Y228405D01*
X532239Y228241D01*
X533056Y228713D01*
X533378Y229598D01*
X503378Y430000D02*
X503056Y430886D01*
X502239Y431357D01*
X501311Y431193D01*
X500705Y430471D01*
Y429529D01*
X501311Y428807D01*
X502239Y428643D01*
X503056Y429114D01*
X503378Y430000D01*
X533378Y355839D02*
X533056Y356724D01*
X532239Y357196D01*
X531311Y357032D01*
X530705Y356310D01*
Y355367D01*
X531311Y354645D01*
X532239Y354482D01*
X533056Y354953D01*
X533378Y355839D01*
Y290724D02*
X533056Y291610D01*
X532239Y292081D01*
X531311Y291918D01*
X530705Y291196D01*
Y290253D01*
X531311Y289531D01*
X532239Y289367D01*
X533056Y289839D01*
X533378Y290724D01*
X358000Y250532D02*
Y254468D01*
X356031Y252500D02*
X359968D01*
X532000Y227630D02*
Y231567D01*
X530031Y229598D02*
X533968D01*
X502000Y428031D02*
Y431968D01*
X500032Y430000D02*
X503968D01*
X532000Y353870D02*
Y357807D01*
X530031Y355839D02*
X533968D01*
X530031Y290724D02*
X533968D01*
X532000Y288756D02*
Y292693D01*
D106*
X392969Y421386D02*
Y425323D01*
X391000Y423354D02*
X394937D01*
X391000Y394220D02*
X394937D01*
X428500Y426886D02*
Y430823D01*
X426532Y428854D02*
X430469D01*
X426532Y399721D02*
X430469D01*
X368386Y424500D02*
X372323D01*
X370354Y422532D02*
Y426469D01*
X341220Y422532D02*
Y426469D01*
X405807Y339032D02*
Y342969D01*
X423524Y339032D02*
Y342969D01*
X421555Y341000D02*
X425492D01*
X405807Y332031D02*
Y335968D01*
X423524Y332031D02*
Y335968D01*
X421555Y334000D02*
X425492D01*
M02*
