G04 Layer_Color=65535*
%FSLAX25Y25*%
%MOIN*%
G70*
G01*
G75*
%ADD10C,0.01000*%
%ADD55C,0.00787*%
%ADD56C,0.00984*%
%ADD57C,0.00984*%
%ADD58C,0.01181*%
%ADD59C,0.01575*%
%ADD60C,0.01969*%
%ADD61C,0.02362*%
%ADD62R,0.01181X0.04724*%
D10*
X442248Y381500D02*
X442216Y382499D01*
X442121Y383494D01*
X441963Y384480D01*
X441743Y385455D01*
X441462Y386414D01*
X441120Y387353D01*
X440719Y388268D01*
X440261Y389157D01*
X439748Y390014D01*
X439181Y390837D01*
X438564Y391623D01*
X437897Y392367D01*
X437185Y393068D01*
X436430Y393723D01*
X435635Y394328D01*
X434803Y394882D01*
X433937Y395381D01*
X433042Y395825D01*
X432120Y396211D01*
X431176Y396538D01*
X430213Y396804D01*
X429235Y397009D01*
X428245Y397151D01*
X427249Y397230D01*
X426250Y397246D01*
X425252Y397199D01*
X424259Y397088D01*
X423275Y396914D01*
X422304Y396679D01*
X421349Y396382D01*
X420416Y396025D01*
X419507Y395610D01*
X418626Y395138D01*
X417777Y394611D01*
X416963Y394032D01*
X416187Y393402D01*
X415453Y392723D01*
X414764Y392000D01*
X414121Y391235D01*
X413529Y390430D01*
X412989Y389589D01*
X412503Y388716D01*
X412073Y387814D01*
X411702Y386886D01*
X411390Y385937D01*
X411139Y384969D01*
X410950Y383988D01*
X410823Y382997D01*
X410760Y382000D01*
Y381000D01*
X410823Y380003D01*
X410950Y379012D01*
X411139Y378030D01*
X411390Y377063D01*
X411702Y376114D01*
X412073Y375186D01*
X412503Y374284D01*
X412989Y373411D01*
X413529Y372570D01*
X414121Y371765D01*
X414764Y371000D01*
X415453Y370276D01*
X416187Y369598D01*
X416963Y368968D01*
X417777Y368389D01*
X418626Y367862D01*
X419507Y367390D01*
X420416Y366975D01*
X421349Y366618D01*
X422304Y366321D01*
X423275Y366086D01*
X424259Y365912D01*
X425252Y365802D01*
X426250Y365754D01*
X427249Y365770D01*
X428245Y365849D01*
X429235Y365991D01*
X430213Y366196D01*
X431176Y366462D01*
X432120Y366789D01*
X433042Y367175D01*
X433937Y367619D01*
X434803Y368119D01*
X435635Y368672D01*
X436430Y369277D01*
X437185Y369932D01*
X437897Y370633D01*
X438564Y371377D01*
X439181Y372163D01*
X439748Y372986D01*
X440261Y373843D01*
X440719Y374731D01*
X441120Y375647D01*
X441462Y376586D01*
X441743Y377545D01*
X441963Y378520D01*
X442121Y379506D01*
X442216Y380501D01*
X442248Y381500D01*
X443150Y220100D02*
X443206Y219109D01*
X443372Y218131D01*
X443647Y217177D01*
X444026Y216260D01*
X444507Y215391D01*
X445081Y214582D01*
X445742Y213842D01*
X446482Y213181D01*
X447292Y212607D01*
X448160Y212126D01*
X449077Y211747D01*
X450031Y211472D01*
X451009Y211306D01*
X452000Y211250D01*
X452991Y211306D01*
X453969Y211472D01*
X454923Y211747D01*
X455840Y212126D01*
X456708Y212607D01*
X457518Y213181D01*
X458258Y213842D01*
X458919Y214582D01*
X459493Y215391D01*
X459974Y216260D01*
X460353Y217177D01*
X460628Y218131D01*
X460794Y219109D01*
X460850Y220100D01*
Y244900D02*
X460794Y245891D01*
X460628Y246869D01*
X460353Y247823D01*
X459974Y248740D01*
X459493Y249608D01*
X458919Y250418D01*
X458258Y251158D01*
X457518Y251819D01*
X456708Y252394D01*
X455840Y252873D01*
X454923Y253253D01*
X453969Y253528D01*
X452991Y253694D01*
X452000Y253750D01*
X451009Y253694D01*
X450031Y253528D01*
X449077Y253253D01*
X448160Y252873D01*
X447292Y252394D01*
X446482Y251819D01*
X445742Y251158D01*
X445081Y250418D01*
X444507Y249608D01*
X444026Y248740D01*
X443647Y247823D01*
X443372Y246869D01*
X443206Y245891D01*
X443150Y244900D01*
X478717Y395819D02*
Y446937D01*
X443284D02*
X478717D01*
X443284Y395819D02*
Y446937D01*
Y395819D02*
X478717D01*
X420500Y400216D02*
Y425716D01*
X403500Y400216D02*
X420500D01*
X403500D02*
Y425716D01*
X420500D01*
X411000Y381500D02*
X442000D01*
X412000Y376500D02*
X441500D01*
X415000Y371500D02*
X438500D01*
X358701Y300661D02*
X358701Y274480D01*
X362244D01*
X358701Y300661D02*
X362244D01*
X367756Y274480D02*
X371299D01*
X367756Y300661D02*
X371299D01*
X371299Y274480D01*
X460850Y220100D02*
Y244900D01*
X443150Y220100D02*
Y244900D01*
X363689Y330988D02*
Y342012D01*
Y330988D02*
X387311D01*
Y342012D01*
X363689D02*
X387311D01*
X336189Y330988D02*
Y342012D01*
Y330988D02*
X359811D01*
Y342012D01*
X336189D02*
X359811D01*
X360000Y397488D02*
X363937D01*
X360000Y408512D02*
X363937D01*
Y397488D02*
Y408512D01*
X360000Y397488D02*
Y408512D01*
X431587Y226988D02*
Y238012D01*
X392413Y226988D02*
Y238012D01*
X431587D01*
X392413Y226988D02*
X431587D01*
X368988Y210051D02*
X380012D01*
X368988Y228949D02*
X380012D01*
Y210051D02*
Y228949D01*
X368988Y210051D02*
Y228949D01*
X360400Y252500D02*
X363000D01*
X356000D02*
X358600D01*
X354000Y249600D02*
Y255500D01*
X360100Y259500D02*
X363000D01*
Y245500D02*
Y259500D01*
X360100Y245500D02*
X363000D01*
X365480Y240341D02*
Y265144D01*
X350520Y240341D02*
Y265144D01*
X362200D02*
X365480D01*
X362200Y240341D02*
X365480D01*
X350520Y265144D02*
X353400D01*
X350520Y240341D02*
X353400D01*
X522000Y203472D02*
X526000D01*
X522000D02*
Y213472D01*
Y245724D02*
Y255724D01*
X526000D01*
X538000Y203472D02*
X544500D01*
X538000Y255724D02*
X544500D01*
Y203472D02*
Y255724D01*
X351787Y372126D02*
Y387874D01*
Y372126D02*
X367535D01*
Y387874D01*
X351787D02*
X367535D01*
X344905Y285382D02*
X348600D01*
X344905Y255854D02*
X348700D01*
Y285382D01*
X348800Y240894D02*
Y250736D01*
X348700Y290500D02*
Y299949D01*
X325400Y240894D02*
Y299949D01*
X348700D01*
X325400Y240894D02*
X348800D01*
X344905Y290500D02*
X348700D01*
X344905Y285382D02*
Y290500D01*
Y250736D02*
X348800D01*
X344905D02*
Y255854D01*
X387063Y417252D02*
X387850D01*
X398087D02*
X398874D01*
X398087Y398748D02*
X398874D01*
X387063D02*
X387850D01*
X387063D02*
Y417252D01*
Y405047D02*
X398874D01*
Y398748D02*
Y417252D01*
X422594Y422752D02*
X423382D01*
X433618D02*
X434406D01*
X433618Y404248D02*
X434406D01*
X422594D02*
X423382D01*
X422594D02*
Y422752D01*
Y410547D02*
X434406D01*
Y404248D02*
Y422752D01*
X364252Y429618D02*
Y430406D01*
Y418595D02*
Y419382D01*
X345748Y418595D02*
Y419382D01*
Y429618D02*
Y430406D01*
X364252D01*
X352047Y418595D02*
Y430406D01*
X345748Y418595D02*
X364252D01*
X522000Y325776D02*
X526000D01*
X522000D02*
Y335776D01*
Y375902D02*
Y385902D01*
X526000D01*
X538000Y325776D02*
X544500D01*
X538000Y385902D02*
X544500D01*
Y325776D02*
Y385902D01*
Y256724D02*
Y324724D01*
X538000D02*
X544500D01*
X538000Y256724D02*
X544500D01*
X522000Y324724D02*
X526000D01*
X522000Y314724D02*
Y324724D01*
Y256724D02*
Y266724D01*
Y256724D02*
X526000D01*
X439559Y361150D02*
Y363748D01*
X436350D02*
X439559D01*
X436350Y352252D02*
X439559D01*
Y354850D01*
Y352252D02*
Y354850D01*
Y352252D02*
Y354850D01*
X428000Y437000D02*
Y442998D01*
X430999D01*
X431999Y441998D01*
Y439999D01*
X430999Y438999D01*
X428000D01*
X433998Y442998D02*
X437997D01*
Y441998D01*
X433998Y438000D01*
Y437000D01*
X470051Y221498D02*
Y216500D01*
X471051Y215500D01*
X473050D01*
X474050Y216500D01*
Y221498D01*
X480048Y220498D02*
X479048Y221498D01*
X477049D01*
X476049Y220498D01*
Y219499D01*
X477049Y218499D01*
X479048D01*
X480048Y217499D01*
Y216500D01*
X479048Y215500D01*
X477049D01*
X476049Y216500D01*
X482047Y221498D02*
Y215500D01*
X485046D01*
X486046Y216500D01*
Y217499D01*
X485046Y218499D01*
X482047D01*
X485046D01*
X486046Y219499D01*
Y220498D01*
X485046Y221498D01*
X482047D01*
X488045Y215500D02*
X490045D01*
X489045D01*
Y221498D01*
X488045Y220498D01*
X516500Y229000D02*
X510502D01*
Y231999D01*
X511502Y232999D01*
X513501D01*
X514501Y231999D01*
Y229000D01*
X516500Y237997D02*
X510502D01*
X513501Y234998D01*
Y238997D01*
X377000Y430998D02*
Y425000D01*
X379999D01*
X380999Y426000D01*
Y429998D01*
X379999Y430998D01*
X377000D01*
X385997Y425000D02*
Y430998D01*
X382998Y427999D01*
X386997D01*
X527000Y405500D02*
Y411498D01*
X529999D01*
X530999Y410498D01*
Y408499D01*
X529999Y407499D01*
X527000D01*
X532998Y405500D02*
X534997D01*
X533998D01*
Y411498D01*
X532998Y410498D01*
X516000Y352500D02*
X510002D01*
Y355499D01*
X511002Y356499D01*
X513001D01*
X514001Y355499D01*
Y352500D01*
X512001Y358498D02*
X516000Y362497D01*
X514001Y360497D01*
X512001Y362497D01*
X516000Y358498D01*
Y364496D02*
Y366495D01*
Y365496D01*
X510002D01*
X511002Y364496D01*
X515500Y290500D02*
X509502D01*
Y293499D01*
X510502Y294499D01*
X512501D01*
X513501Y293499D01*
Y290500D01*
X511501Y296498D02*
X514500D01*
X515500Y297498D01*
Y300497D01*
X516500D01*
X517499Y299497D01*
Y298497D01*
X515500Y300497D02*
X511501D01*
X515500Y302496D02*
Y304496D01*
Y303496D01*
X509502D01*
X510502Y302496D01*
X456250Y364248D02*
Y359250D01*
X457250Y358250D01*
X459249D01*
X460249Y359250D01*
Y364248D01*
X462248Y358250D02*
X464247D01*
X463248D01*
Y364248D01*
X462248Y363248D01*
D55*
X383890Y235032D02*
X384351Y233918D01*
X385465Y233457D01*
X388535D02*
X389649Y233918D01*
X390110Y235032D01*
X390110Y243969D02*
X389649Y245082D01*
X388535Y245543D01*
X385465Y245543D02*
X384351Y245082D01*
X383890Y243969D01*
X382968Y303390D02*
X384082Y303851D01*
X384543Y304965D01*
Y308035D02*
X384082Y309149D01*
X382968Y309610D01*
X374031Y309610D02*
X372918Y309149D01*
X372457Y308035D01*
X372457Y304965D02*
X372918Y303851D01*
X374031Y303390D01*
X372031Y312500D02*
X372493Y311386D01*
X373606Y310925D01*
X373606Y319075D02*
X372493Y318614D01*
X372031Y317500D01*
X385968Y317500D02*
X385507Y318614D01*
X384394Y319075D01*
X384394Y310925D02*
X385507Y311386D01*
X385968Y312500D01*
X373969Y354390D02*
X375082Y354851D01*
X375543Y355965D01*
Y359035D02*
X375082Y360149D01*
X373969Y360610D01*
X365032Y360610D02*
X363918Y360149D01*
X363457Y359035D01*
X363457Y355965D02*
X363918Y354851D01*
X365032Y354390D01*
X363032Y363500D02*
X363493Y362386D01*
X364606Y361925D01*
X364606Y370075D02*
X363493Y369614D01*
X363032Y368500D01*
X376969Y368500D02*
X376507Y369614D01*
X375394Y370075D01*
X375394Y361925D02*
X376507Y362386D01*
X376969Y363500D01*
X355469Y302390D02*
X356582Y302851D01*
X357043Y303965D01*
Y307035D02*
X356582Y308149D01*
X355469Y308610D01*
X346532Y308610D02*
X345418Y308149D01*
X344957Y307035D01*
X344957Y303965D02*
X345418Y302851D01*
X346532Y302390D01*
X344531Y311500D02*
X344993Y310386D01*
X346106Y309925D01*
X346106Y318075D02*
X344993Y317614D01*
X344531Y316500D01*
X358469Y316500D02*
X358007Y317614D01*
X356894Y318075D01*
X356894Y309925D02*
X358007Y310386D01*
X358469Y311500D01*
X346468Y354890D02*
X347582Y355351D01*
X348043Y356465D01*
Y359535D02*
X347582Y360649D01*
X346468Y361110D01*
X337531Y361110D02*
X336418Y360649D01*
X335957Y359535D01*
X335957Y356465D02*
X336418Y355351D01*
X337531Y354890D01*
X335531Y365000D02*
X335993Y363886D01*
X337106Y363425D01*
X337106Y371575D02*
X335993Y371113D01*
X335531Y370000D01*
X349468Y370000D02*
X349007Y371114D01*
X347894Y371575D01*
X347894Y363425D02*
X349007Y363886D01*
X349468Y365000D01*
X350969Y399532D02*
X352082Y399993D01*
X352543Y401106D01*
X344394Y401106D02*
X344855Y399993D01*
X345969Y399532D01*
X345969Y413469D02*
X344855Y413007D01*
X344394Y411894D01*
X352543Y411894D02*
X352082Y413007D01*
X350969Y413469D01*
X363937Y388890D02*
X365051Y389351D01*
X365512Y390465D01*
Y393535D02*
X365051Y394649D01*
X363937Y395110D01*
X355000Y395110D02*
X353886Y394649D01*
X353425Y393535D01*
X353425Y390465D02*
X353886Y389351D01*
X355000Y388890D01*
X372500Y387000D02*
X372961Y385886D01*
X374075Y385425D01*
X374075Y393575D02*
X372961Y393113D01*
X372500Y392000D01*
X386437Y392000D02*
X385976Y393114D01*
X384862Y393575D01*
X384862Y385425D02*
X385976Y385886D01*
X386437Y387000D01*
X403532Y323610D02*
X402418Y323149D01*
X401957Y322035D01*
Y318965D02*
X402418Y317851D01*
X403532Y317390D01*
X412468Y317390D02*
X413582Y317851D01*
X414043Y318965D01*
X414043Y322035D02*
X413582Y323149D01*
X412468Y323610D01*
X399468Y317390D02*
X400582Y317851D01*
X401043Y318965D01*
Y322035D02*
X400582Y323149D01*
X399468Y323610D01*
X390531Y323610D02*
X389418Y323149D01*
X388957Y322035D01*
X388957Y318965D02*
X389418Y317851D01*
X390531Y317390D01*
X431610Y258968D02*
X431149Y260082D01*
X430035Y260543D01*
X426965D02*
X425851Y260082D01*
X425390Y258968D01*
X425390Y250031D02*
X425851Y248918D01*
X426965Y248457D01*
X430035Y248457D02*
X431149Y248918D01*
X431610Y250031D01*
X379000Y273102D02*
X380114Y273564D01*
X380575Y274677D01*
X372425Y274677D02*
X372886Y273564D01*
X374000Y273102D01*
X374000Y287039D02*
X372886Y286578D01*
X372425Y285465D01*
X380575Y285465D02*
X380114Y286578D01*
X379000Y287039D01*
X382890Y198031D02*
X383351Y196918D01*
X384465Y196457D01*
X387535D02*
X388649Y196918D01*
X389110Y198031D01*
X389110Y206968D02*
X388649Y208082D01*
X387535Y208543D01*
X384465Y208543D02*
X383351Y208082D01*
X382890Y206968D01*
X369032Y260110D02*
X367918Y259649D01*
X367457Y258535D01*
Y255465D02*
X367918Y254351D01*
X369032Y253890D01*
X377969Y253890D02*
X379082Y254351D01*
X379543Y255465D01*
X379543Y258535D02*
X379082Y259649D01*
X377969Y260110D01*
X374000Y302468D02*
X372886Y302007D01*
X372425Y300894D01*
X380575Y300894D02*
X380114Y302007D01*
X379000Y302468D01*
X379000Y288531D02*
X380114Y288993D01*
X380575Y290106D01*
X372425Y290106D02*
X372886Y288993D01*
X374000Y288531D01*
X440500Y218032D02*
X441614Y218493D01*
X442075Y219606D01*
X433925Y219606D02*
X434386Y218493D01*
X435500Y218032D01*
X435500Y231968D02*
X434386Y231507D01*
X433925Y230394D01*
X442075Y230394D02*
X441614Y231507D01*
X440500Y231968D01*
X435500Y246969D02*
X434386Y246507D01*
X433925Y245394D01*
X442075Y245394D02*
X441614Y246507D01*
X440500Y246969D01*
X440500Y233032D02*
X441614Y233493D01*
X442075Y234606D01*
X433925Y234606D02*
X434386Y233493D01*
X435500Y233032D01*
X407969Y215500D02*
X407507Y216614D01*
X406394Y217075D01*
X406394Y208925D02*
X407507Y209386D01*
X407969Y210500D01*
X394032Y210500D02*
X394493Y209386D01*
X395606Y208925D01*
X395606Y217075D02*
X394493Y216614D01*
X394032Y215500D01*
X357968Y225890D02*
X359082Y226351D01*
X359543Y227465D01*
Y230535D02*
X359082Y231649D01*
X357968Y232110D01*
X349031Y232110D02*
X347918Y231649D01*
X347457Y230535D01*
X347457Y227465D02*
X347918Y226351D01*
X349031Y225890D01*
X346110Y222468D02*
X345649Y223582D01*
X344535Y224043D01*
X341465D02*
X340351Y223582D01*
X339890Y222468D01*
X339890Y213531D02*
X340351Y212418D01*
X341465Y211957D01*
X344535Y211957D02*
X345649Y212418D01*
X346110Y213531D01*
X444965Y386043D02*
X443851Y385582D01*
X443390Y384469D01*
X449610Y384469D02*
X449149Y385582D01*
X448035Y386043D01*
X448035Y373957D02*
X449149Y374418D01*
X449610Y375532D01*
X443390D02*
X443851Y374418D01*
X444965Y373957D01*
X436465Y323043D02*
X435351Y322582D01*
X434890Y321468D01*
X441110Y321468D02*
X440649Y322582D01*
X439535Y323043D01*
X439535Y310957D02*
X440649Y311418D01*
X441110Y312531D01*
X434890D02*
X435351Y311418D01*
X436465Y310957D01*
X480965Y284543D02*
X479851Y284082D01*
X479390Y282968D01*
X485610Y282968D02*
X485149Y284082D01*
X484035Y284543D01*
X484035Y272457D02*
X485149Y272918D01*
X485610Y274031D01*
X479390D02*
X479851Y272918D01*
X480965Y272457D01*
X487965Y284543D02*
X486851Y284082D01*
X486390Y282968D01*
X492610Y282968D02*
X492149Y284082D01*
X491035Y284543D01*
X491035Y272457D02*
X492149Y272918D01*
X492610Y274031D01*
X486390D02*
X486851Y272918D01*
X487965Y272457D01*
X458965Y284543D02*
X457851Y284082D01*
X457390Y282968D01*
X463610Y282968D02*
X463149Y284082D01*
X462035Y284543D01*
X462035Y272457D02*
X463149Y272918D01*
X463610Y274031D01*
X457390D02*
X457851Y272918D01*
X458965Y272457D01*
X390110Y235032D02*
Y237925D01*
X390110Y241075D02*
Y243969D01*
X383890Y241075D02*
Y243969D01*
X385465Y233457D02*
X388535D01*
X385465Y245543D02*
X388535D01*
X383890Y235032D02*
Y237925D01*
X475000Y395819D02*
Y437094D01*
X443284D02*
X478717D01*
X447000Y395819D02*
Y437094D01*
X396000Y346500D02*
X406000D01*
X396000D02*
Y366500D01*
X406000D01*
Y346500D02*
Y366500D01*
X405252Y275118D02*
Y296772D01*
X426905Y275118D02*
Y296772D01*
X405252D02*
X426905D01*
X405252Y275118D02*
X426905D01*
X380043Y414390D02*
X384512D01*
X372425D02*
X376894D01*
X380043Y420610D02*
X384512D01*
X372425Y414390D02*
Y420610D01*
X384512Y414390D02*
Y420610D01*
X372425D02*
X376894D01*
X380043Y407390D02*
X384512D01*
X372425D02*
X376894D01*
X380043Y413610D02*
X384512D01*
X372425Y407390D02*
Y413610D01*
X384512Y407390D02*
Y413610D01*
X372425D02*
X376894D01*
X372425Y406610D02*
X376894D01*
X380043D02*
X384512D01*
X372425Y400390D02*
X376894D01*
X384512D02*
Y406610D01*
X372425Y400390D02*
Y406610D01*
X380043Y400390D02*
X384512D01*
X363543Y410390D02*
X368012D01*
X355925D02*
X360394D01*
X363543Y416610D02*
X368012D01*
X355925Y410390D02*
Y416610D01*
X368012Y410390D02*
Y416610D01*
X355925D02*
X360394D01*
X366032Y261425D02*
Y269575D01*
X379969Y261425D02*
Y269575D01*
X374772D02*
X379969D01*
X366032D02*
X371228D01*
X366032Y261425D02*
X371228D01*
X374772D02*
X379969D01*
X401890Y247957D02*
Y252425D01*
Y255575D02*
Y260043D01*
X408110Y247957D02*
Y252425D01*
X401890Y260043D02*
X408110D01*
X401890Y247957D02*
X408110D01*
Y255575D02*
Y260043D01*
X422575Y317390D02*
X427043D01*
X414957D02*
X419425D01*
X422575Y323610D02*
X427043D01*
X414957Y317390D02*
Y323610D01*
X427043Y317390D02*
Y323610D01*
X414957D02*
X419425D01*
X394890Y247957D02*
Y252425D01*
Y255575D02*
Y260043D01*
X401110Y247957D02*
Y252425D01*
X394890Y260043D02*
X401110D01*
X394890Y247957D02*
X401110D01*
Y255575D02*
Y260043D01*
X374610Y204075D02*
Y208543D01*
Y196457D02*
Y200925D01*
X368390Y204075D02*
Y208543D01*
Y196457D02*
X374610D01*
X368390Y208543D02*
X374610D01*
X368390Y196457D02*
Y200925D01*
X355075Y211890D02*
X359543D01*
X347457D02*
X351925D01*
X355075Y218110D02*
X359543D01*
X347457Y211890D02*
Y218110D01*
X359543Y211890D02*
Y218110D01*
X347457D02*
X351925D01*
X355075Y218890D02*
X359543D01*
X347457D02*
X351925D01*
X355075Y225110D02*
X359543D01*
X347457Y218890D02*
Y225110D01*
X359543Y218890D02*
Y225110D01*
X347457D02*
X351925D01*
X375390Y196457D02*
Y200925D01*
Y204075D02*
Y208543D01*
X381610Y196457D02*
Y200925D01*
X375390Y208543D02*
X381610D01*
X375390Y196457D02*
X381610D01*
Y204075D02*
Y208543D01*
X346110Y232575D02*
Y237043D01*
Y224957D02*
Y229425D01*
X339890Y232575D02*
Y237043D01*
Y224957D02*
X346110D01*
X339890Y237043D02*
X346110D01*
X339890Y224957D02*
Y229425D01*
X338488Y208012D02*
X359512D01*
X338488Y196988D02*
X359512D01*
X338488D02*
Y208012D01*
X359512Y196988D02*
Y208012D01*
X367032Y244925D02*
X380968D01*
X367032D02*
Y253075D01*
X380968Y244925D02*
Y253075D01*
X367032D02*
X380968D01*
X367032Y235925D02*
X380968D01*
X367032D02*
Y244075D01*
X380968Y235925D02*
Y244075D01*
X367032D02*
X380968D01*
X380043Y394638D02*
Y399362D01*
X376894Y394638D02*
Y399362D01*
X377957Y394638D02*
Y399362D01*
X376894Y394638D02*
X380043D01*
X376894Y399362D02*
X380043D01*
X380075Y309610D02*
X382968D01*
X374031Y309610D02*
X376925D01*
X374031Y303390D02*
X376925D01*
X384543Y304965D02*
Y308035D01*
X372457Y304965D02*
Y308035D01*
X380075Y303390D02*
X382968D01*
X380772Y310925D02*
X384394D01*
X373606D02*
X377228D01*
X373606Y319075D02*
X377228D01*
X372031Y312500D02*
Y317500D01*
X380772Y319075D02*
X384394D01*
X385968Y312500D02*
Y317500D01*
X371075Y360610D02*
X373969D01*
X365032Y360610D02*
X367925D01*
X365032Y354390D02*
X367925D01*
X375543Y355965D02*
Y359035D01*
X363457Y355965D02*
Y359035D01*
X371075Y354390D02*
X373969D01*
X371772Y361925D02*
X375394D01*
X364606D02*
X368228D01*
X364606Y370075D02*
X368228D01*
X363032Y363500D02*
Y368500D01*
X371772Y370075D02*
X375394D01*
X376969Y363500D02*
Y368500D01*
X352575Y308610D02*
X355469D01*
X346532Y308610D02*
X349425D01*
X346532Y302390D02*
X349425D01*
X357043Y303965D02*
Y307035D01*
X344957Y303965D02*
Y307035D01*
X352575Y302390D02*
X355469D01*
X353272Y309925D02*
X356894D01*
X346106D02*
X349728D01*
X346106Y318075D02*
X349728D01*
X344531Y311500D02*
Y316500D01*
X353272Y318075D02*
X356894D01*
X358469Y311500D02*
Y316500D01*
X343575Y361110D02*
X346468D01*
X337531Y361110D02*
X340425D01*
X337531Y354890D02*
X340425D01*
X348043Y356465D02*
Y359535D01*
X335957Y356465D02*
Y359535D01*
X343575Y354890D02*
X346468D01*
X344272Y363425D02*
X347894D01*
X337106D02*
X340728D01*
X337106Y371575D02*
X340728D01*
X335531Y365000D02*
Y370000D01*
X344272Y371575D02*
X347894D01*
X349468Y365000D02*
Y370000D01*
X352543Y408272D02*
Y411894D01*
Y401106D02*
Y404728D01*
X344394Y401106D02*
Y404728D01*
X345969Y399532D02*
X350969D01*
X344394Y408272D02*
Y411894D01*
X345969Y413469D02*
X350969D01*
X361043Y395110D02*
X363937D01*
X355000Y395110D02*
X357894D01*
X355000Y388890D02*
X357894D01*
X365512Y390465D02*
Y393535D01*
X353425Y390465D02*
Y393535D01*
X361043Y388890D02*
X363937D01*
X381240Y385425D02*
X384862D01*
X374075D02*
X377697D01*
X374075Y393575D02*
X377697D01*
X372500Y387000D02*
Y392000D01*
X381240Y393575D02*
X384862D01*
X386437Y387000D02*
Y392000D01*
X403532Y317390D02*
X406425D01*
X409575Y317390D02*
X412468D01*
X409575Y323610D02*
X412468D01*
X401957Y318965D02*
Y322035D01*
X414043Y318965D02*
Y322035D01*
X403532Y323610D02*
X406425D01*
X396575D02*
X399468D01*
X390531Y323610D02*
X393425D01*
X390531Y317390D02*
X393425D01*
X401043Y318965D02*
Y322035D01*
X388957Y318965D02*
Y322035D01*
X396575Y317390D02*
X399468D01*
X425390Y256075D02*
Y258968D01*
X425390Y250031D02*
Y252925D01*
X431610Y250031D02*
Y252925D01*
X426965Y260543D02*
X430035D01*
X426965Y248457D02*
X430035D01*
X431610Y256075D02*
Y258968D01*
X380575Y281842D02*
Y285465D01*
Y274677D02*
Y278299D01*
X372425Y274677D02*
Y278299D01*
X374000Y273102D02*
X379000D01*
X372425Y281842D02*
Y285465D01*
X374000Y287039D02*
X379000D01*
X389110Y198031D02*
Y200925D01*
X389110Y204075D02*
Y206968D01*
X382890Y204075D02*
Y206968D01*
X384465Y196457D02*
X387535D01*
X384465Y208543D02*
X387535D01*
X382890Y198031D02*
Y200925D01*
X369032Y253890D02*
X371925D01*
X375075Y253890D02*
X377969D01*
X375075Y260110D02*
X377969D01*
X367457Y255465D02*
Y258535D01*
X379543Y255465D02*
Y258535D01*
X369032Y260110D02*
X371925D01*
X372425Y290106D02*
Y293728D01*
Y297272D02*
Y300894D01*
X380575Y297272D02*
Y300894D01*
X374000Y302468D02*
X379000D01*
X380575Y290106D02*
Y293728D01*
X374000Y288531D02*
X379000D01*
X442075Y226772D02*
Y230394D01*
Y219606D02*
Y223228D01*
X433925Y219606D02*
Y223228D01*
X435500Y218032D02*
X440500D01*
X433925Y226772D02*
Y230394D01*
X435500Y231968D02*
X440500D01*
X433925Y234606D02*
Y238228D01*
Y241772D02*
Y245394D01*
X442075Y241772D02*
Y245394D01*
X435500Y246969D02*
X440500D01*
X442075Y234606D02*
Y238228D01*
X435500Y233032D02*
X440500D01*
X395606Y217075D02*
X399228D01*
X402772D02*
X406394D01*
X402772Y208925D02*
X406394D01*
X407969Y210500D02*
Y215500D01*
X395606Y208925D02*
X399228D01*
X394032Y210500D02*
Y215500D01*
X355075Y232110D02*
X357968D01*
X349031Y232110D02*
X351925D01*
X349031Y225890D02*
X351925D01*
X359543Y227465D02*
Y230535D01*
X347457Y227465D02*
Y230535D01*
X355075Y225890D02*
X357968D01*
X339890Y219575D02*
Y222468D01*
X339890Y213531D02*
Y216425D01*
X346110Y213531D02*
Y216425D01*
X341465Y224043D02*
X344535D01*
X341465Y211957D02*
X344535D01*
X346110Y219575D02*
Y222468D01*
X443390Y375532D02*
Y378425D01*
X444965Y386043D02*
X448035D01*
X444965Y373957D02*
X448035D01*
X443390Y381575D02*
Y384469D01*
X449610Y381575D02*
Y384469D01*
X449610Y375532D02*
Y378425D01*
X434890Y312531D02*
Y315425D01*
X436465Y323043D02*
X439535D01*
X436465Y310957D02*
X439535D01*
X434890Y318575D02*
Y321468D01*
X441110Y318575D02*
Y321468D01*
X441110Y312531D02*
Y315425D01*
X479390Y274031D02*
Y276925D01*
X480965Y284543D02*
X484035D01*
X480965Y272457D02*
X484035D01*
X479390Y280075D02*
Y282968D01*
X485610Y280075D02*
Y282968D01*
X485610Y274031D02*
Y276925D01*
X486390Y274031D02*
Y276925D01*
X487965Y284543D02*
X491035D01*
X487965Y272457D02*
X491035D01*
X486390Y280075D02*
Y282968D01*
X492610Y280075D02*
Y282968D01*
X492610Y274031D02*
Y276925D01*
X457390Y274031D02*
Y276925D01*
X458965Y284543D02*
X462035D01*
X458965Y272457D02*
X462035D01*
X457390Y280075D02*
Y282968D01*
X463610Y280075D02*
Y282968D01*
X463610Y274031D02*
Y276925D01*
X424925Y350862D02*
X428075D01*
X424925Y346138D02*
X428075D01*
X425988D02*
Y350862D01*
X424925Y346138D02*
Y350862D01*
X428075Y346138D02*
Y350862D01*
X416043Y337890D02*
X420512D01*
X409350D02*
X412894D01*
X416043Y344110D02*
X420512D01*
X408563Y338650D02*
Y343350D01*
X420512Y337890D02*
Y344110D01*
X409350D02*
X412894D01*
X408563Y343350D02*
X409350Y344110D01*
X408563Y338650D02*
X409350Y337890D01*
X416043Y330890D02*
X420512D01*
X409350D02*
X412894D01*
X416043Y337110D02*
X420512D01*
X408563Y331650D02*
Y336350D01*
X420512Y330890D02*
Y337110D01*
X409350D02*
X412894D01*
X408563Y336350D02*
X409350Y337110D01*
X408563Y331650D02*
X409350Y330890D01*
X486842Y446000D02*
X517158D01*
X486842Y414000D02*
X517158D01*
Y423953D02*
X521685D01*
Y431000D01*
X482315Y423953D02*
X486842D01*
X482315D02*
Y431000D01*
X486842Y421000D02*
X517158D01*
X503378Y427496D02*
X505378D01*
X508378Y432496D01*
Y446000D01*
X495622Y432496D02*
Y446000D01*
Y432496D02*
X498622Y427496D01*
X503378D01*
X517158Y414000D02*
Y423953D01*
X486842Y414000D02*
Y423953D01*
X433457Y356819D02*
Y359181D01*
X457390Y373957D02*
Y378425D01*
Y386043D02*
X463610D01*
X457390Y373957D02*
X463610D01*
X457390Y381575D02*
Y386043D01*
X463610Y373957D02*
Y378425D01*
Y381575D02*
Y386043D01*
X471390Y373957D02*
Y378425D01*
Y386043D02*
X477610D01*
X471390Y373957D02*
X477610D01*
X471390Y381575D02*
Y386043D01*
X477610Y373957D02*
Y378425D01*
Y381575D02*
Y386043D01*
X485390Y373957D02*
Y378425D01*
Y386043D02*
X491610D01*
X485390Y373957D02*
X491610D01*
X485390Y381575D02*
Y386043D01*
X491610Y373957D02*
Y378425D01*
Y381575D02*
Y386043D01*
X500890Y373957D02*
Y378425D01*
Y386043D02*
X507110D01*
X500890Y373957D02*
X507110D01*
X500890Y381575D02*
Y386043D01*
X507110Y373957D02*
Y378425D01*
Y381575D02*
Y386043D01*
X450390Y373957D02*
Y378425D01*
Y386043D02*
X456610D01*
X450390Y373957D02*
X456610D01*
X450390Y381575D02*
Y386043D01*
X456610Y373957D02*
Y378425D01*
Y381575D02*
Y386043D01*
X464390Y373957D02*
Y378425D01*
Y386043D02*
X470610D01*
X464390Y373957D02*
X470610D01*
X464390Y381575D02*
Y386043D01*
X470610Y373957D02*
Y378425D01*
Y381575D02*
Y386043D01*
X478390Y373957D02*
Y378425D01*
Y386043D02*
X484610D01*
X478390Y373957D02*
X484610D01*
X478390Y381575D02*
Y386043D01*
X484610Y373957D02*
Y378425D01*
Y381575D02*
Y386043D01*
X493890Y373957D02*
Y378425D01*
Y386043D02*
X500110D01*
X493890Y373957D02*
X500110D01*
X493890Y381575D02*
Y386043D01*
X500110Y373957D02*
Y378425D01*
Y381575D02*
Y386043D01*
X507890Y373957D02*
Y378425D01*
Y386043D02*
X514110D01*
X507890Y373957D02*
X514110D01*
X507890Y381575D02*
Y386043D01*
X514110Y373957D02*
Y378425D01*
Y381575D02*
Y386043D01*
X421110Y359575D02*
Y364043D01*
X414890Y351957D02*
X421110D01*
X414890Y364043D02*
X421110D01*
Y351957D02*
Y356425D01*
X414890Y359575D02*
Y364043D01*
Y351957D02*
Y356425D01*
X422390Y351957D02*
Y356425D01*
Y364043D02*
X428610D01*
X422390Y351957D02*
X428610D01*
X422390Y359575D02*
Y364043D01*
X428610Y351957D02*
Y356425D01*
Y359575D02*
Y364043D01*
X464890Y272457D02*
Y276925D01*
Y284543D02*
X471110D01*
X464890Y272457D02*
X471110D01*
X464890Y280075D02*
Y284543D01*
X471110Y272457D02*
Y276925D01*
Y280075D02*
Y284543D01*
X472390Y272457D02*
Y276925D01*
Y284543D02*
X478610D01*
X472390Y272457D02*
X478610D01*
X472390Y280075D02*
Y284543D01*
X478610Y272457D02*
Y276925D01*
Y280075D02*
Y284543D01*
X493390Y272457D02*
Y276925D01*
Y284543D02*
X499610D01*
X493390Y272457D02*
X499610D01*
X493390Y280075D02*
Y284543D01*
X499610Y272457D02*
Y276925D01*
Y280075D02*
Y284543D01*
X437543Y337890D02*
X442012D01*
X429925D02*
Y344110D01*
X442012Y337890D02*
Y344110D01*
X429925Y337890D02*
X434394D01*
X437543Y344110D02*
X442012D01*
X429925D02*
X434394D01*
X437543Y330890D02*
X442012D01*
X429925D02*
Y337110D01*
X442012Y330890D02*
Y337110D01*
X429925Y330890D02*
X434394D01*
X437543Y337110D02*
X442012D01*
X429925D02*
X434394D01*
X498520Y311980D02*
Y347020D01*
X463480Y311980D02*
Y347020D01*
X498520D01*
X463480Y311980D02*
X498520D01*
D56*
X475566Y213000D02*
D03*
D57*
X368760Y396110D02*
X368022Y396536D01*
Y395684D01*
X368760Y396110D01*
X354492Y194429D02*
X353754Y194855D01*
Y194003D01*
X354492Y194429D01*
D58*
X399839Y299528D02*
X399248Y300118D01*
X398657Y299528D01*
X399248Y298937D01*
X399839Y299528D01*
X391921Y221083D02*
X391331Y221673D01*
X390740Y221083D01*
X391331Y220492D01*
X391921Y221083D01*
X363673Y230327D02*
X363083Y230917D01*
X362492Y230327D01*
X363083Y229736D01*
X363673Y230327D01*
X462693Y306665D02*
X462102Y307256D01*
X461512Y306665D01*
X462102Y306075D01*
X462693Y306665D01*
X465024Y188531D02*
Y194000D01*
Y188531D02*
X500524D01*
X467835Y189689D02*
Y211311D01*
X489157Y210032D02*
X490626Y211500D01*
X475189D02*
X476657Y210032D01*
X497657Y188531D02*
X497713Y211311D01*
X497657Y188531D02*
X497713Y189689D01*
X500524Y188531D02*
Y194500D01*
X465024Y192500D02*
Y211500D01*
Y192500D02*
X467835Y189689D01*
X497713D01*
X500524Y192500D02*
Y211500D01*
X497713Y189689D02*
X500524Y192500D01*
X465024Y211500D02*
X475189D01*
X490626D02*
X500524D01*
D59*
X408894Y293917D02*
X408350Y294666D01*
X407469Y294380D01*
Y293455D01*
X408350Y293168D01*
X408894Y293917D01*
X395858Y229744D02*
X395314Y230493D01*
X394434Y230207D01*
Y229281D01*
X395314Y228995D01*
X395858Y229744D01*
X372532Y226193D02*
X371987Y226942D01*
X371107Y226656D01*
Y225730D01*
X371987Y225444D01*
X372532Y226193D01*
D60*
X519756Y212319D02*
X518968D01*
X519756D01*
Y334622D02*
X518968D01*
X519756D01*
Y265571D02*
X518968D01*
X519756D01*
D61*
X468402Y315721D02*
X467957Y316644D01*
X466958Y316872D01*
X466156Y316233D01*
Y315208D01*
X466958Y314569D01*
X467957Y314797D01*
X468402Y315721D01*
D62*
X407283Y341000D02*
D03*
Y334000D02*
D03*
M02*
