G04 Layer_Color=255*
%FSLAX25Y25*%
%MOIN*%
G70*
G01*
G75*
%ADD11R,0.03661X0.03858*%
%ADD12R,0.03858X0.03661*%
%ADD13R,0.01969X0.04921*%
%ADD14R,0.07874X0.09843*%
%ADD15R,0.04331X0.02362*%
%ADD16R,0.04921X0.02756*%
%ADD18C,0.11811*%
D11*
X265720Y241251D02*
D03*
X271783D02*
D03*
X271783Y234251D02*
D03*
X265720D02*
D03*
X271783Y226751D02*
D03*
X265720D02*
D03*
X307720Y207751D02*
D03*
X313783D02*
D03*
X307220Y200252D02*
D03*
X313283D02*
D03*
X297220Y242251D02*
D03*
X303283D02*
D03*
X316783Y235251D02*
D03*
X310720D02*
D03*
X316283Y227751D02*
D03*
X310220D02*
D03*
X333152Y241251D02*
D03*
X339215D02*
D03*
X339215Y234251D02*
D03*
X333152D02*
D03*
X339215Y226751D02*
D03*
X333152D02*
D03*
X375152Y207751D02*
D03*
X381215D02*
D03*
X374652Y200252D02*
D03*
X380715D02*
D03*
X364652Y242251D02*
D03*
X370715D02*
D03*
X384215Y235251D02*
D03*
X378152D02*
D03*
X383715Y227751D02*
D03*
X377652D02*
D03*
D12*
X296252Y227720D02*
D03*
Y233783D02*
D03*
X303252Y227720D02*
D03*
Y233783D02*
D03*
X363684Y227720D02*
D03*
Y233783D02*
D03*
X370684Y227720D02*
D03*
Y233783D02*
D03*
D13*
X276846Y218889D02*
D03*
X280783D02*
D03*
X284720D02*
D03*
X288657D02*
D03*
X344278D02*
D03*
X348215D02*
D03*
X352152D02*
D03*
X356089D02*
D03*
D14*
X268224Y208752D02*
D03*
X297279D02*
D03*
X335656D02*
D03*
X364711D02*
D03*
D15*
X288763Y226511D02*
D03*
Y230252D02*
D03*
Y233992D02*
D03*
X277740D02*
D03*
Y230252D02*
D03*
Y226511D02*
D03*
X356195D02*
D03*
Y230252D02*
D03*
Y233992D02*
D03*
X345172D02*
D03*
Y230252D02*
D03*
Y226511D02*
D03*
D16*
X306330Y221492D02*
D03*
Y214011D02*
D03*
X316173Y217752D02*
D03*
X373762Y221492D02*
D03*
Y214011D02*
D03*
X383605Y217752D02*
D03*
D18*
X312433Y344358D02*
D03*
X269126D02*
D03*
X379865D02*
D03*
X336558D02*
D03*
M02*
