G04 Layer_Color=16711935*
%FSLAX25Y25*%
%MOIN*%
G70*
G01*
G75*
%ADD35C,0.02362*%
%ADD36C,0.00500*%
D35*
X327500Y322500D02*
D03*
Y326437D02*
D03*
Y330374D02*
D03*
Y334311D02*
D03*
Y338248D02*
D03*
Y342185D02*
D03*
Y346122D02*
D03*
Y350059D02*
D03*
X321500Y322500D02*
D03*
Y326437D02*
D03*
Y330374D02*
D03*
Y334311D02*
D03*
Y338248D02*
D03*
Y342185D02*
D03*
Y346122D02*
D03*
Y350059D02*
D03*
X327500Y196000D02*
D03*
Y199937D02*
D03*
Y203874D02*
D03*
Y207811D02*
D03*
Y211748D02*
D03*
Y215685D02*
D03*
Y219622D02*
D03*
Y223559D02*
D03*
X321500Y196000D02*
D03*
Y199937D02*
D03*
Y203874D02*
D03*
Y207811D02*
D03*
Y211748D02*
D03*
Y215685D02*
D03*
Y219622D02*
D03*
Y223559D02*
D03*
D36*
X320500Y195000D02*
X328500D01*
X320500Y225000D02*
X328500D01*
X320500Y321000D02*
X328500D01*
X320500Y351500D02*
X328500D01*
X261251Y194752D02*
Y344251D01*
Y352214D02*
X320289D01*
X320307Y194752D02*
Y352232D01*
X261251Y194752D02*
X320307D01*
X261251Y343251D02*
Y352214D01*
X328684Y194752D02*
Y344251D01*
Y352214D02*
X387721D01*
X387739Y194752D02*
Y352232D01*
X328684Y194752D02*
X387739D01*
X328684Y343251D02*
Y352214D01*
M02*
