G04 Layer_Color=128*
%FSLAX25Y25*%
%MOIN*%
G70*
G01*
G75*
%ADD40C,0.00200*%
D40*
X308102Y344358D02*
X316763D01*
X312433Y340027D02*
Y348689D01*
X264795Y344358D02*
X273456D01*
X269126Y340027D02*
Y348689D01*
X278161Y230252D02*
X279342D01*
X278751Y229661D02*
Y230842D01*
X288173Y230252D02*
X289354D01*
X288763Y229661D02*
Y230842D01*
X295661Y227252D02*
X296842D01*
X296252Y226661D02*
Y227842D01*
X290189Y295752D02*
X291370D01*
X290779Y295161D02*
Y296342D01*
X265129Y226751D02*
X266311D01*
X265720Y226161D02*
Y227342D01*
X288066Y218889D02*
X289247D01*
X288657Y218299D02*
Y219480D01*
X301661Y226751D02*
X302842D01*
X302252Y226161D02*
Y227342D01*
X296630Y242251D02*
X297811D01*
X297220Y241661D02*
Y242842D01*
X284161Y218752D02*
X285342D01*
X284752Y218161D02*
Y219342D01*
X311661Y242251D02*
X312842D01*
X312251Y241661D02*
Y242842D01*
X284161Y211251D02*
X285342D01*
X284752Y210661D02*
Y211842D01*
X288661Y207751D02*
X289842D01*
X289251Y207161D02*
Y208342D01*
X265348Y246252D02*
X266529D01*
X265938Y245661D02*
Y246842D01*
X265129Y241251D02*
X266311D01*
X265720Y240661D02*
Y241842D01*
X271193Y241251D02*
X272374D01*
X271783Y240661D02*
Y241842D01*
X375534Y344358D02*
X384195D01*
X379865Y340027D02*
Y348689D01*
X332227Y344358D02*
X340888D01*
X336558Y340027D02*
Y348689D01*
X345593Y230252D02*
X346774D01*
X346184Y229661D02*
Y230842D01*
X355605Y230252D02*
X356786D01*
X356195Y229661D02*
Y230842D01*
X363093Y227252D02*
X364274D01*
X363684Y226661D02*
Y227842D01*
X357621Y295752D02*
X358802D01*
X358211Y295161D02*
Y296342D01*
X332562Y226751D02*
X333743D01*
X333152Y226161D02*
Y227342D01*
X355499Y218889D02*
X356680D01*
X356089Y218299D02*
Y219480D01*
X369093Y226751D02*
X370274D01*
X369684Y226161D02*
Y227342D01*
X364062Y242251D02*
X365243D01*
X364652Y241661D02*
Y242842D01*
X351593Y218752D02*
X352774D01*
X352184Y218161D02*
Y219342D01*
X379093Y242251D02*
X380274D01*
X379684Y241661D02*
Y242842D01*
X351593Y211251D02*
X352774D01*
X352184Y210661D02*
Y211842D01*
X356093Y207751D02*
X357274D01*
X356684Y207161D02*
Y208342D01*
X332780Y246252D02*
X333961D01*
X333371Y245661D02*
Y246842D01*
X332562Y241251D02*
X333743D01*
X333152Y240661D02*
Y241842D01*
X338625Y241251D02*
X339806D01*
X339215Y240661D02*
Y241842D01*
M02*
