G04 Layer_Color=8388736*
%FSLAX25Y25*%
%MOIN*%
G70*
G01*
G75*
%ADD26R,0.04461X0.04658*%
%ADD27R,0.04658X0.04461*%
%ADD28R,0.02769X0.05721*%
%ADD29R,0.08674X0.10642*%
%ADD30R,0.05131X0.03162*%
%ADD31R,0.05721X0.03556*%
%ADD32C,0.12611*%
%ADD33C,0.02769*%
D26*
X265720Y241251D02*
D03*
X271783D02*
D03*
X271783Y234251D02*
D03*
X265720D02*
D03*
X271783Y226751D02*
D03*
X265720D02*
D03*
X307720Y207751D02*
D03*
X313783D02*
D03*
X307220Y200252D02*
D03*
X313283D02*
D03*
X297220Y242251D02*
D03*
X303283D02*
D03*
X316783Y235251D02*
D03*
X310720D02*
D03*
X316283Y227751D02*
D03*
X310220D02*
D03*
X333152Y241251D02*
D03*
X339215D02*
D03*
X339215Y234251D02*
D03*
X333152D02*
D03*
X339215Y226751D02*
D03*
X333152D02*
D03*
X375152Y207751D02*
D03*
X381215D02*
D03*
X374652Y200252D02*
D03*
X380715D02*
D03*
X364652Y242251D02*
D03*
X370715D02*
D03*
X384215Y235251D02*
D03*
X378152D02*
D03*
X383715Y227751D02*
D03*
X377652D02*
D03*
D27*
X296252Y227720D02*
D03*
Y233783D02*
D03*
X303252Y227720D02*
D03*
Y233783D02*
D03*
X363684Y227720D02*
D03*
Y233783D02*
D03*
X370684Y227720D02*
D03*
Y233783D02*
D03*
D28*
X276846Y218889D02*
D03*
X280783D02*
D03*
X284720D02*
D03*
X288657D02*
D03*
X344278D02*
D03*
X348215D02*
D03*
X352152D02*
D03*
X356089D02*
D03*
D29*
X268224Y208752D02*
D03*
X297279D02*
D03*
X335656D02*
D03*
X364711D02*
D03*
D30*
X288763Y226511D02*
D03*
Y230252D02*
D03*
Y233992D02*
D03*
X277740D02*
D03*
Y230252D02*
D03*
Y226511D02*
D03*
X356195D02*
D03*
Y230252D02*
D03*
Y233992D02*
D03*
X345172D02*
D03*
Y230252D02*
D03*
Y226511D02*
D03*
D31*
X306330Y221492D02*
D03*
Y214011D02*
D03*
X316173Y217752D02*
D03*
X373762Y221492D02*
D03*
Y214011D02*
D03*
X383605Y217752D02*
D03*
D32*
X312433Y344358D02*
D03*
X269126D02*
D03*
X379865D02*
D03*
X336558D02*
D03*
D33*
X278751Y230252D02*
D03*
X288763D02*
D03*
X296252Y227252D02*
D03*
X290779Y295752D02*
D03*
X265720Y226751D02*
D03*
X288657Y218889D02*
D03*
X302252Y226751D02*
D03*
X297220Y242251D02*
D03*
X284752Y218752D02*
D03*
X312251Y242251D02*
D03*
X284752Y211251D02*
D03*
X289251Y207751D02*
D03*
X265938Y246252D02*
D03*
X265720Y241251D02*
D03*
X271783D02*
D03*
X346184Y230252D02*
D03*
X356195D02*
D03*
X363684Y227252D02*
D03*
X358211Y295752D02*
D03*
X333152Y226751D02*
D03*
X356089Y218889D02*
D03*
X369684Y226751D02*
D03*
X364652Y242251D02*
D03*
X352184Y218752D02*
D03*
X379684Y242251D02*
D03*
X352184Y211251D02*
D03*
X356684Y207751D02*
D03*
X333371Y246252D02*
D03*
X333152Y241251D02*
D03*
X339215D02*
D03*
M02*
