G04 Layer_Color=16711935*
%FSLAX25Y25*%
%MOIN*%
G70*
G01*
G75*
%ADD37C,0.00394*%
D37*
X286795Y224149D02*
Y236354D01*
X279708Y224149D02*
Y236354D01*
Y224149D02*
X286795D01*
X279708Y236354D02*
X286795D01*
X308692Y212003D02*
Y223499D01*
X313811Y212003D02*
Y223499D01*
X308692D02*
X313811D01*
X308692Y212003D02*
X313811D01*
X308692D02*
Y223499D01*
X313811Y212003D02*
Y223499D01*
X308692D02*
X313811D01*
X308692Y212003D02*
X313811D01*
X308692D02*
X313811D01*
X308692Y223499D02*
X313811D01*
Y212003D02*
Y223499D01*
X308692Y212003D02*
Y223499D01*
X312984Y237681D02*
X314165Y238862D01*
X313771Y237287D02*
X314952Y238468D01*
X312177Y235251D02*
X315326D01*
X312964Y233677D02*
Y236826D01*
Y235251D02*
X314539Y233677D01*
X312964Y235251D02*
X314539Y236826D01*
Y233677D02*
Y236826D01*
X305681Y231519D02*
X306862Y230338D01*
X305287Y230732D02*
X306468Y229551D01*
X303252Y229177D02*
Y232326D01*
X301677Y231539D02*
X304826D01*
X301677Y229964D02*
X303252Y231539D01*
X304826Y229964D01*
X301677D02*
X304826D01*
X354227Y224149D02*
Y236354D01*
X347140Y224149D02*
Y236354D01*
Y224149D02*
X354227D01*
X347140Y236354D02*
X354227D01*
X376125Y212003D02*
Y223499D01*
X381243Y212003D02*
Y223499D01*
X376125D02*
X381243D01*
X376125Y212003D02*
X381243D01*
X376125D02*
Y223499D01*
X381243Y212003D02*
Y223499D01*
X376125D02*
X381243D01*
X376125Y212003D02*
X381243D01*
X376125D02*
X381243D01*
X376125Y223499D02*
X381243D01*
Y212003D02*
Y223499D01*
X376125Y212003D02*
Y223499D01*
X380416Y237681D02*
X381597Y238862D01*
X381203Y237287D02*
X382384Y238468D01*
X379609Y235251D02*
X382758D01*
X380396Y233677D02*
Y236826D01*
Y235251D02*
X381971Y233677D01*
X380396Y235251D02*
X381971Y236826D01*
Y233677D02*
Y236826D01*
X373113Y231519D02*
X374294Y230338D01*
X372719Y230732D02*
X373900Y229551D01*
X370684Y229177D02*
Y232326D01*
X369109Y231539D02*
X372258D01*
X369109Y229964D02*
X370684Y231539D01*
X372258Y229964D01*
X369109D02*
X372258D01*
M02*
