M48
;Layer_Color=9474304
;FILE_FORMAT=2:5
INCH,LZ
;TYPE=PLATED
T1F00S00C0.01181
T2F00S00C0.08661
%
T01
X0333152Y0226751
X0333152Y0241251
X0333371Y0246252
X0339215Y0241251
X0346184Y0230252
X0356195
X0363684Y0227252
X0369684Y0226751
X0364652Y0242251
X0379684
X0356089Y0218889
X0352184Y0218752
Y0211251
X0356684Y0207751
X0358211Y0295752
X0290779
X029722Y0242251
X0312251
X0302252Y0226751
X0296252Y0227252
X0288763Y0230252
X0278751
X026572Y0226751
X026572Y0241251
X0265938Y0246252
X0271783Y0241251
X0284752Y0218752
X0288657Y0218889
X0284752Y0211251
X0289251Y0207751
T02
X0269126Y0344358
X0312433
X0336558
X0379865
M30
