M48
;Layer_Color=9474304
;FILE_FORMAT=2:5
INCH,LZ
;TYPE=PLATED
T1F00S00C0.01181
T2F00S00C0.02800
T3F00S00C0.02953
T5F00S00C0.12598
%
T01
X0205181Y0062
X0209118
X0213382
X0217319
X0221256
X0225193
X022913
X0233067
X0237004
X0240941
X0244878
X0248815
X0252752
X0256689
X0201244
X0197307
X019337
X0189433
X0185496
X0181559
X0177622
X0173685
X0169748
X0165811
X0161874
X0157937
X0154
X015
X0146063
X0142126
X0138189
X0134252
X0130315
X0126378
X0122441
X0118504
X0114567
X011063
X0106693
X0102756
X0098819
X0094882
X0090618
X0086681
X0082744
X0078807
X007487
X0070933
X0066996
X0063059
X0059122
X0055185
X0051248
X0047311
X0043374
X0039437
X00355
T02
X02135Y00105
X02285
X02435
X02585
X0266Y00255
X0281
Y00555
X0266
X02735Y00705
X02585Y00405
X02435
X0236Y00255
X02135Y00405
X01985
X0191Y00255
X01985Y00105
X01835
X01685
X01535
X01385
X01235
X01085
X00935
X00785
X00635
X00485
X0056Y00255
X00635Y00405
X00785
X01085
X01235
X01535
X01685
X0146Y00255
X0101
X0026
X00335Y00105
X00185Y00405
X0026Y00555
T03
X020975Y0069
Y008278
X02535
Y0069
X0166
Y008278
X012225
Y0069
X00785
Y008278
X00355Y008289
Y006911
T05
X0283465Y0011811
Y007874
X0011811
Y0011811
M30
