G04 Layer_Color=2752767*
%FSLAX25Y25*%
%MOIN*%
G70*
G01*
G75*
%ADD10C,0.01000*%
%ADD30C,0.00200*%
%ADD31C,0.00267*%
D10*
X301687Y1875D02*
X301500Y1687D01*
X301687Y1500D01*
X301875Y1687D01*
X301687Y1875D01*
X302737Y5436D02*
Y1500D01*
X304986D01*
X305417Y2999D02*
X307667D01*
Y3374D01*
X307479Y3749D01*
X307292Y3937D01*
X306917Y4124D01*
X306355D01*
X305980Y3937D01*
X305605Y3562D01*
X305417Y2999D01*
Y2625D01*
X305605Y2062D01*
X305980Y1687D01*
X306355Y1500D01*
X306917D01*
X307292Y1687D01*
X307667Y2062D01*
X308510Y4124D02*
Y1500D01*
Y3374D02*
X309072Y3937D01*
X309447Y4124D01*
X310010D01*
X310384Y3937D01*
X310572Y3374D01*
Y1500D01*
X313852Y4124D02*
Y1125D01*
X313665Y563D01*
X313477Y375D01*
X313102Y188D01*
X312540D01*
X312165Y375D01*
X313852Y3562D02*
X313477Y3937D01*
X313102Y4124D01*
X312540D01*
X312165Y3937D01*
X311790Y3562D01*
X311603Y2999D01*
Y2625D01*
X311790Y2062D01*
X312165Y1687D01*
X312540Y1500D01*
X313102D01*
X313477Y1687D01*
X313852Y2062D01*
X314902Y2999D02*
X317151D01*
Y3374D01*
X316964Y3749D01*
X316776Y3937D01*
X316401Y4124D01*
X315839D01*
X315464Y3937D01*
X315089Y3562D01*
X314902Y2999D01*
Y2625D01*
X315089Y2062D01*
X315464Y1687D01*
X315839Y1500D01*
X316401D01*
X316776Y1687D01*
X317151Y2062D01*
X317994Y4124D02*
Y1500D01*
Y3374D02*
X318557Y3937D01*
X318932Y4124D01*
X319494D01*
X319869Y3937D01*
X320056Y3374D01*
Y1500D01*
X323336Y5436D02*
Y1500D01*
Y3562D02*
X322961Y3937D01*
X322587Y4124D01*
X322024D01*
X321649Y3937D01*
X321274Y3562D01*
X321087Y2999D01*
Y2625D01*
X321274Y2062D01*
X321649Y1687D01*
X322024Y1500D01*
X322587D01*
X322961Y1687D01*
X323336Y2062D01*
D30*
X282665Y77940D02*
Y79540D01*
X284265D01*
Y77940D01*
X282665D01*
Y11011D02*
Y12611D01*
X284265D01*
Y11011D01*
X282665D01*
X11011D02*
Y12611D01*
X12611D01*
Y11011D01*
X11011D01*
Y77940D02*
Y79540D01*
X12611D01*
Y77940D01*
X11011D01*
X228254Y42979D02*
X227454Y44579D01*
X229054D01*
X228254Y42979D01*
X253500Y68200D02*
X253900Y68600D01*
X254300D01*
X253900Y69000D01*
X254300Y69400D01*
X253900D01*
X253500Y69800D01*
X253100Y69400D01*
X252700D01*
X253100Y69000D01*
X252700Y68600D01*
X253100D01*
X253500Y68200D01*
Y81980D02*
X253900Y82380D01*
X254300D01*
X253900Y82780D01*
X254300Y83179D01*
X253900D01*
X253500Y83579D01*
X253100Y83179D01*
X252700D01*
X253100Y82780D01*
X252700Y82380D01*
X253100D01*
X253500Y81980D01*
X209750Y68200D02*
X210150Y68600D01*
X210550D01*
X210150Y69000D01*
X210550Y69400D01*
X210150D01*
X209750Y69800D01*
X209350Y69400D01*
X208950D01*
X209350Y69000D01*
X208950Y68600D01*
X209350D01*
X209750Y68200D01*
Y81980D02*
X210150Y82380D01*
X210550D01*
X210150Y82780D01*
X210550Y83179D01*
X210150D01*
X209750Y83579D01*
X209350Y83179D01*
X208950D01*
X209350Y82780D01*
X208950Y82380D01*
X209350D01*
X209750Y81980D01*
X166000Y68200D02*
X166400Y68600D01*
X166800D01*
X166400Y69000D01*
X166800Y69400D01*
X166400D01*
X166000Y69800D01*
X165600Y69400D01*
X165200D01*
X165600Y69000D01*
X165200Y68600D01*
X165600D01*
X166000Y68200D01*
Y81980D02*
X166400Y82380D01*
X166800D01*
X166400Y82780D01*
X166800Y83179D01*
X166400D01*
X166000Y83579D01*
X165600Y83179D01*
X165200D01*
X165600Y82780D01*
X165200Y82380D01*
X165600D01*
X166000Y81980D01*
X122250Y68200D02*
X122650Y68600D01*
X123050D01*
X122650Y69000D01*
X123050Y69400D01*
X122650D01*
X122250Y69800D01*
X121850Y69400D01*
X121450D01*
X121850Y69000D01*
X121450Y68600D01*
X121850D01*
X122250Y68200D01*
Y81980D02*
X122650Y82380D01*
X123050D01*
X122650Y82780D01*
X123050Y83179D01*
X122650D01*
X122250Y83579D01*
X121850Y83179D01*
X121450D01*
X121850Y82780D01*
X121450Y82380D01*
X121850D01*
X122250Y81980D01*
X78500Y68200D02*
X78900Y68600D01*
X79300D01*
X78900Y69000D01*
X79300Y69400D01*
X78900D01*
X78500Y69800D01*
X78100Y69400D01*
X77700D01*
X78100Y69000D01*
X77700Y68600D01*
X78100D01*
X78500Y68200D01*
Y81980D02*
X78900Y82380D01*
X79300D01*
X78900Y82780D01*
X79300Y83179D01*
X78900D01*
X78500Y83579D01*
X78100Y83179D01*
X77700D01*
X78100Y82780D01*
X77700Y82380D01*
X78100D01*
X78500Y81980D01*
X35500Y68310D02*
X35900Y68710D01*
X36300D01*
X35900Y69110D01*
X36300Y69510D01*
X35900D01*
X35500Y69910D01*
X35100Y69510D01*
X34700D01*
X35100Y69110D01*
X34700Y68710D01*
X35100D01*
X35500Y68310D01*
Y82090D02*
X35900Y82490D01*
X36300D01*
X35900Y82890D01*
X36300Y83290D01*
X35900D01*
X35500Y83690D01*
X35100Y83290D01*
X34700D01*
X35100Y82890D01*
X34700Y82490D01*
X35100D01*
X35500Y82090D01*
X140754Y42979D02*
X139954Y44579D01*
X141554D01*
X140754Y42979D01*
X97004D02*
X96204Y44579D01*
X97804D01*
X97004Y42979D01*
X184504D02*
X183704Y44579D01*
X185304D01*
X184504Y42979D01*
X272004D02*
X271204Y44579D01*
X272804D01*
X272004Y42979D01*
X43870Y18696D02*
X43070Y20296D01*
X44670D01*
X43870Y18696D01*
X272700Y69700D02*
X273100Y70500D01*
X272700Y71300D01*
X273500Y70900D01*
X274300Y71300D01*
X273900Y70500D01*
X274300Y69700D01*
X273500Y70100D01*
X272700Y69700D01*
X280200Y54700D02*
X280600Y55500D01*
X280200Y56300D01*
X281000Y55900D01*
X281800Y56300D01*
X281400Y55500D01*
X281800Y54700D01*
X281000Y55100D01*
X280200Y54700D01*
Y24700D02*
X280600Y25500D01*
X280200Y26300D01*
X281000Y25900D01*
X281800Y26300D01*
X281400Y25500D01*
X281800Y24700D01*
X281000Y25100D01*
X280200Y24700D01*
X265200Y54700D02*
X265600Y55500D01*
X265200Y56300D01*
X266000Y55900D01*
X266800Y56300D01*
X266400Y55500D01*
X266800Y54700D01*
X266000Y55100D01*
X265200Y54700D01*
X257700Y39700D02*
X258100Y40500D01*
X257700Y41300D01*
X258500Y40900D01*
X259300Y41300D01*
X258900Y40500D01*
X259300Y39700D01*
X258500Y40100D01*
X257700Y39700D01*
X265200Y24700D02*
X265600Y25500D01*
X265200Y26300D01*
X266000Y25900D01*
X266800Y26300D01*
X266400Y25500D01*
X266800Y24700D01*
X266000Y25100D01*
X265200Y24700D01*
X257700Y9700D02*
X258100Y10500D01*
X257700Y11300D01*
X258500Y10900D01*
X259300Y11300D01*
X258900Y10500D01*
X259300Y9700D01*
X258500Y10100D01*
X257700Y9700D01*
X242700Y39700D02*
X243100Y40500D01*
X242700Y41300D01*
X243500Y40900D01*
X244300Y41300D01*
X243900Y40500D01*
X244300Y39700D01*
X243500Y40100D01*
X242700Y39700D01*
Y9700D02*
X243100Y10500D01*
X242700Y11300D01*
X243500Y10900D01*
X244300Y11300D01*
X243900Y10500D01*
X244300Y9700D01*
X243500Y10100D01*
X242700Y9700D01*
X235200Y24700D02*
X235600Y25500D01*
X235200Y26300D01*
X236000Y25900D01*
X236800Y26300D01*
X236400Y25500D01*
X236800Y24700D01*
X236000Y25100D01*
X235200Y24700D01*
X227700Y9700D02*
X228100Y10500D01*
X227700Y11300D01*
X228500Y10900D01*
X229300Y11300D01*
X228900Y10500D01*
X229300Y9700D01*
X228500Y10100D01*
X227700Y9700D01*
X212700Y39700D02*
X213100Y40500D01*
X212700Y41300D01*
X213500Y40900D01*
X214300Y41300D01*
X213900Y40500D01*
X214300Y39700D01*
X213500Y40100D01*
X212700Y39700D01*
Y9700D02*
X213100Y10500D01*
X212700Y11300D01*
X213500Y10900D01*
X214300Y11300D01*
X213900Y10500D01*
X214300Y9700D01*
X213500Y10100D01*
X212700Y9700D01*
X197700Y39700D02*
X198100Y40500D01*
X197700Y41300D01*
X198500Y40900D01*
X199300Y41300D01*
X198900Y40500D01*
X199300Y39700D01*
X198500Y40100D01*
X197700Y39700D01*
Y9700D02*
X198100Y10500D01*
X197700Y11300D01*
X198500Y10900D01*
X199300Y11300D01*
X198900Y10500D01*
X199300Y9700D01*
X198500Y10100D01*
X197700Y9700D01*
X190200Y24700D02*
X190600Y25500D01*
X190200Y26300D01*
X191000Y25900D01*
X191800Y26300D01*
X191400Y25500D01*
X191800Y24700D01*
X191000Y25100D01*
X190200Y24700D01*
X182700Y9700D02*
X183100Y10500D01*
X182700Y11300D01*
X183500Y10900D01*
X184300Y11300D01*
X183900Y10500D01*
X184300Y9700D01*
X183500Y10100D01*
X182700Y9700D01*
X167700Y39700D02*
X168100Y40500D01*
X167700Y41300D01*
X168500Y40900D01*
X169300Y41300D01*
X168900Y40500D01*
X169300Y39700D01*
X168500Y40100D01*
X167700Y39700D01*
Y9700D02*
X168100Y10500D01*
X167700Y11300D01*
X168500Y10900D01*
X169300Y11300D01*
X168900Y10500D01*
X169300Y9700D01*
X168500Y10100D01*
X167700Y9700D01*
X152700Y39700D02*
X153100Y40500D01*
X152700Y41300D01*
X153500Y40900D01*
X154300Y41300D01*
X153900Y40500D01*
X154300Y39700D01*
X153500Y40100D01*
X152700Y39700D01*
Y9700D02*
X153100Y10500D01*
X152700Y11300D01*
X153500Y10900D01*
X154300Y11300D01*
X153900Y10500D01*
X154300Y9700D01*
X153500Y10100D01*
X152700Y9700D01*
X145200Y24700D02*
X145600Y25500D01*
X145200Y26300D01*
X146000Y25900D01*
X146800Y26300D01*
X146400Y25500D01*
X146800Y24700D01*
X146000Y25100D01*
X145200Y24700D01*
X137700Y9700D02*
X138100Y10500D01*
X137700Y11300D01*
X138500Y10900D01*
X139300Y11300D01*
X138900Y10500D01*
X139300Y9700D01*
X138500Y10100D01*
X137700Y9700D01*
X122700Y39700D02*
X123100Y40500D01*
X122700Y41300D01*
X123500Y40900D01*
X124300Y41300D01*
X123900Y40500D01*
X124300Y39700D01*
X123500Y40100D01*
X122700Y39700D01*
Y9700D02*
X123100Y10500D01*
X122700Y11300D01*
X123500Y10900D01*
X124300Y11300D01*
X123900Y10500D01*
X124300Y9700D01*
X123500Y10100D01*
X122700Y9700D01*
X107700Y39700D02*
X108100Y40500D01*
X107700Y41300D01*
X108500Y40900D01*
X109300Y41300D01*
X108900Y40500D01*
X109300Y39700D01*
X108500Y40100D01*
X107700Y39700D01*
Y9700D02*
X108100Y10500D01*
X107700Y11300D01*
X108500Y10900D01*
X109300Y11300D01*
X108900Y10500D01*
X109300Y9700D01*
X108500Y10100D01*
X107700Y9700D01*
X100200Y24700D02*
X100600Y25500D01*
X100200Y26300D01*
X101000Y25900D01*
X101800Y26300D01*
X101400Y25500D01*
X101800Y24700D01*
X101000Y25100D01*
X100200Y24700D01*
X92700Y9700D02*
X93100Y10500D01*
X92700Y11300D01*
X93500Y10900D01*
X94300Y11300D01*
X93900Y10500D01*
X94300Y9700D01*
X93500Y10100D01*
X92700Y9700D01*
X77700Y39700D02*
X78100Y40500D01*
X77700Y41300D01*
X78500Y40900D01*
X79300Y41300D01*
X78900Y40500D01*
X79300Y39700D01*
X78500Y40100D01*
X77700Y39700D01*
Y9700D02*
X78100Y10500D01*
X77700Y11300D01*
X78500Y10900D01*
X79300Y11300D01*
X78900Y10500D01*
X79300Y9700D01*
X78500Y10100D01*
X77700Y9700D01*
X62700Y39700D02*
X63100Y40500D01*
X62700Y41300D01*
X63500Y40900D01*
X64300Y41300D01*
X63900Y40500D01*
X64300Y39700D01*
X63500Y40100D01*
X62700Y39700D01*
Y9700D02*
X63100Y10500D01*
X62700Y11300D01*
X63500Y10900D01*
X64300Y11300D01*
X63900Y10500D01*
X64300Y9700D01*
X63500Y10100D01*
X62700Y9700D01*
X55200Y24700D02*
X55600Y25500D01*
X55200Y26300D01*
X56000Y25900D01*
X56800Y26300D01*
X56400Y25500D01*
X56800Y24700D01*
X56000Y25100D01*
X55200Y24700D01*
X47700Y9700D02*
X48100Y10500D01*
X47700Y11300D01*
X48500Y10900D01*
X49300Y11300D01*
X48900Y10500D01*
X49300Y9700D01*
X48500Y10100D01*
X47700Y9700D01*
X32700D02*
X33100Y10500D01*
X32700Y11300D01*
X33500Y10900D01*
X34300Y11300D01*
X33900Y10500D01*
X34300Y9700D01*
X33500Y10100D01*
X32700Y9700D01*
X25200Y54700D02*
X25600Y55500D01*
X25200Y56300D01*
X26000Y55900D01*
X26800Y56300D01*
X26400Y55500D01*
X26800Y54700D01*
X26000Y55100D01*
X25200Y54700D01*
X17700Y39700D02*
X18100Y40500D01*
X17700Y41300D01*
X18500Y40900D01*
X19300Y41300D01*
X18900Y40500D01*
X19300Y39700D01*
X18500Y40100D01*
X17700Y39700D01*
X25200Y24700D02*
X25600Y25500D01*
X25200Y26300D01*
X26000Y25900D01*
X26800Y26300D01*
X26400Y25500D01*
X26800Y24700D01*
X26000Y25100D01*
X25200Y24700D01*
X153600Y61600D02*
Y61200D01*
X154400D01*
Y61600D01*
X154800D01*
Y62400D01*
X154400D01*
Y62800D01*
X153600D01*
Y62400D01*
X153200D01*
Y61600D01*
X153600D01*
X157537D02*
Y61200D01*
X158337D01*
Y61600D01*
X158737D01*
Y62400D01*
X158337D01*
Y62800D01*
X157537D01*
Y62400D01*
X157137D01*
Y61600D01*
X157537D01*
X161474D02*
Y61200D01*
X162274D01*
Y61600D01*
X162674D01*
Y62400D01*
X162274D01*
Y62800D01*
X161474D01*
Y62400D01*
X161074D01*
Y61600D01*
X161474D01*
X165411D02*
Y61200D01*
X166211D01*
Y61600D01*
X166611D01*
Y62400D01*
X166211D01*
Y62800D01*
X165411D01*
Y62400D01*
X165011D01*
Y61600D01*
X165411D01*
X169348D02*
Y61200D01*
X170148D01*
Y61600D01*
X170548D01*
Y62400D01*
X170148D01*
Y62800D01*
X169348D01*
Y62400D01*
X168948D01*
Y61600D01*
X169348D01*
X173285D02*
Y61200D01*
X174085D01*
Y61600D01*
X174485D01*
Y62400D01*
X174085D01*
Y62800D01*
X173285D01*
Y62400D01*
X172885D01*
Y61600D01*
X173285D01*
X177222D02*
Y61200D01*
X178022D01*
Y61600D01*
X178422D01*
Y62400D01*
X178022D01*
Y62800D01*
X177222D01*
Y62400D01*
X176822D01*
Y61600D01*
X177222D01*
X181159D02*
Y61200D01*
X181959D01*
Y61600D01*
X182359D01*
Y62400D01*
X181959D01*
Y62800D01*
X181159D01*
Y62400D01*
X180759D01*
Y61600D01*
X181159D01*
X185096D02*
Y61200D01*
X185896D01*
Y61600D01*
X186296D01*
Y62400D01*
X185896D01*
Y62800D01*
X185096D01*
Y62400D01*
X184696D01*
Y61600D01*
X185096D01*
X189033D02*
Y61200D01*
X189833D01*
Y61600D01*
X190233D01*
Y62400D01*
X189833D01*
Y62800D01*
X189033D01*
Y62400D01*
X188633D01*
Y61600D01*
X189033D01*
X192970D02*
Y61200D01*
X193770D01*
Y61600D01*
X194170D01*
Y62400D01*
X193770D01*
Y62800D01*
X192970D01*
Y62400D01*
X192570D01*
Y61600D01*
X192970D01*
X196907D02*
Y61200D01*
X197707D01*
Y61600D01*
X198107D01*
Y62400D01*
X197707D01*
Y62800D01*
X196907D01*
Y62400D01*
X196507D01*
Y61600D01*
X196907D01*
X200844D02*
Y61200D01*
X201644D01*
Y61600D01*
X202044D01*
Y62400D01*
X201644D01*
Y62800D01*
X200844D01*
Y62400D01*
X200444D01*
Y61600D01*
X200844D01*
X204781D02*
Y61200D01*
X205581D01*
Y61600D01*
X205981D01*
Y62400D01*
X205581D01*
Y62800D01*
X204781D01*
Y62400D01*
X204381D01*
Y61600D01*
X204781D01*
X208718D02*
Y61200D01*
X209518D01*
Y61600D01*
X209918D01*
Y62400D01*
X209518D01*
Y62800D01*
X208718D01*
Y62400D01*
X208318D01*
Y61600D01*
X208718D01*
X256289D02*
Y61200D01*
X257089D01*
Y61600D01*
X257489D01*
Y62400D01*
X257089D01*
Y62800D01*
X256289D01*
Y62400D01*
X255889D01*
Y61600D01*
X256289D01*
X252352D02*
Y61200D01*
X253152D01*
Y61600D01*
X253552D01*
Y62400D01*
X253152D01*
Y62800D01*
X252352D01*
Y62400D01*
X251952D01*
Y61600D01*
X252352D01*
X248415D02*
Y61200D01*
X249215D01*
Y61600D01*
X249615D01*
Y62400D01*
X249215D01*
Y62800D01*
X248415D01*
Y62400D01*
X248015D01*
Y61600D01*
X248415D01*
X244478D02*
Y61200D01*
X245278D01*
Y61600D01*
X245678D01*
Y62400D01*
X245278D01*
Y62800D01*
X244478D01*
Y62400D01*
X244078D01*
Y61600D01*
X244478D01*
X240541D02*
Y61200D01*
X241341D01*
Y61600D01*
X241741D01*
Y62400D01*
X241341D01*
Y62800D01*
X240541D01*
Y62400D01*
X240141D01*
Y61600D01*
X240541D01*
X236604D02*
Y61200D01*
X237404D01*
Y61600D01*
X237804D01*
Y62400D01*
X237404D01*
Y62800D01*
X236604D01*
Y62400D01*
X236204D01*
Y61600D01*
X236604D01*
X232667D02*
Y61200D01*
X233467D01*
Y61600D01*
X233867D01*
Y62400D01*
X233467D01*
Y62800D01*
X232667D01*
Y62400D01*
X232267D01*
Y61600D01*
X232667D01*
X228730D02*
Y61200D01*
X229530D01*
Y61600D01*
X229930D01*
Y62400D01*
X229530D01*
Y62800D01*
X228730D01*
Y62400D01*
X228330D01*
Y61600D01*
X228730D01*
X224793D02*
Y61200D01*
X225593D01*
Y61600D01*
X225993D01*
Y62400D01*
X225593D01*
Y62800D01*
X224793D01*
Y62400D01*
X224393D01*
Y61600D01*
X224793D01*
X220856D02*
Y61200D01*
X221656D01*
Y61600D01*
X222056D01*
Y62400D01*
X221656D01*
Y62800D01*
X220856D01*
Y62400D01*
X220456D01*
Y61600D01*
X220856D01*
X216919D02*
Y61200D01*
X217719D01*
Y61600D01*
X218119D01*
Y62400D01*
X217719D01*
Y62800D01*
X216919D01*
Y62400D01*
X216519D01*
Y61600D01*
X216919D01*
X212982D02*
Y61200D01*
X213782D01*
Y61600D01*
X214182D01*
Y62400D01*
X213782D01*
Y62800D01*
X212982D01*
Y62400D01*
X212582D01*
Y61600D01*
X212982D01*
X94482D02*
Y61200D01*
X95282D01*
Y61600D01*
X95682D01*
Y62400D01*
X95282D01*
Y62800D01*
X94482D01*
Y62400D01*
X94082D01*
Y61600D01*
X94482D01*
X98419D02*
Y61200D01*
X99219D01*
Y61600D01*
X99619D01*
Y62400D01*
X99219D01*
Y62800D01*
X98419D01*
Y62400D01*
X98019D01*
Y61600D01*
X98419D01*
X102356D02*
Y61200D01*
X103156D01*
Y61600D01*
X103556D01*
Y62400D01*
X103156D01*
Y62800D01*
X102356D01*
Y62400D01*
X101956D01*
Y61600D01*
X102356D01*
X106293D02*
Y61200D01*
X107093D01*
Y61600D01*
X107493D01*
Y62400D01*
X107093D01*
Y62800D01*
X106293D01*
Y62400D01*
X105893D01*
Y61600D01*
X106293D01*
X110230D02*
Y61200D01*
X111030D01*
Y61600D01*
X111430D01*
Y62400D01*
X111030D01*
Y62800D01*
X110230D01*
Y62400D01*
X109830D01*
Y61600D01*
X110230D01*
X114167D02*
Y61200D01*
X114967D01*
Y61600D01*
X115367D01*
Y62400D01*
X114967D01*
Y62800D01*
X114167D01*
Y62400D01*
X113767D01*
Y61600D01*
X114167D01*
X118104D02*
Y61200D01*
X118904D01*
Y61600D01*
X119304D01*
Y62400D01*
X118904D01*
Y62800D01*
X118104D01*
Y62400D01*
X117704D01*
Y61600D01*
X118104D01*
X122041D02*
Y61200D01*
X122841D01*
Y61600D01*
X123241D01*
Y62400D01*
X122841D01*
Y62800D01*
X122041D01*
Y62400D01*
X121641D01*
Y61600D01*
X122041D01*
X125978D02*
Y61200D01*
X126778D01*
Y61600D01*
X127178D01*
Y62400D01*
X126778D01*
Y62800D01*
X125978D01*
Y62400D01*
X125578D01*
Y61600D01*
X125978D01*
X129915D02*
Y61200D01*
X130715D01*
Y61600D01*
X131115D01*
Y62400D01*
X130715D01*
Y62800D01*
X129915D01*
Y62400D01*
X129515D01*
Y61600D01*
X129915D01*
X133852D02*
Y61200D01*
X134652D01*
Y61600D01*
X135052D01*
Y62400D01*
X134652D01*
Y62800D01*
X133852D01*
Y62400D01*
X133452D01*
Y61600D01*
X133852D01*
X137789D02*
Y61200D01*
X138589D01*
Y61600D01*
X138989D01*
Y62400D01*
X138589D01*
Y62800D01*
X137789D01*
Y62400D01*
X137389D01*
Y61600D01*
X137789D01*
X141726D02*
Y61200D01*
X142526D01*
Y61600D01*
X142926D01*
Y62400D01*
X142526D01*
Y62800D01*
X141726D01*
Y62400D01*
X141326D01*
Y61600D01*
X141726D01*
X145663D02*
Y61200D01*
X146463D01*
Y61600D01*
X146863D01*
Y62400D01*
X146463D01*
Y62800D01*
X145663D01*
Y62400D01*
X145263D01*
Y61600D01*
X145663D01*
X149600D02*
Y61200D01*
X150400D01*
Y61600D01*
X150800D01*
Y62400D01*
X150400D01*
Y62800D01*
X149600D01*
Y62400D01*
X149200D01*
Y61600D01*
X149600D01*
X90218D02*
Y61200D01*
X91018D01*
Y61600D01*
X91418D01*
Y62400D01*
X91018D01*
Y62800D01*
X90218D01*
Y62400D01*
X89818D01*
Y61600D01*
X90218D01*
X86281D02*
Y61200D01*
X87081D01*
Y61600D01*
X87481D01*
Y62400D01*
X87081D01*
Y62800D01*
X86281D01*
Y62400D01*
X85881D01*
Y61600D01*
X86281D01*
X82344D02*
Y61200D01*
X83144D01*
Y61600D01*
X83544D01*
Y62400D01*
X83144D01*
Y62800D01*
X82344D01*
Y62400D01*
X81944D01*
Y61600D01*
X82344D01*
X78407D02*
Y61200D01*
X79207D01*
Y61600D01*
X79607D01*
Y62400D01*
X79207D01*
Y62800D01*
X78407D01*
Y62400D01*
X78007D01*
Y61600D01*
X78407D01*
X74470D02*
Y61200D01*
X75270D01*
Y61600D01*
X75670D01*
Y62400D01*
X75270D01*
Y62800D01*
X74470D01*
Y62400D01*
X74070D01*
Y61600D01*
X74470D01*
X70533D02*
Y61200D01*
X71333D01*
Y61600D01*
X71733D01*
Y62400D01*
X71333D01*
Y62800D01*
X70533D01*
Y62400D01*
X70133D01*
Y61600D01*
X70533D01*
X66596D02*
Y61200D01*
X67396D01*
Y61600D01*
X67796D01*
Y62400D01*
X67396D01*
Y62800D01*
X66596D01*
Y62400D01*
X66196D01*
Y61600D01*
X66596D01*
X62659D02*
Y61200D01*
X63459D01*
Y61600D01*
X63859D01*
Y62400D01*
X63459D01*
Y62800D01*
X62659D01*
Y62400D01*
X62259D01*
Y61600D01*
X62659D01*
X58722D02*
Y61200D01*
X59522D01*
Y61600D01*
X59922D01*
Y62400D01*
X59522D01*
Y62800D01*
X58722D01*
Y62400D01*
X58322D01*
Y61600D01*
X58722D01*
X54785D02*
Y61200D01*
X55585D01*
Y61600D01*
X55985D01*
Y62400D01*
X55585D01*
Y62800D01*
X54785D01*
Y62400D01*
X54385D01*
Y61600D01*
X54785D01*
X50848D02*
Y61200D01*
X51648D01*
Y61600D01*
X52048D01*
Y62400D01*
X51648D01*
Y62800D01*
X50848D01*
Y62400D01*
X50448D01*
Y61600D01*
X50848D01*
X46911D02*
Y61200D01*
X47711D01*
Y61600D01*
X48111D01*
Y62400D01*
X47711D01*
Y62800D01*
X46911D01*
Y62400D01*
X46511D01*
Y61600D01*
X46911D01*
X42974D02*
Y61200D01*
X43774D01*
Y61600D01*
X44174D01*
Y62400D01*
X43774D01*
Y62800D01*
X42974D01*
Y62400D01*
X42574D01*
Y61600D01*
X42974D01*
X39037D02*
Y61200D01*
X39837D01*
Y61600D01*
X40237D01*
Y62400D01*
X39837D01*
Y62800D01*
X39037D01*
Y62400D01*
X38637D01*
Y61600D01*
X39037D01*
X35100D02*
Y61200D01*
X35900D01*
Y61600D01*
X36300D01*
Y62400D01*
X35900D01*
Y62800D01*
X35100D01*
Y62400D01*
X34700D01*
Y61600D01*
X35100D01*
D31*
X210550Y54409D02*
X209997Y55170D01*
X209103Y54880D01*
Y53939D01*
X209997Y53649D01*
X210550Y54409D01*
Y30000D02*
X209997Y30761D01*
X209103Y30470D01*
Y29530D01*
X209997Y29239D01*
X210550Y30000D01*
X123050Y54409D02*
X122497Y55170D01*
X121603Y54880D01*
Y53939D01*
X122497Y53649D01*
X123050Y54409D01*
Y30000D02*
X122497Y30761D01*
X121603Y30470D01*
Y29530D01*
X122497Y29239D01*
X123050Y30000D01*
X79300Y54409D02*
X78747Y55170D01*
X77853Y54880D01*
Y53939D01*
X78747Y53649D01*
X79300Y54409D01*
Y30000D02*
X78747Y30761D01*
X77853Y30470D01*
Y29530D01*
X78747Y29239D01*
X79300Y30000D01*
X166800Y54409D02*
X166247Y55170D01*
X165353Y54880D01*
Y53939D01*
X166247Y53649D01*
X166800Y54409D01*
Y30000D02*
X166247Y30761D01*
X165353Y30470D01*
Y29530D01*
X166247Y29239D01*
X166800Y30000D01*
X254300Y54409D02*
X253747Y55170D01*
X252853Y54880D01*
Y53939D01*
X253747Y53649D01*
X254300Y54409D01*
Y30000D02*
X253747Y30761D01*
X252853Y30470D01*
Y29530D01*
X253747Y29239D01*
X254300Y30000D01*
X55300Y38000D02*
X54747Y38761D01*
X53853Y38470D01*
Y37530D01*
X54747Y37239D01*
X55300Y38000D01*
X30891D02*
X30338Y38761D01*
X29443Y38470D01*
Y37530D01*
X30338Y37239D01*
X30891Y38000D01*
M02*
