G04 Layer_Color=65535*
%FSLAX25Y25*%
%MOIN*%
G70*
G01*
G75*
%ADD10C,0.01000*%
%ADD21C,0.00787*%
D10*
X269248Y75890D02*
X269216Y76889D01*
X269121Y77883D01*
X268963Y78870D01*
X268743Y79845D01*
X268462Y80804D01*
X268120Y81743D01*
X267719Y82658D01*
X267261Y83546D01*
X266748Y84404D01*
X266181Y85227D01*
X265564Y86012D01*
X264897Y86757D01*
X264185Y87458D01*
X263430Y88112D01*
X262635Y88718D01*
X261803Y89271D01*
X260937Y89771D01*
X260042Y90215D01*
X259120Y90601D01*
X258176Y90928D01*
X257213Y91194D01*
X256235Y91399D01*
X255245Y91541D01*
X254249Y91620D01*
X253250Y91636D01*
X252252Y91588D01*
X251259Y91478D01*
X250275Y91304D01*
X249304Y91068D01*
X248349Y90772D01*
X247416Y90415D01*
X246507Y90000D01*
X245626Y89528D01*
X244777Y89001D01*
X243963Y88421D01*
X243187Y87791D01*
X242453Y87113D01*
X241764Y86390D01*
X241121Y85625D01*
X240529Y84820D01*
X239988Y83979D01*
X239503Y83106D01*
X239073Y82204D01*
X238702Y81276D01*
X238390Y80326D01*
X238139Y79359D01*
X237950Y78378D01*
X237823Y77387D01*
X237760Y76389D01*
Y75390D01*
X237823Y74393D01*
X237950Y73401D01*
X238139Y72420D01*
X238390Y71453D01*
X238702Y70504D01*
X239073Y69576D01*
X239503Y68674D01*
X239988Y67800D01*
X240529Y66960D01*
X241121Y66155D01*
X241764Y65389D01*
X242453Y64666D01*
X243187Y63988D01*
X243963Y63358D01*
X244777Y62778D01*
X245626Y62252D01*
X246507Y61780D01*
X247416Y61365D01*
X248349Y61008D01*
X249304Y60711D01*
X250275Y60475D01*
X251259Y60302D01*
X252252Y60191D01*
X253250Y60144D01*
X254249Y60160D01*
X255245Y60239D01*
X256235Y60381D01*
X257213Y60586D01*
X258176Y60852D01*
X259120Y61179D01*
X260042Y61565D01*
X260937Y62009D01*
X261803Y62508D01*
X262635Y63062D01*
X263430Y63667D01*
X264185Y64321D01*
X264897Y65022D01*
X265564Y65767D01*
X266181Y66553D01*
X266748Y67376D01*
X267261Y68233D01*
X267719Y69121D01*
X268120Y70037D01*
X268462Y70976D01*
X268743Y71935D01*
X268963Y72909D01*
X269121Y73896D01*
X269216Y74891D01*
X269248Y75890D01*
X225498Y75890D02*
X225466Y76889D01*
X225371Y77883D01*
X225213Y78870D01*
X224993Y79845D01*
X224712Y80804D01*
X224370Y81743D01*
X223969Y82658D01*
X223511Y83546D01*
X222998Y84404D01*
X222431Y85227D01*
X221814Y86012D01*
X221147Y86757D01*
X220435Y87458D01*
X219680Y88112D01*
X218885Y88718D01*
X218053Y89271D01*
X217187Y89771D01*
X216292Y90215D01*
X215370Y90601D01*
X214426Y90928D01*
X213463Y91194D01*
X212485Y91399D01*
X211495Y91541D01*
X210499Y91620D01*
X209500Y91636D01*
X208502Y91588D01*
X207509Y91478D01*
X206525Y91304D01*
X205554Y91068D01*
X204599Y90772D01*
X203666Y90415D01*
X202757Y90000D01*
X201876Y89528D01*
X201027Y89001D01*
X200213Y88421D01*
X199437Y87791D01*
X198703Y87113D01*
X198014Y86390D01*
X197371Y85625D01*
X196779Y84820D01*
X196239Y83979D01*
X195753Y83106D01*
X195323Y82204D01*
X194952Y81276D01*
X194640Y80326D01*
X194389Y79359D01*
X194200Y78378D01*
X194073Y77387D01*
X194010Y76389D01*
Y75390D01*
X194073Y74393D01*
X194200Y73401D01*
X194389Y72420D01*
X194640Y71453D01*
X194952Y70504D01*
X195323Y69576D01*
X195753Y68674D01*
X196239Y67800D01*
X196779Y66960D01*
X197371Y66155D01*
X198014Y65389D01*
X198703Y64666D01*
X199437Y63988D01*
X200213Y63358D01*
X201027Y62778D01*
X201876Y62252D01*
X202757Y61780D01*
X203666Y61365D01*
X204599Y61008D01*
X205554Y60711D01*
X206525Y60475D01*
X207509Y60302D01*
X208502Y60191D01*
X209500Y60144D01*
X210499Y60160D01*
X211495Y60239D01*
X212485Y60381D01*
X213463Y60586D01*
X214426Y60852D01*
X215370Y61179D01*
X216292Y61565D01*
X217187Y62009D01*
X218053Y62508D01*
X218885Y63062D01*
X219680Y63667D01*
X220435Y64321D01*
X221147Y65022D01*
X221814Y65767D01*
X222431Y66553D01*
X222998Y67376D01*
X223511Y68233D01*
X223969Y69121D01*
X224370Y70037D01*
X224712Y70976D01*
X224993Y71935D01*
X225213Y72909D01*
X225371Y73896D01*
X225466Y74891D01*
X225498Y75890D01*
X181748Y75890D02*
X181716Y76889D01*
X181621Y77883D01*
X181463Y78870D01*
X181243Y79845D01*
X180962Y80804D01*
X180620Y81743D01*
X180219Y82658D01*
X179761Y83546D01*
X179248Y84404D01*
X178681Y85227D01*
X178064Y86012D01*
X177397Y86757D01*
X176685Y87458D01*
X175930Y88112D01*
X175135Y88718D01*
X174303Y89271D01*
X173437Y89771D01*
X172542Y90215D01*
X171620Y90601D01*
X170676Y90928D01*
X169713Y91194D01*
X168735Y91399D01*
X167745Y91541D01*
X166749Y91620D01*
X165750Y91636D01*
X164752Y91588D01*
X163759Y91478D01*
X162775Y91304D01*
X161804Y91068D01*
X160849Y90772D01*
X159916Y90415D01*
X159007Y90000D01*
X158126Y89528D01*
X157277Y89001D01*
X156463Y88421D01*
X155687Y87791D01*
X154953Y87113D01*
X154264Y86390D01*
X153621Y85625D01*
X153029Y84820D01*
X152489Y83979D01*
X152003Y83106D01*
X151573Y82204D01*
X151202Y81276D01*
X150890Y80326D01*
X150639Y79359D01*
X150450Y78378D01*
X150323Y77387D01*
X150260Y76389D01*
Y75390D01*
X150323Y74393D01*
X150450Y73401D01*
X150639Y72420D01*
X150890Y71453D01*
X151202Y70504D01*
X151573Y69576D01*
X152003Y68674D01*
X152489Y67800D01*
X153029Y66960D01*
X153621Y66155D01*
X154264Y65389D01*
X154953Y64666D01*
X155687Y63988D01*
X156463Y63358D01*
X157277Y62778D01*
X158126Y62252D01*
X159007Y61780D01*
X159916Y61365D01*
X160849Y61008D01*
X161804Y60711D01*
X162775Y60475D01*
X163759Y60302D01*
X164752Y60191D01*
X165750Y60144D01*
X166749Y60160D01*
X167745Y60239D01*
X168735Y60381D01*
X169713Y60586D01*
X170676Y60852D01*
X171620Y61179D01*
X172542Y61565D01*
X173437Y62009D01*
X174303Y62508D01*
X175135Y63062D01*
X175930Y63667D01*
X176685Y64321D01*
X177397Y65022D01*
X178064Y65767D01*
X178681Y66553D01*
X179248Y67376D01*
X179761Y68233D01*
X180219Y69121D01*
X180620Y70037D01*
X180962Y70976D01*
X181243Y71935D01*
X181463Y72909D01*
X181621Y73896D01*
X181716Y74891D01*
X181748Y75890D01*
X137998Y75890D02*
X137966Y76889D01*
X137871Y77883D01*
X137713Y78870D01*
X137493Y79845D01*
X137212Y80804D01*
X136870Y81743D01*
X136469Y82658D01*
X136011Y83546D01*
X135498Y84404D01*
X134931Y85227D01*
X134314Y86012D01*
X133647Y86757D01*
X132935Y87458D01*
X132180Y88112D01*
X131385Y88718D01*
X130553Y89271D01*
X129687Y89771D01*
X128792Y90215D01*
X127870Y90601D01*
X126926Y90928D01*
X125963Y91194D01*
X124985Y91399D01*
X123995Y91541D01*
X122999Y91620D01*
X122000Y91636D01*
X121002Y91588D01*
X120009Y91478D01*
X119025Y91304D01*
X118054Y91068D01*
X117099Y90772D01*
X116166Y90415D01*
X115257Y90000D01*
X114376Y89528D01*
X113527Y89001D01*
X112713Y88421D01*
X111937Y87791D01*
X111203Y87113D01*
X110514Y86390D01*
X109871Y85625D01*
X109279Y84820D01*
X108739Y83979D01*
X108253Y83106D01*
X107823Y82204D01*
X107452Y81276D01*
X107140Y80326D01*
X106889Y79359D01*
X106700Y78378D01*
X106573Y77387D01*
X106510Y76389D01*
Y75390D01*
X106573Y74393D01*
X106700Y73401D01*
X106889Y72420D01*
X107140Y71453D01*
X107452Y70504D01*
X107823Y69576D01*
X108253Y68674D01*
X108739Y67800D01*
X109279Y66960D01*
X109871Y66155D01*
X110514Y65389D01*
X111203Y64666D01*
X111937Y63988D01*
X112713Y63358D01*
X113527Y62778D01*
X114376Y62252D01*
X115257Y61780D01*
X116166Y61365D01*
X117099Y61008D01*
X118054Y60711D01*
X119025Y60475D01*
X120009Y60302D01*
X121002Y60191D01*
X122000Y60144D01*
X122999Y60160D01*
X123995Y60239D01*
X124985Y60381D01*
X125963Y60586D01*
X126926Y60852D01*
X127870Y61179D01*
X128792Y61565D01*
X129687Y62009D01*
X130553Y62508D01*
X131385Y63062D01*
X132180Y63667D01*
X132935Y64321D01*
X133647Y65022D01*
X134314Y65767D01*
X134931Y66553D01*
X135498Y67376D01*
X136011Y68233D01*
X136469Y69121D01*
X136870Y70037D01*
X137212Y70976D01*
X137493Y71935D01*
X137713Y72909D01*
X137871Y73896D01*
X137966Y74891D01*
X137998Y75890D01*
X94248Y75890D02*
X94216Y76889D01*
X94121Y77883D01*
X93963Y78870D01*
X93743Y79845D01*
X93462Y80804D01*
X93120Y81743D01*
X92719Y82658D01*
X92261Y83546D01*
X91748Y84404D01*
X91181Y85227D01*
X90564Y86012D01*
X89897Y86757D01*
X89185Y87458D01*
X88430Y88112D01*
X87635Y88718D01*
X86803Y89271D01*
X85937Y89771D01*
X85042Y90215D01*
X84120Y90601D01*
X83176Y90928D01*
X82213Y91194D01*
X81235Y91399D01*
X80246Y91541D01*
X79249Y91620D01*
X78250Y91636D01*
X77252Y91588D01*
X76259Y91478D01*
X75275Y91304D01*
X74304Y91068D01*
X73349Y90772D01*
X72416Y90415D01*
X71507Y90000D01*
X70626Y89528D01*
X69777Y89001D01*
X68963Y88421D01*
X68187Y87791D01*
X67453Y87113D01*
X66764Y86390D01*
X66121Y85625D01*
X65529Y84820D01*
X64988Y83979D01*
X64503Y83106D01*
X64073Y82204D01*
X63702Y81276D01*
X63390Y80326D01*
X63139Y79359D01*
X62950Y78378D01*
X62823Y77387D01*
X62760Y76389D01*
Y75390D01*
X62823Y74393D01*
X62950Y73401D01*
X63139Y72420D01*
X63390Y71453D01*
X63702Y70504D01*
X64073Y69576D01*
X64503Y68674D01*
X64988Y67800D01*
X65529Y66960D01*
X66121Y66155D01*
X66764Y65389D01*
X67453Y64666D01*
X68187Y63988D01*
X68963Y63358D01*
X69777Y62778D01*
X70626Y62252D01*
X71507Y61780D01*
X72416Y61365D01*
X73349Y61008D01*
X74304Y60711D01*
X75275Y60475D01*
X76259Y60302D01*
X77252Y60191D01*
X78250Y60144D01*
X79249Y60160D01*
X80246Y60239D01*
X81235Y60381D01*
X82213Y60586D01*
X83176Y60852D01*
X84120Y61179D01*
X85042Y61565D01*
X85937Y62009D01*
X86803Y62508D01*
X87635Y63062D01*
X88430Y63667D01*
X89185Y64321D01*
X89897Y65022D01*
X90564Y65767D01*
X91181Y66553D01*
X91748Y67376D01*
X92261Y68233D01*
X92719Y69121D01*
X93120Y70037D01*
X93462Y70976D01*
X93743Y71935D01*
X93963Y72909D01*
X94121Y73896D01*
X94216Y74891D01*
X94248Y75890D01*
X51248Y76000D02*
X51216Y76999D01*
X51121Y77994D01*
X50963Y78980D01*
X50743Y79955D01*
X50462Y80914D01*
X50120Y81853D01*
X49719Y82768D01*
X49261Y83657D01*
X48748Y84514D01*
X48181Y85337D01*
X47564Y86123D01*
X46897Y86867D01*
X46185Y87568D01*
X45430Y88223D01*
X44635Y88828D01*
X43803Y89381D01*
X42937Y89881D01*
X42042Y90325D01*
X41120Y90711D01*
X40176Y91038D01*
X39213Y91304D01*
X38235Y91509D01*
X37246Y91651D01*
X36249Y91730D01*
X35250Y91746D01*
X34252Y91698D01*
X33259Y91588D01*
X32275Y91414D01*
X31304Y91179D01*
X30349Y90882D01*
X29416Y90525D01*
X28507Y90110D01*
X27626Y89638D01*
X26777Y89111D01*
X25963Y88532D01*
X25187Y87902D01*
X24453Y87224D01*
X23764Y86500D01*
X23121Y85735D01*
X22529Y84930D01*
X21989Y84089D01*
X21503Y83216D01*
X21073Y82314D01*
X20702Y81386D01*
X20390Y80437D01*
X20139Y79470D01*
X19950Y78488D01*
X19823Y77497D01*
X19760Y76500D01*
Y75500D01*
X19823Y74503D01*
X19950Y73512D01*
X20139Y72531D01*
X20390Y71563D01*
X20702Y70614D01*
X21073Y69686D01*
X21503Y68784D01*
X21989Y67911D01*
X22529Y67070D01*
X23121Y66265D01*
X23764Y65500D01*
X24453Y64776D01*
X25187Y64098D01*
X25963Y63468D01*
X26777Y62889D01*
X27626Y62362D01*
X28507Y61890D01*
X29416Y61475D01*
X30349Y61118D01*
X31304Y60821D01*
X32275Y60586D01*
X33259Y60412D01*
X34252Y60302D01*
X35250Y60254D01*
X36249Y60270D01*
X37246Y60349D01*
X38235Y60491D01*
X39213Y60696D01*
X40176Y60962D01*
X41120Y61289D01*
X42042Y61675D01*
X42937Y62119D01*
X43803Y62618D01*
X44635Y63172D01*
X45430Y63777D01*
X46185Y64432D01*
X46897Y65133D01*
X47564Y65877D01*
X48181Y66663D01*
X48748Y67486D01*
X49261Y68343D01*
X49719Y69231D01*
X50120Y70147D01*
X50462Y71086D01*
X50743Y72045D01*
X50963Y73020D01*
X51121Y74006D01*
X51216Y75001D01*
X51248Y76000D01*
X192034Y472D02*
Y51591D01*
X192034Y472D02*
X227467D01*
X227467D02*
Y51591D01*
X192034D02*
X227467D01*
X238000Y75890D02*
X269000D01*
X238500Y80890D02*
X268000D01*
X241500Y85890D02*
X265000D01*
X194250Y75890D02*
X225250D01*
X194750Y80890D02*
X224250D01*
X197750Y85890D02*
X221250D01*
X150500Y75890D02*
X181500D01*
X151000Y80890D02*
X180500D01*
X154000Y85890D02*
X177500D01*
X106750Y75890D02*
X137750D01*
X107250Y80890D02*
X136750D01*
X110250Y85890D02*
X133750D01*
X63000Y75890D02*
X94000D01*
X63500Y80890D02*
X93000D01*
X66500Y85890D02*
X90000D01*
X20000Y76000D02*
X51000D01*
X20500Y81000D02*
X50000D01*
X23500Y86000D02*
X47000D01*
X104534Y472D02*
Y51591D01*
X104534Y472D02*
X139966D01*
X139966D02*
Y51591D01*
X104534D02*
X139966D01*
X60783Y472D02*
Y51591D01*
X60783Y472D02*
X96216D01*
X96216D02*
Y51591D01*
X60783D02*
X96216D01*
X148284Y472D02*
Y51591D01*
X148284Y472D02*
X183716D01*
X183716D02*
Y51591D01*
X148284D02*
X183716D01*
X235784Y472D02*
Y51591D01*
X235784Y472D02*
X271217D01*
X271217D02*
Y51591D01*
X235784D02*
X271217D01*
X563Y55717D02*
X51681D01*
X563Y20283D02*
Y55717D01*
Y20283D02*
X51681D01*
Y55717D01*
D21*
X195750Y10315D02*
Y51591D01*
X192034Y10315D02*
X227467D01*
X223750D02*
Y51591D01*
X108250Y10315D02*
Y51591D01*
X104534Y10315D02*
X139966D01*
X136250D02*
Y51591D01*
X64500Y10315D02*
Y51591D01*
X60783Y10315D02*
X96216D01*
X92500D02*
Y51591D01*
X152000Y10315D02*
Y51591D01*
X148284Y10315D02*
X183716D01*
X180000D02*
Y51591D01*
X239500Y10315D02*
Y51591D01*
X235784Y10315D02*
X271217D01*
X267500D02*
Y51591D01*
X10406Y52000D02*
X51681D01*
X10406Y20283D02*
Y55717D01*
Y24000D02*
X51681D01*
M02*
