G04 Layer_Physical_Order=2*
G04 Layer_Color=16711680*
%FSLAX25Y25*%
%MOIN*%
G70*
G01*
G75*
%ADD10C,0.01000*%
%ADD13C,0.15748*%
%ADD14R,0.15748X0.07874*%
%ADD15R,0.07874X0.15748*%
%ADD16C,0.06299*%
%ADD17R,0.07874X0.15748*%
%ADD18R,0.15748X0.07874*%
%ADD19C,0.05000*%
%ADD20C,0.01969*%
D10*
X258150Y69000D02*
X258044Y69986D01*
X257731Y70927D01*
X257226Y71781D01*
X256552Y72508D01*
X255739Y73075D01*
X254823Y73457D01*
X253848Y73637D01*
X252857Y73605D01*
X251895Y73364D01*
X251006Y72924D01*
X250231Y72306D01*
X249604Y71538D01*
X249154Y70653D01*
X248903Y69694D01*
X248860Y68704D01*
X249028Y67726D01*
X249400Y66807D01*
X249958Y65987D01*
X250678Y65305D01*
X251526Y64790D01*
X252463Y64467D01*
X214400Y69000D02*
X214293Y69988D01*
X213980Y70931D01*
X213473Y71786D01*
X212796Y72513D01*
X211979Y73080D01*
X211061Y73461D01*
X210084Y73638D01*
X209090Y73603D01*
X208127Y73357D01*
X207238Y72913D01*
X206464Y72290D01*
X205840Y71516D01*
X205395Y70628D01*
X205148Y69665D01*
X205112Y68672D01*
X205288Y67694D01*
X205667Y66776D01*
X206233Y65959D01*
X206960Y65281D01*
X207814Y64773D01*
X208756Y64458D01*
X253555Y64351D02*
X254581Y64478D01*
X255553Y64828D01*
X256424Y65385D01*
X257150Y66120D01*
X257696Y66997D01*
X258035Y67973D01*
X258150Y69000D01*
X259173Y62000D02*
X258963Y63000D01*
X258368Y63831D01*
X257489Y64352D01*
X256475Y64475D01*
X255497Y64180D01*
X254720Y63515D01*
X257927Y59847D02*
X258590Y60401D01*
X259023Y61149D01*
X259173Y62000D01*
X250783Y63515D02*
X250111Y64119D01*
X249267Y64443D01*
X248363D01*
X247519Y64119D01*
X246847Y63515D01*
X242910D02*
X242237Y64119D01*
X241393Y64443D01*
X240489D01*
X239645Y64119D01*
X238972Y63515D01*
X246847D02*
X246174Y64119D01*
X245330Y64443D01*
X244426D01*
X243582Y64119D01*
X242910Y63515D01*
X254720D02*
X253555Y64351D01*
X252463Y64467D02*
X251527Y64161D01*
X250783Y63515D01*
X209914Y64353D02*
X210921Y64500D01*
X211872Y64863D01*
X212722Y65424D01*
X213429Y66156D01*
X213959Y67025D01*
X214288Y67988D01*
X214400Y69000D01*
X235035Y63515D02*
X234363Y64119D01*
X233519Y64443D01*
X232615D01*
X231771Y64119D01*
X231099Y63515D01*
X238972D02*
X238300Y64119D01*
X237456Y64443D01*
X236552D01*
X235708Y64119D01*
X235035Y63515D01*
X227162D02*
X226489Y64119D01*
X225645Y64443D01*
X224741D01*
X223897Y64119D01*
X223224Y63515D01*
X231099D02*
X230426Y64119D01*
X229582Y64443D01*
X228678D01*
X227834Y64119D01*
X227162Y63515D01*
X223224D02*
X222552Y64119D01*
X221708Y64443D01*
X220804D01*
X219960Y64119D01*
X219287Y63515D01*
X218558Y59847D02*
X219287Y60485D01*
Y63515D02*
X218615Y64119D01*
X217771Y64443D01*
X216867D01*
X216023Y64119D01*
X215351Y63515D01*
X214628Y64149D01*
X213719Y64461D01*
X212760Y64405D01*
X211894Y63989D01*
X211250Y63275D01*
X208756Y64458D02*
X207861Y64143D01*
X207150Y63515D01*
X211250Y63275D02*
X210678Y63933D01*
X209914Y64353D01*
X203212Y63515D02*
X202540Y64119D01*
X201696Y64443D01*
X200792D01*
X199948Y64119D01*
X199276Y63515D01*
X207150D02*
X206477Y64119D01*
X205633Y64443D01*
X204729D01*
X203885Y64119D01*
X203212Y63515D01*
X195338D02*
X194666Y64119D01*
X193822Y64443D01*
X192918D01*
X192074Y64119D01*
X191402Y63515D01*
X199276D02*
X198603Y64119D01*
X197759Y64443D01*
X196855D01*
X196011Y64119D01*
X195338Y63515D01*
X187464D02*
X186792Y64119D01*
X185948Y64443D01*
X185044D01*
X184200Y64119D01*
X183528Y63515D01*
X191402D02*
X190729Y64119D01*
X189885Y64443D01*
X188981D01*
X188137Y64119D01*
X187464Y63515D01*
X179590D02*
X178918Y64119D01*
X178074Y64443D01*
X177170D01*
X176326Y64119D01*
X175654Y63515D01*
X183528D02*
X182855Y64119D01*
X182011Y64443D01*
X181107D01*
X180263Y64119D01*
X179590Y63515D01*
X175654D02*
X174981Y64119D01*
X174137Y64443D01*
X173233D01*
X172389Y64119D01*
X171716Y63515D01*
X174924Y59847D02*
X175654Y60485D01*
X171716Y63515D02*
X171044Y64119D01*
X170200Y64443D01*
X169296D01*
X168452Y64119D01*
X167780Y63515D01*
X170650Y69000D02*
X170541Y69999D01*
X170221Y70951D01*
X169703Y71812D01*
X169013Y72541D01*
X168182Y73106D01*
X167249Y73479D01*
X166258Y73642D01*
X165255Y73590D01*
X164287Y73322D01*
X163399Y72854D01*
X162632Y72205D01*
X162022Y71407D01*
X161598Y70496D01*
X161379Y69516D01*
X161376Y68511D01*
X161589Y67530D01*
X162008Y66617D01*
X162613Y65815D01*
X163376Y65162D01*
X164261Y64688D01*
X165228Y64415D01*
X166523Y64380D02*
X167467Y64588D01*
X168348Y64987D01*
X169127Y65559D01*
X169771Y66280D01*
X170252Y67119D01*
X170549Y68038D01*
X170650Y69000D01*
X163842Y63515D02*
X163170Y64119D01*
X162326Y64443D01*
X161422D01*
X160578Y64119D01*
X159906Y63515D01*
X159233Y64119D01*
X158389Y64443D01*
X157485D01*
X156641Y64119D01*
X155968Y63515D01*
X155287Y64125D01*
X154431Y64447D01*
X153517Y64437D01*
X152668Y64097D01*
X152000Y63474D01*
X165228Y64415D02*
X164458Y64084D01*
X163842Y63515D01*
X167780D02*
X167219Y64047D01*
X166523Y64380D01*
X155968Y60485D02*
X156699Y59847D01*
X148031Y63515D02*
X147359Y64119D01*
X146515Y64443D01*
X145611D01*
X144767Y64119D01*
X144095Y63515D01*
X152000Y63474D02*
X151332Y64097D01*
X150483Y64437D01*
X149569Y64447D01*
X148713Y64125D01*
X148031Y63515D01*
X144095D02*
X143422Y64119D01*
X142578Y64443D01*
X141674D01*
X140830Y64119D01*
X140157Y63515D01*
X136221D02*
X135548Y64119D01*
X134704Y64443D01*
X133800D01*
X132956Y64119D01*
X132283Y63515D01*
X140157D02*
X139485Y64119D01*
X138641Y64443D01*
X137737D01*
X136893Y64119D01*
X136221Y63515D01*
X131553Y59847D02*
X132283Y60485D01*
X242910D02*
X243453Y59965D01*
X244126Y59632D01*
X238972Y60485D02*
X239645Y59881D01*
X240489Y59557D01*
X241393D01*
X242237Y59881D01*
X242910Y60485D01*
X235035D02*
X235708Y59881D01*
X236552Y59557D01*
X237456D01*
X238300Y59881D01*
X238972Y60485D01*
X227162D02*
X227834Y59881D01*
X228678Y59557D01*
X229582D01*
X230426Y59881D01*
X231099Y60485D01*
X231771Y59881D01*
X232615Y59557D01*
X233519D01*
X234363Y59881D01*
X235035Y60485D01*
X219287D02*
X219960Y59881D01*
X220804Y59557D01*
X221708D01*
X222552Y59881D01*
X223224Y60485D01*
X223897Y59881D01*
X224741Y59557D01*
X225645D01*
X226489Y59881D01*
X227162Y60485D01*
X199276D02*
X200376Y59672D01*
X191402Y60485D02*
X192074Y59881D01*
X192918Y59557D01*
X193822D01*
X194666Y59881D01*
X195338Y60485D01*
X196011Y59881D01*
X196855Y59557D01*
X197759D01*
X198603Y59881D01*
X199276Y60485D01*
X183528D02*
X184200Y59881D01*
X185044Y59557D01*
X185948D01*
X186792Y59881D01*
X187464Y60485D01*
X188137Y59881D01*
X188981Y59557D01*
X189885D01*
X190729Y59881D01*
X191402Y60485D01*
X175654D02*
X176326Y59881D01*
X177170Y59557D01*
X178074D01*
X178918Y59881D01*
X179590Y60485D01*
X180263Y59881D01*
X181107Y59557D01*
X182011D01*
X182855Y59881D01*
X183528Y60485D01*
X152000Y60526D02*
X152668Y59903D01*
X153517Y59563D01*
X154431Y59553D01*
X155287Y59875D01*
X155968Y60485D01*
X148031D02*
X148713Y59875D01*
X149569Y59553D01*
X150483Y59563D01*
X151332Y59903D01*
X152000Y60526D01*
X140157Y60485D02*
X140830Y59881D01*
X141674Y59557D01*
X142578D01*
X143422Y59881D01*
X144095Y60485D01*
X144767Y59881D01*
X145611Y59557D01*
X146515D01*
X147359Y59881D01*
X148031Y60485D01*
X132283D02*
X132956Y59881D01*
X133800Y59557D01*
X134704D01*
X135548Y59881D01*
X136221Y60485D01*
X136893Y59881D01*
X137737Y59557D01*
X138641D01*
X139485Y59881D01*
X140157Y60485D01*
X123023Y64415D02*
X123921Y64661D01*
X124752Y65081D01*
X125482Y65658D01*
X126083Y66369D01*
X126531Y67185D01*
X126806Y68074D01*
X126900Y69000D01*
X126788Y70010D01*
X126461Y70972D01*
X125931Y71840D01*
X125226Y72572D01*
X124379Y73134D01*
X123430Y73497D01*
X122424Y73646D01*
X121411Y73573D01*
X120437Y73282D01*
X119550Y72785D01*
X118792Y72108D01*
X118199Y71282D01*
X117800Y70347D01*
X117613Y69348D01*
X117649Y68332D01*
X117903Y67349D01*
X118366Y66444D01*
X119015Y65661D01*
X119817Y65038D01*
X120737Y64604D01*
X121728Y64380D01*
X128347Y63515D02*
X127674Y64119D01*
X126830Y64443D01*
X125926D01*
X125082Y64119D01*
X124409Y63515D01*
X123793Y64084D01*
X123023Y64415D01*
X132283Y63515D02*
X131611Y64119D01*
X130767Y64443D01*
X129863D01*
X129019Y64119D01*
X128347Y63515D01*
X120473D02*
X119800Y64119D01*
X118956Y64443D01*
X118052D01*
X117208Y64119D01*
X116535Y63515D01*
X121728Y64380D02*
X121032Y64046D01*
X120473Y63515D01*
X116535D02*
X115863Y64119D01*
X115019Y64443D01*
X114115D01*
X113271Y64119D01*
X112599Y63515D01*
Y60485D02*
X113329Y59847D01*
X108661Y63515D02*
X107989Y64119D01*
X107145Y64443D01*
X106241D01*
X105397Y64119D01*
X104725Y63515D01*
X112599D02*
X111926Y64119D01*
X111082Y64443D01*
X110178D01*
X109334Y64119D01*
X108661Y63515D01*
Y60485D02*
X109334Y59881D01*
X110178Y59557D01*
X111082D01*
X111926Y59881D01*
X112599Y60485D01*
X104725D02*
X105397Y59881D01*
X106241Y59557D01*
X107145D01*
X107989Y59881D01*
X108661Y60485D01*
X100787Y63515D02*
X100115Y64119D01*
X99271Y64443D01*
X98367D01*
X97523Y64119D01*
X96851Y63515D01*
X104725D02*
X104052Y64119D01*
X103208Y64443D01*
X102304D01*
X101460Y64119D01*
X100787Y63515D01*
X96851D02*
X96128Y64149D01*
X95219Y64461D01*
X94260Y64405D01*
X93393Y63989D01*
X92750Y63275D01*
Y60725D02*
X93393Y60011D01*
X94260Y59595D01*
X95219Y59539D01*
X96128Y59851D01*
X96851Y60485D01*
X97523Y59881D01*
X98367Y59557D01*
X99271D01*
X100115Y59881D01*
X100787Y60485D01*
X101460Y59881D01*
X102304Y59557D01*
X103208D01*
X104052Y59881D01*
X104725Y60485D01*
X92750Y63275D02*
X92106Y63989D01*
X91240Y64405D01*
X90281Y64461D01*
X89372Y64149D01*
X88649Y63515D01*
X84712D02*
X84040Y64119D01*
X83196Y64443D01*
X82292D01*
X81448Y64119D01*
X80775Y63515D01*
X88649D02*
X87977Y64119D01*
X87133Y64443D01*
X86229D01*
X85385Y64119D01*
X84712Y63515D01*
X88649Y60485D02*
X89372Y59851D01*
X90281Y59539D01*
X91240Y59595D01*
X92106Y60011D01*
X92750Y60725D01*
X87874Y59821D02*
X88649Y60485D01*
X83150Y69000D02*
X83038Y70014D01*
X82707Y70980D01*
X82174Y71850D01*
X81463Y72583D01*
X80610Y73143D01*
X79656Y73504D01*
X78645Y73647D01*
X77628Y73567D01*
X76652Y73267D01*
X75766Y72761D01*
X75011Y72074D01*
X74425Y71239D01*
X74035Y70296D01*
X73860Y69290D01*
X73908Y68271D01*
X74178Y67287D01*
X74655Y66385D01*
X75319Y65609D01*
X76135Y64997D01*
X77065Y64577D01*
X78065Y64371D01*
X40150Y69110D02*
X40046Y70086D01*
X39740Y71019D01*
X39245Y71866D01*
X38583Y72591D01*
X37783Y73161D01*
X36882Y73550D01*
X35919Y73741D01*
X34938Y73726D01*
X33981Y73505D01*
X33093Y73088D01*
X32311Y72494D01*
X31672Y71750D01*
X31203Y70887D01*
X30926Y69946D01*
X30853Y68967D01*
X30986Y67994D01*
X31321Y67072D01*
X31842Y66240D01*
X32526Y65536D01*
X33343Y64991D01*
X34256Y64630D01*
X35224Y64469D01*
X79339Y64427D02*
X80366Y64741D01*
X81294Y65283D01*
X82072Y66023D01*
X82660Y66923D01*
X83025Y67933D01*
X83150Y69000D01*
X78065Y64371D02*
X77386Y64038D01*
X76838Y63515D01*
X76166Y64119D01*
X75322Y64443D01*
X74418D01*
X73574Y64119D01*
X72901Y63515D01*
X68964D02*
X68292Y64119D01*
X67448Y64443D01*
X66544D01*
X65700Y64119D01*
X65027Y63515D01*
X72901D02*
X72229Y64119D01*
X71385Y64443D01*
X70481D01*
X69637Y64119D01*
X68964Y63515D01*
X45342D02*
X44670Y64119D01*
X43826Y64443D01*
X42922D01*
X42078Y64119D01*
X41405Y63515D01*
X80775D02*
X80138Y64098D01*
X79339Y64427D01*
X68964Y60485D02*
X69695Y59847D01*
X61090Y63515D02*
X60418Y64119D01*
X59574Y64443D01*
X58670D01*
X57826Y64119D01*
X57153Y63515D01*
X65027D02*
X64355Y64119D01*
X63511Y64443D01*
X62607D01*
X61763Y64119D01*
X61090Y63515D01*
X65027Y60485D02*
X65700Y59881D01*
X66544Y59557D01*
X67448D01*
X68292Y59881D01*
X68964Y60485D01*
X57153D02*
X57826Y59881D01*
X58670Y59557D01*
X59574D01*
X60418Y59881D01*
X61090Y60485D01*
X61763Y59881D01*
X62607Y59557D01*
X63511D01*
X64355Y59881D01*
X65027Y60485D01*
X57153Y63515D02*
X56481Y64119D01*
X55637Y64443D01*
X54733D01*
X53889Y64119D01*
X53216Y63515D01*
Y60485D02*
X53889Y59881D01*
X54733Y59557D01*
X55637D01*
X56481Y59881D01*
X57153Y60485D01*
X49279Y63515D02*
X48607Y64119D01*
X47763Y64443D01*
X46859D01*
X46015Y64119D01*
X45342Y63515D01*
X53216D02*
X52544Y64119D01*
X51700Y64443D01*
X50796D01*
X49952Y64119D01*
X49279Y63515D01*
X45342Y60485D02*
X46015Y59881D01*
X46859Y59557D01*
X47763D01*
X48607Y59881D01*
X49279Y60485D01*
X49952Y59881D01*
X50796Y59557D01*
X51700D01*
X52544Y59881D01*
X53216Y60485D01*
X41405D02*
X42078Y59881D01*
X42922Y59557D01*
X43826D01*
X44670Y59881D01*
X45342Y60485D01*
X35776Y64469D02*
X36764Y64636D01*
X37693Y65010D01*
X38521Y65576D01*
X39208Y66305D01*
X39723Y67164D01*
X40042Y68114D01*
X40150Y69110D01*
X41405Y63515D02*
X40733Y64119D01*
X39889Y64443D01*
X38985D01*
X38141Y64119D01*
X37468Y63515D01*
Y60485D02*
X38141Y59881D01*
X38985Y59557D01*
X39889D01*
X40733Y59881D01*
X41405Y60485D01*
X37468Y63515D02*
X36719Y64164D01*
X35776Y64469D01*
X35224D02*
X34296Y64173D01*
X33553Y63543D01*
X33110Y62677D01*
X33033Y61706D01*
X33336Y60781D01*
X33970Y60042D01*
X34840Y59605D01*
X35812Y59535D01*
X36735Y59844D01*
X37468Y60485D01*
X254500Y73541D02*
Y90750D01*
X255500Y73198D02*
Y90750D01*
X253500Y73650D02*
Y90750D01*
X252500Y73541D02*
Y90750D01*
X256500Y72552D02*
Y90750D01*
X257500Y71370D02*
Y90750D01*
X254670Y73500D02*
X293526D01*
X248500Y64464D02*
Y90750D01*
X244500Y64455D02*
Y90750D01*
X240500Y64445D02*
Y90750D01*
X237500Y64434D02*
Y90750D01*
X251500Y73198D02*
Y90750D01*
X250500Y72552D02*
Y90750D01*
X249500Y71370D02*
Y90750D01*
X247500Y64108D02*
Y90750D01*
X258500Y63700D02*
Y90750D01*
X245500Y64405D02*
Y90750D01*
X246500Y63882D02*
Y90750D01*
X261500Y59847D02*
Y90750D01*
X262500Y59847D02*
Y90750D01*
X259500Y59847D02*
Y90750D01*
X260500Y59847D02*
Y90750D01*
X239500Y64024D02*
Y90750D01*
X238500Y63983D02*
Y90750D01*
X236500Y64433D02*
Y90750D01*
X235500Y63977D02*
Y90750D01*
X243500Y64067D02*
Y90750D01*
X242500Y63934D02*
Y90750D01*
X241500Y64420D02*
Y90750D01*
X233500Y64446D02*
Y90750D01*
X232500Y64419D02*
Y90750D01*
X225500Y64465D02*
Y90750D01*
X229500Y64456D02*
Y90750D01*
X217500Y64478D02*
Y90750D01*
X221500Y64472D02*
Y90750D01*
X210920Y73500D02*
X252330D01*
X209500Y73643D02*
Y90750D01*
X210500Y73589D02*
Y90750D01*
X208500Y73478D02*
Y90750D01*
X207500Y73069D02*
Y90750D01*
X212500Y72749D02*
Y90750D01*
X213500Y71749D02*
Y90750D01*
X211500Y73308D02*
Y90750D01*
X226500Y64113D02*
Y90750D01*
X227500Y63875D02*
Y90750D01*
X224500Y64386D02*
Y90750D01*
X223500Y63818D02*
Y90750D01*
X234500Y64029D02*
Y90750D01*
X231500Y63928D02*
Y90750D01*
X228500Y64403D02*
Y90750D01*
X230500Y64072D02*
Y90750D01*
X216500Y64345D02*
Y90750D01*
X218500Y64186D02*
Y90750D01*
X214500Y64218D02*
Y90750D01*
X215500Y63692D02*
Y90750D01*
X220500Y64366D02*
Y90750D01*
X222500Y64150D02*
Y90750D01*
X219500Y63757D02*
Y90750D01*
X257901Y70500D02*
X293526D01*
X258123Y69500D02*
X293526D01*
X256561Y72500D02*
X293526D01*
X257420Y71500D02*
X293526D01*
X258123Y68500D02*
X293526D01*
X257901Y67500D02*
X293526D01*
X257420Y66500D02*
X293526D01*
X256561Y65500D02*
X293526D01*
X256500Y64477D02*
Y65448D01*
X257500Y64348D02*
Y66630D01*
X249500Y64388D02*
Y66630D01*
X254670Y64500D02*
X293526D01*
X255500Y64181D02*
Y64802D01*
X251500Y64146D02*
Y64802D01*
X258669Y63500D02*
X293526D01*
X259122Y62500D02*
X293526D01*
X259122Y61500D02*
X293526D01*
X258669Y60500D02*
X293526D01*
X257927Y59847D02*
X262874D01*
X258500D02*
Y60299D01*
X250500Y63826D02*
Y65448D01*
X254500Y63765D02*
Y64459D01*
X214151Y70500D02*
X249099D01*
X214373Y68500D02*
X248877D01*
X212811Y72500D02*
X250439D01*
X213670Y71500D02*
X249580D01*
X214151Y67500D02*
X249099D01*
X213670Y66500D02*
X249580D01*
X212811Y65500D02*
X250439D01*
X210920Y64500D02*
X252330D01*
X214373Y69500D02*
X248877D01*
X213500Y64481D02*
Y66251D01*
X167170Y73500D02*
X208580D01*
X212500Y64322D02*
Y65251D01*
X210500Y64064D02*
Y64411D01*
X167170Y64500D02*
X208580D01*
X211500Y63622D02*
Y64692D01*
X207500Y63885D02*
Y64931D01*
X211098Y63500D02*
X211402D01*
X218558Y59847D02*
X219124D01*
X193500Y64481D02*
Y90750D01*
X196500Y64350D02*
Y90750D01*
X189500Y64483D02*
Y90750D01*
X192500Y64327D02*
Y90750D01*
X206500Y72325D02*
Y90750D01*
X205500Y70886D02*
Y90750D01*
X197500Y64477D02*
Y90750D01*
X200500Y64370D02*
Y90750D01*
X177500Y64481D02*
Y90750D01*
X178500Y64324D02*
Y90750D01*
X173500Y64477D02*
Y90750D01*
X174500Y64347D02*
Y90750D01*
X185500Y64484D02*
Y90750D01*
X188500Y64302D02*
Y90750D01*
X181500Y64484D02*
Y90750D01*
X190500Y64243D02*
Y90750D01*
X191500Y63635D02*
Y90750D01*
X186500Y64272D02*
Y90750D01*
X187500Y63560D02*
Y90750D01*
X198500Y64179D02*
Y90750D01*
X199500Y63769D02*
Y90750D01*
X194500Y64212D02*
Y90750D01*
X195500Y63705D02*
Y90750D01*
X180500Y64247D02*
Y90750D01*
X179500Y63626D02*
Y90750D01*
X176500Y64216D02*
Y90750D01*
X175500Y63696D02*
Y90750D01*
X184500Y64276D02*
Y90750D01*
X183500Y63551D02*
Y90750D01*
X182500Y64299D02*
Y90750D01*
X165500Y73623D02*
Y90750D01*
X166500Y73623D02*
Y90750D01*
X164500Y73401D02*
Y90750D01*
X163500Y72920D02*
Y90750D01*
X169500Y72061D02*
Y90750D01*
X170500Y70170D02*
Y90750D01*
X167500Y73401D02*
Y90750D01*
X168500Y72920D02*
Y90750D01*
X142500Y64456D02*
Y90750D01*
X146500Y64446D02*
Y90750D01*
X134500Y64472D02*
Y90750D01*
X138500Y64465D02*
Y90750D01*
X162500Y72061D02*
Y90750D01*
X161500Y70170D02*
Y90750D01*
X157500Y64446D02*
Y90750D01*
X145500Y64420D02*
Y90750D01*
X147500Y64026D02*
Y90750D01*
X143500Y64070D02*
Y90750D01*
X144500Y63931D02*
Y90750D01*
X172500Y64183D02*
Y90750D01*
X171500Y63761D02*
Y90750D01*
X158500Y64420D02*
Y90750D01*
X148500Y63980D02*
Y90750D01*
X137500Y64387D02*
Y90750D01*
X136500Y63822D02*
Y90750D01*
X133500Y64368D02*
Y90750D01*
X135500Y64148D02*
Y90750D01*
X141500Y64404D02*
Y90750D01*
X140500Y63878D02*
Y90750D01*
X139500Y64110D02*
Y90750D01*
X170401Y70500D02*
X205349D01*
X170623Y68500D02*
X205127D01*
X169061Y72500D02*
X206689D01*
X169920Y71500D02*
X205830D01*
X170401Y67500D02*
X205349D01*
X205500Y64464D02*
Y67114D01*
X169920Y66500D02*
X205830D01*
X169061Y65500D02*
X206689D01*
X204500Y64389D02*
Y90750D01*
X202500Y64143D02*
Y90750D01*
X170623Y69500D02*
X205127D01*
X201500Y64471D02*
Y90750D01*
X169500Y64472D02*
Y65939D01*
X170500Y64368D02*
Y67830D01*
X168500Y64148D02*
Y65080D01*
X206500Y64105D02*
Y65675D01*
X203500Y63829D02*
Y90750D01*
X167500Y63822D02*
Y64599D01*
X174924Y59847D02*
X175374D01*
X160500Y64070D02*
Y90750D01*
X156500Y64026D02*
Y90750D01*
X159500Y63931D02*
Y90750D01*
X164500Y64110D02*
Y64599D01*
X161500Y64456D02*
Y67830D01*
X162500Y64404D02*
Y65939D01*
X151500Y63980D02*
Y90750D01*
X152500Y63980D02*
Y90750D01*
X149500Y64433D02*
Y90750D01*
X150500Y64433D02*
Y90750D01*
X154500Y64433D02*
Y90750D01*
X155500Y63980D02*
Y90750D01*
X153500Y64433D02*
Y90750D01*
X163500Y63878D02*
Y65080D01*
X132500Y63761D02*
Y90750D01*
X274500Y1750D02*
Y90750D01*
X275500Y1750D02*
Y90750D01*
X272500Y1750D02*
Y90750D01*
X273500Y1750D02*
Y90750D01*
X278500Y1750D02*
Y90750D01*
X279500Y1750D02*
Y90750D01*
X276500Y1750D02*
Y90750D01*
X277500Y1750D02*
Y90750D01*
X267500Y1750D02*
Y90750D01*
X268500Y1750D02*
Y90750D01*
X265500Y1750D02*
Y90750D01*
X266500Y1750D02*
Y90750D01*
X270500Y1750D02*
Y90750D01*
X271500Y1750D02*
Y90750D01*
X269500Y1750D02*
Y90750D01*
X289500Y1750D02*
Y90750D01*
X290500Y1750D02*
Y90750D01*
X287500Y1750D02*
Y90750D01*
X288500Y1750D02*
Y90750D01*
X293500Y1750D02*
Y90750D01*
X293526Y1750D02*
Y90750D01*
X291500Y1750D02*
Y90750D01*
X292500Y1750D02*
Y90750D01*
X282500Y1750D02*
Y90750D01*
X283500Y1750D02*
Y90750D01*
X280500Y1750D02*
Y90750D01*
X281500Y1750D02*
Y90750D01*
X285500Y1750D02*
Y90750D01*
X286500Y1750D02*
Y90750D01*
X284500Y1750D02*
Y90750D01*
X263500Y1750D02*
Y90750D01*
X264500Y1750D02*
Y90750D01*
X244126Y48972D02*
Y59632D01*
X262874Y48972D02*
Y59847D01*
X243500Y1750D02*
Y59933D01*
X235500Y1750D02*
Y60023D01*
X238500Y1750D02*
Y60017D01*
X219124Y48972D02*
Y59847D01*
X239500Y1750D02*
Y59976D01*
X242500Y1750D02*
Y60066D01*
X231500Y1750D02*
Y60072D01*
X234500Y1750D02*
Y59971D01*
X232500Y1750D02*
Y59581D01*
X241500Y1750D02*
Y59579D01*
X228500Y1750D02*
Y59597D01*
X230500Y1750D02*
Y59928D01*
X226500Y1750D02*
Y59887D01*
X227500Y1750D02*
Y60125D01*
X219500Y1750D02*
Y60243D01*
X223500Y1750D02*
Y60182D01*
X222500Y1750D02*
Y59850D01*
X224500Y1750D02*
Y59614D01*
X220500Y1750D02*
Y59634D01*
X262874Y57500D02*
X293526D01*
X262874Y56500D02*
X293526D01*
X262874Y59500D02*
X293526D01*
X262874Y58500D02*
X293526D01*
X262874Y53500D02*
X293526D01*
X262874Y52500D02*
X293526D01*
X262874Y55500D02*
X293526D01*
X262874Y54500D02*
X293526D01*
X262874Y51500D02*
X293526D01*
X262874Y50500D02*
X293526D01*
X262874Y49500D02*
X293526D01*
X262500Y1750D02*
Y48972D01*
X260500Y1750D02*
Y48972D01*
X261500Y1750D02*
Y48972D01*
X259500Y1750D02*
Y48972D01*
X253500Y1750D02*
Y48972D01*
X254500Y1750D02*
Y48972D01*
X251500Y1750D02*
Y48972D01*
X252500Y1750D02*
Y48972D01*
X257500Y1750D02*
Y48972D01*
X258500Y1750D02*
Y48972D01*
X255500Y1750D02*
Y48972D01*
X256500Y1750D02*
Y48972D01*
X246500Y1750D02*
Y48972D01*
X247500Y1750D02*
Y48972D01*
X244500Y1750D02*
Y48972D01*
X245500Y1750D02*
Y48972D01*
X249500Y1750D02*
Y48972D01*
X250500Y1750D02*
Y48972D01*
X248500Y1750D02*
Y48972D01*
X219124Y57500D02*
X244126D01*
X219124Y56500D02*
X244126D01*
X219124Y59500D02*
X244126D01*
X219124Y58500D02*
X244126D01*
X219124Y53500D02*
X244126D01*
Y48972D02*
X262874D01*
X219124Y55500D02*
X244126D01*
X219124Y54500D02*
X244126D01*
X221500Y1750D02*
Y59528D01*
X229500Y1750D02*
Y59544D01*
X219124Y52500D02*
X244126D01*
X219124Y51500D02*
X244126D01*
X219124Y50500D02*
X244126D01*
X219124Y49500D02*
X244126D01*
X200376Y48972D02*
X219124D01*
X237500Y1750D02*
Y59566D01*
X240500Y1750D02*
Y59555D01*
X233500Y1750D02*
Y59554D01*
X236500Y1750D02*
Y59567D01*
X218500Y1750D02*
Y48972D01*
X225500Y1750D02*
Y59535D01*
X217500Y1750D02*
Y48972D01*
X212500Y1750D02*
Y48972D01*
X213500Y1750D02*
Y48972D01*
X210500Y1750D02*
Y48972D01*
X211500Y1750D02*
Y48972D01*
X215500Y1750D02*
Y48972D01*
X216500Y1750D02*
Y48972D01*
X214500Y1750D02*
Y48972D01*
X195500Y1750D02*
Y60295D01*
X200376Y48972D02*
Y59672D01*
X199500Y1750D02*
Y60231D01*
X192500Y1750D02*
Y59673D01*
X194500Y1750D02*
Y59788D01*
X175374Y48972D02*
Y59847D01*
X191500Y1750D02*
Y60365D01*
X156626Y48972D02*
Y59847D01*
X190500Y1750D02*
Y59757D01*
X198500Y1750D02*
Y59821D01*
X183500Y1750D02*
Y60449D01*
X187500Y1750D02*
Y60439D01*
X188500Y1750D02*
Y59698D01*
X196500Y1750D02*
Y59650D01*
X184500Y1750D02*
Y59724D01*
X186500Y1750D02*
Y59728D01*
X176500Y1750D02*
Y59784D01*
X179500Y1750D02*
Y60374D01*
X156500Y1750D02*
Y59974D01*
X175500Y1750D02*
Y60304D01*
X180500Y1750D02*
Y59753D01*
X182500Y1750D02*
Y59701D01*
X178500Y1750D02*
Y59676D01*
X155500Y1750D02*
Y60020D01*
X148500Y1750D02*
Y60020D01*
X153500Y1750D02*
Y59567D01*
X154500Y1750D02*
Y59567D01*
X149500Y1750D02*
Y59567D01*
X150500Y1750D02*
Y59567D01*
X146500Y1750D02*
Y59554D01*
X147500Y1750D02*
Y59974D01*
X131624Y48972D02*
Y59847D01*
X151500Y1750D02*
Y60020D01*
X152500Y1750D02*
Y60020D01*
X143500Y1750D02*
Y59930D01*
X144500Y1750D02*
Y60069D01*
X142500Y1750D02*
Y59544D01*
X145500Y1750D02*
Y59580D01*
X141500Y1750D02*
Y59596D01*
X139500Y1750D02*
Y59890D01*
X140500Y1750D02*
Y60122D01*
X132500Y1750D02*
Y60239D01*
X136500Y1750D02*
Y60178D01*
X135500Y1750D02*
Y59852D01*
X137500Y1750D02*
Y59613D01*
X133500Y1750D02*
Y59632D01*
X175374Y56500D02*
X200376D01*
X175374Y55500D02*
X200376D01*
X175374Y59500D02*
X200376D01*
X175374Y57500D02*
X200376D01*
X203500Y1750D02*
Y48972D01*
X204500Y1750D02*
Y48972D01*
X201500Y1750D02*
Y48972D01*
X202500Y1750D02*
Y48972D01*
X175374Y53500D02*
X200376D01*
X175374Y52500D02*
X200376D01*
X175374Y58500D02*
X200376D01*
X175374Y54500D02*
X200376D01*
X175374Y50500D02*
X200376D01*
X175374Y49500D02*
X200376D01*
X175374Y51500D02*
X200376D01*
X207500Y1750D02*
Y48972D01*
X208500Y1750D02*
Y48972D01*
X193500Y1750D02*
Y59519D01*
X197500Y1750D02*
Y59523D01*
X206500Y1750D02*
Y48972D01*
X209500Y1750D02*
Y48972D01*
X200500Y1750D02*
Y48972D01*
X205500Y1750D02*
Y48972D01*
X185500Y1750D02*
Y59516D01*
X189500Y1750D02*
Y59517D01*
X177500Y1750D02*
Y59519D01*
X181500Y1750D02*
Y59516D01*
X173500Y1750D02*
Y48972D01*
X174500Y1750D02*
Y48972D01*
X172500Y1750D02*
Y48972D01*
X131624Y56500D02*
X156626D01*
X131624Y55500D02*
X156626D01*
X131624Y59500D02*
X156626D01*
X131624Y57500D02*
X156626D01*
X166500Y1750D02*
Y48972D01*
X167500Y1750D02*
Y48972D01*
X156626D02*
X175374D01*
X164500Y1750D02*
Y48972D01*
X131624Y53500D02*
X156626D01*
X131624Y52500D02*
X156626D01*
X131624Y58500D02*
X156626D01*
X131624Y54500D02*
X156626D01*
X131624Y50500D02*
X156626D01*
X131624Y49500D02*
X156626D01*
X131624Y51500D02*
X156626D01*
X165500Y1750D02*
Y48972D01*
X168500Y1750D02*
Y48972D01*
X162500Y1750D02*
Y48972D01*
X163500Y1750D02*
Y48972D01*
X170500Y1750D02*
Y48972D01*
X171500Y1750D02*
Y48972D01*
X169500Y1750D02*
Y48972D01*
X160500Y1750D02*
Y48972D01*
X161500Y1750D02*
Y48972D01*
X134500Y1750D02*
Y59528D01*
X138500Y1750D02*
Y59535D01*
X158500Y1750D02*
Y48972D01*
X159500Y1750D02*
Y48972D01*
X157500Y1750D02*
Y48972D01*
X122500Y73643D02*
Y90750D01*
X123500Y73478D02*
Y90750D01*
X121500Y73589D02*
Y90750D01*
X120500Y73308D02*
Y90750D01*
X126500Y70886D02*
Y90750D01*
X130500Y64477D02*
Y90750D01*
X124500Y73069D02*
Y90750D01*
X125500Y72325D02*
Y90750D01*
X110500Y64481D02*
Y90750D01*
X106500Y64477D02*
Y90750D01*
X102500Y64471D02*
Y90750D01*
X103500Y64370D02*
Y90750D01*
X119500Y72749D02*
Y90750D01*
X118500Y71749D02*
Y90750D01*
X114500Y64483D02*
Y90750D01*
X117500Y64272D02*
Y90750D01*
X116500Y63560D02*
Y90750D01*
X115500Y64302D02*
Y90750D01*
X113500Y64243D02*
Y90750D01*
X129500Y64347D02*
Y90750D01*
X131500Y64183D02*
Y90750D01*
X127500Y64216D02*
Y90750D01*
X128500Y63696D02*
Y90750D01*
X107500Y64350D02*
Y90750D01*
X108500Y63705D02*
Y90750D01*
X105500Y64179D02*
Y90750D01*
X104500Y63769D02*
Y90750D01*
X111500Y64327D02*
Y90750D01*
X112500Y63635D02*
Y90750D01*
X109500Y64212D02*
Y90750D01*
X1750Y89500D02*
X293526D01*
X1750Y88500D02*
X293526D01*
X1750Y90750D02*
X293526D01*
X1750Y90500D02*
X293526D01*
X1750Y85500D02*
X293526D01*
X1750Y84500D02*
X293526D01*
X1750Y87500D02*
X293526D01*
X1750Y86500D02*
X293526D01*
X90500Y64481D02*
Y90750D01*
X86500Y64478D02*
Y90750D01*
X1750Y83500D02*
X293526D01*
X1750Y82500D02*
X293526D01*
X1750Y80500D02*
X293526D01*
X1750Y79500D02*
X293526D01*
X1750Y81500D02*
X293526D01*
X97500Y64105D02*
Y90750D01*
X96500Y63885D02*
Y90750D01*
X94500Y64455D02*
Y90750D01*
X95500Y64406D02*
Y90750D01*
X101500Y64143D02*
Y90750D01*
X100500Y63829D02*
Y90750D01*
X98500Y64464D02*
Y90750D01*
X99500Y64389D02*
Y90750D01*
X89500Y64218D02*
Y90750D01*
X88500Y63692D02*
Y90750D01*
X87500Y64345D02*
Y90750D01*
X85500Y64186D02*
Y90750D01*
X93500Y64064D02*
Y90750D01*
X92500Y63622D02*
Y90750D01*
X91500Y64322D02*
Y90750D01*
X126170Y71500D02*
X162080D01*
X126651Y70500D02*
X161599D01*
X123420Y73500D02*
X164830D01*
X125311Y72500D02*
X162939D01*
X126651Y67500D02*
X161599D01*
X126170Y66500D02*
X162080D01*
X125311Y65500D02*
X162939D01*
X123420Y64500D02*
X164830D01*
X126873Y69500D02*
X161377D01*
X126873Y68500D02*
X161377D01*
X126500Y64481D02*
Y67114D01*
X125500Y64324D02*
Y65675D01*
X118500Y64484D02*
Y66251D01*
X124500Y63626D02*
Y64931D01*
X119500Y64276D02*
Y65251D01*
X120500Y63551D02*
Y64692D01*
X112876Y59847D02*
X113329D01*
X1750Y76500D02*
X293526D01*
X1750Y75500D02*
X293526D01*
X1750Y78500D02*
X293526D01*
X1750Y77500D02*
X293526D01*
X79670Y73500D02*
X121080D01*
X81561Y72500D02*
X119189D01*
X1750Y74500D02*
X293526D01*
X79670Y64500D02*
X121080D01*
X83123Y69500D02*
X117627D01*
X83123Y68500D02*
X117627D01*
X82420Y71500D02*
X118330D01*
X82901Y70500D02*
X117849D01*
X82901Y67500D02*
X117849D01*
X82420Y66500D02*
X118330D01*
X81561Y65500D02*
X119189D01*
X87874Y59500D02*
X112876D01*
X92598Y63500D02*
X92902D01*
X92598Y60500D02*
X92902D01*
X78500Y73650D02*
Y90750D01*
X77500Y73541D02*
Y90750D01*
X76500Y73198D02*
Y90750D01*
X75500Y72552D02*
Y90750D01*
X81500Y72552D02*
Y90750D01*
X82500Y71370D02*
Y90750D01*
X79500Y73541D02*
Y90750D01*
X80500Y73198D02*
Y90750D01*
X63500Y64445D02*
Y90750D01*
X66500Y64434D02*
Y90750D01*
X59500Y64455D02*
Y90750D01*
X62500Y64420D02*
Y90750D01*
X74500Y71370D02*
Y90750D01*
X70500Y64446D02*
Y90750D01*
X67500Y64433D02*
Y90750D01*
X83500Y64366D02*
Y90750D01*
X84500Y63757D02*
Y90750D01*
X73500Y64072D02*
Y90750D01*
X72500Y63928D02*
Y90750D01*
X71500Y64419D02*
Y90750D01*
X69500Y64029D02*
Y90750D01*
X68500Y63977D02*
Y90750D01*
X58500Y64405D02*
Y90750D01*
X60500Y64067D02*
Y90750D01*
X56500Y64108D02*
Y90750D01*
X57500Y63882D02*
Y90750D01*
X64500Y64024D02*
Y90750D01*
X65500Y63983D02*
Y90750D01*
X61500Y63934D02*
Y90750D01*
X38500Y72663D02*
Y90750D01*
X39500Y71481D02*
Y90750D01*
X36500Y73651D02*
Y90750D01*
X37500Y73308D02*
Y90750D01*
X47500Y64477D02*
Y90750D01*
X51500Y64471D02*
Y90750D01*
X37033Y73500D02*
X77330D01*
X43500Y64481D02*
Y90750D01*
X35500Y73760D02*
Y90750D01*
X34500Y73651D02*
Y90750D01*
X33500Y73308D02*
Y90750D01*
X31500Y71481D02*
Y90750D01*
X1750Y73500D02*
X33967D01*
X32500Y72663D02*
Y90750D01*
X1750Y72500D02*
X32318D01*
X50500Y64369D02*
Y90750D01*
X52500Y64146D02*
Y90750D01*
X48500Y64181D02*
Y90750D01*
X49500Y63765D02*
Y90750D01*
X55500Y64464D02*
Y90750D01*
X54500Y64388D02*
Y90750D01*
X53500Y63826D02*
Y90750D01*
X46500Y64348D02*
Y90750D01*
X45500Y63700D02*
Y90750D01*
X42500Y64325D02*
Y90750D01*
X44500Y64214D02*
Y90750D01*
X40500Y64245D02*
Y90750D01*
X41500Y63631D02*
Y90750D01*
X82500Y64472D02*
Y66630D01*
X81500Y64150D02*
Y65448D01*
X80500Y63818D02*
Y64802D01*
X77500Y64113D02*
Y64459D01*
X76500Y63875D02*
Y64802D01*
X74500Y64456D02*
Y66630D01*
X75500Y64403D02*
Y65448D01*
X40133Y69500D02*
X73877D01*
X40109Y68500D02*
X73877D01*
X69126Y59847D02*
X69695D01*
X39937Y70500D02*
X74099D01*
X39862Y67500D02*
X74099D01*
X38682Y72500D02*
X75439D01*
X39489Y71500D02*
X74580D01*
X39348Y66500D02*
X74580D01*
X38430Y65500D02*
X75439D01*
X1750Y64500D02*
X34896D01*
X36104D02*
X77330D01*
X1750Y69500D02*
X30867D01*
X1750Y68500D02*
X30891D01*
X1750Y71500D02*
X31512D01*
X1750Y70500D02*
X31063D01*
X1750Y66500D02*
X31652D01*
X1750Y65500D02*
X32570D01*
X1750Y67500D02*
X31138D01*
X39500Y64483D02*
Y66740D01*
X38500Y64301D02*
Y65558D01*
X37500Y63556D02*
Y64913D01*
X1750Y59500D02*
X69126D01*
X33500Y63474D02*
Y64913D01*
X1750Y63500D02*
X33520D01*
X1750Y61500D02*
X33067D01*
X1750Y60500D02*
X33520D01*
X1750Y62500D02*
X33067D01*
X127500Y1750D02*
Y48972D01*
X128500Y1750D02*
Y48972D01*
X124500Y1750D02*
Y48972D01*
X125500Y1750D02*
Y48972D01*
X130500Y1750D02*
Y48972D01*
X131500Y1750D02*
Y48972D01*
X112876D02*
X131624D01*
X129500Y1750D02*
Y48972D01*
X119500Y1750D02*
Y48972D01*
X120500Y1750D02*
Y48972D01*
X112876D02*
Y59847D01*
X118500Y1750D02*
Y48972D01*
X122500Y1750D02*
Y48972D01*
X123500Y1750D02*
Y48972D01*
X121500Y1750D02*
Y48972D01*
X111500Y1750D02*
Y59673D01*
X112500Y1750D02*
Y60365D01*
X108500Y1750D02*
Y60295D01*
X109500Y1750D02*
Y59788D01*
X117500Y1750D02*
Y48972D01*
X126500Y1750D02*
Y48972D01*
X110500Y1750D02*
Y59519D01*
X116500Y1750D02*
Y48972D01*
X105500Y1750D02*
Y59821D01*
X107500Y1750D02*
Y59650D01*
X101500Y1750D02*
Y59857D01*
X104500Y1750D02*
Y60231D01*
X103500Y1750D02*
Y59630D01*
X106500Y1750D02*
Y59523D01*
X102500Y1750D02*
Y59529D01*
X87874Y56500D02*
X112876D01*
X87874Y55500D02*
X112876D01*
X87874Y58500D02*
X112876D01*
X87874Y57500D02*
X112876D01*
X87874Y52500D02*
X112876D01*
X87874Y51500D02*
X112876D01*
X87874Y54500D02*
X112876D01*
X87874Y53500D02*
X112876D01*
X93500Y1750D02*
Y59936D01*
X95500Y1750D02*
Y59594D01*
X87874Y48972D02*
Y59821D01*
X92500Y1750D02*
Y60378D01*
X87874Y50500D02*
X112876D01*
X94500Y1750D02*
Y59545D01*
X87874Y49500D02*
X112876D01*
X97500Y1750D02*
Y59895D01*
X100500Y1750D02*
Y60171D01*
X89500Y1750D02*
Y59781D01*
X96500Y1750D02*
Y60115D01*
X98500Y1750D02*
Y59536D01*
X99500Y1750D02*
Y59611D01*
X90500Y1750D02*
Y59519D01*
X91500Y1750D02*
Y59678D01*
X82500Y1750D02*
Y48972D01*
X88500Y1750D02*
Y60308D01*
X80500Y1750D02*
Y48972D01*
X81500Y1750D02*
Y48972D01*
X76500Y1750D02*
Y48972D01*
X79500Y1750D02*
Y48972D01*
X75500Y1750D02*
Y48972D01*
X59937Y38500D02*
X293526D01*
X59937Y37500D02*
X293526D01*
X59937Y40500D02*
X293526D01*
X59937Y39500D02*
X293526D01*
X59937Y34500D02*
X293526D01*
X59937Y33500D02*
X293526D01*
X59937Y36500D02*
X293526D01*
X59937Y35500D02*
X293526D01*
X69126Y48972D02*
X87874D01*
X59937Y46500D02*
X293526D01*
X59937Y45500D02*
X293526D01*
X59937Y44500D02*
X293526D01*
X59937Y42500D02*
X293526D01*
X59937Y41500D02*
X293526D01*
X59937Y43500D02*
X293526D01*
X114500Y1750D02*
Y48972D01*
X115500Y1750D02*
Y48972D01*
X59937Y32500D02*
X293526D01*
X113500Y1750D02*
Y48972D01*
X59937Y31500D02*
X293526D01*
X59937Y30500D02*
X293526D01*
X59937Y29500D02*
X293526D01*
X1750Y11500D02*
X293526D01*
X83500Y1750D02*
Y48972D01*
X84500Y1750D02*
Y48972D01*
X77500Y1750D02*
Y48972D01*
X78500Y1750D02*
Y48972D01*
X86500Y1750D02*
Y48972D01*
X87500Y1750D02*
Y48972D01*
X85500Y1750D02*
Y48972D01*
X1750Y21500D02*
X293526D01*
X1750Y20500D02*
X293526D01*
X1750Y23500D02*
X293526D01*
X1750Y22500D02*
X293526D01*
X1750Y17500D02*
X293526D01*
X1750Y16500D02*
X293526D01*
X1750Y19500D02*
X293526D01*
X1750Y18500D02*
X293526D01*
X1750Y28500D02*
X293526D01*
X1750Y27500D02*
X293526D01*
X1750Y48500D02*
X293526D01*
X1750Y47500D02*
X293526D01*
X1750Y25500D02*
X293526D01*
X1750Y24500D02*
X293526D01*
X1750Y26500D02*
X293526D01*
X1750Y5500D02*
X293526D01*
X1750Y4500D02*
X293526D01*
X1750Y7500D02*
X293526D01*
X1750Y6500D02*
X293526D01*
X1750Y2500D02*
X293526D01*
X1750Y1750D02*
X293526D01*
X1750Y3500D02*
X293526D01*
X1750Y13500D02*
X293526D01*
X1750Y12500D02*
X293526D01*
X1750Y15500D02*
X293526D01*
X1750Y14500D02*
X293526D01*
X1750Y9500D02*
X293526D01*
X1750Y8500D02*
X293526D01*
X1750Y10500D02*
X293526D01*
X61500Y1750D02*
Y60066D01*
X68500Y1750D02*
Y60023D01*
X57500Y47374D02*
Y60118D01*
X60500Y1750D02*
Y59933D01*
X69126Y48972D02*
Y59847D01*
X58500Y47374D02*
Y59595D01*
X54500Y47374D02*
Y59612D01*
X56500Y47374D02*
Y59892D01*
X49500Y47374D02*
Y60235D01*
X33500Y1750D02*
Y60526D01*
X31500Y1750D02*
Y66740D01*
X32500Y1750D02*
Y65558D01*
X52500Y47374D02*
Y59854D01*
X53500Y47374D02*
Y60175D01*
X50500Y47374D02*
Y59631D01*
X64500Y1750D02*
Y59976D01*
X65500Y1750D02*
Y60017D01*
X45500Y1750D02*
Y60299D01*
X48500Y1750D02*
Y59819D01*
X46500Y1750D02*
Y59652D01*
X62500Y1750D02*
Y59579D01*
X42500Y1750D02*
Y59675D01*
X44500Y1750D02*
Y59786D01*
X40500Y1750D02*
Y59755D01*
X41500Y1750D02*
Y60369D01*
X30500Y1750D02*
Y90750D01*
X37500Y1750D02*
Y60444D01*
X36500Y1750D02*
Y59726D01*
X38500Y1750D02*
Y59699D01*
X34500Y1750D02*
Y59726D01*
X10500Y1750D02*
Y90750D01*
X11500Y1750D02*
Y90750D01*
X8500Y1750D02*
Y90750D01*
X9500Y1750D02*
Y90750D01*
X14500Y1750D02*
Y90750D01*
X15500Y1750D02*
Y90750D01*
X12500Y1750D02*
Y90750D01*
X13500Y1750D02*
Y90750D01*
X3500Y1750D02*
Y90750D01*
X4500Y1750D02*
Y90750D01*
X1750Y1750D02*
Y90750D01*
X2500Y1750D02*
Y90750D01*
X6500Y1750D02*
Y90750D01*
X7500Y1750D02*
Y90750D01*
X5500Y1750D02*
Y90750D01*
X25500Y1750D02*
Y90750D01*
X26500Y1750D02*
Y90750D01*
X23500Y1750D02*
Y90750D01*
X24500Y1750D02*
Y90750D01*
X28500Y1750D02*
Y90750D01*
X29500Y1750D02*
Y90750D01*
X27500Y1750D02*
Y90750D01*
X18500Y1750D02*
Y90750D01*
X19500Y1750D02*
Y90750D01*
X16500Y1750D02*
Y90750D01*
X17500Y1750D02*
Y90750D01*
X21500Y1750D02*
Y90750D01*
X22500Y1750D02*
Y90750D01*
X20500Y1750D02*
Y90750D01*
X72500Y1750D02*
Y48972D01*
X73500Y1750D02*
Y48972D01*
X63500Y1750D02*
Y59555D01*
X66500Y1750D02*
Y59566D01*
X71500Y1750D02*
Y48972D01*
X74500Y1750D02*
Y48972D01*
X49063Y28626D02*
X59937D01*
X70500Y1750D02*
Y48972D01*
X55500Y47374D02*
Y59536D01*
X59500Y47374D02*
Y59545D01*
X49063Y47374D02*
X59937D01*
X51500D02*
Y59529D01*
X59937Y28626D02*
Y47374D01*
X59500Y1750D02*
Y28626D01*
X49063D02*
Y47374D01*
X67500Y1750D02*
Y59567D01*
X69500Y1750D02*
Y48972D01*
X57500Y1750D02*
Y28626D01*
X58500Y1750D02*
Y28626D01*
X55500Y1750D02*
Y28626D01*
X56500Y1750D02*
Y28626D01*
X53500Y1750D02*
Y28626D01*
X54500Y1750D02*
Y28626D01*
X47500Y1750D02*
Y59523D01*
X51500Y1750D02*
Y28626D01*
X39500Y1750D02*
Y59517D01*
X43500Y1750D02*
Y59519D01*
X50500Y1750D02*
Y28626D01*
X52500Y1750D02*
Y28626D01*
X49500Y1750D02*
Y28626D01*
X1750Y56500D02*
X69126D01*
X1750Y55500D02*
X69126D01*
X1750Y58500D02*
X69126D01*
X1750Y57500D02*
X69126D01*
X1750Y52500D02*
X69126D01*
X1750Y51500D02*
X69126D01*
X1750Y54500D02*
X69126D01*
X1750Y53500D02*
X69126D01*
X1750Y46500D02*
X49063D01*
X1750Y45500D02*
X49063D01*
X1750Y50500D02*
X69126D01*
X1750Y49500D02*
X69126D01*
X1750Y43500D02*
X49063D01*
X1750Y42500D02*
X49063D01*
X1750Y44500D02*
X49063D01*
X1750Y39500D02*
X49063D01*
X1750Y38500D02*
X49063D01*
X1750Y41500D02*
X49063D01*
X1750Y40500D02*
X49063D01*
X1750Y36500D02*
X49063D01*
X1750Y35500D02*
X49063D01*
X1750Y37500D02*
X49063D01*
X1750Y34500D02*
X49063D01*
X35500Y1750D02*
Y59516D01*
X1750Y33500D02*
X49063D01*
X1750Y32500D02*
X49063D01*
X1750Y30500D02*
X49063D01*
X1750Y29500D02*
X49063D01*
X1750Y31500D02*
X49063D01*
D13*
X283465Y78740D02*
D03*
Y11811D02*
D03*
X11811D02*
D03*
Y78740D02*
D03*
D14*
X209750Y54409D02*
D03*
Y30000D02*
D03*
X122250Y54409D02*
D03*
Y30000D02*
D03*
X78500Y54409D02*
D03*
Y30000D02*
D03*
X166000Y54409D02*
D03*
Y30000D02*
D03*
X253500Y54409D02*
D03*
Y30000D02*
D03*
D15*
X228254Y43780D02*
D03*
X140754D02*
D03*
X97004D02*
D03*
X184504D02*
D03*
X272004D02*
D03*
D16*
X253500Y69000D02*
D03*
Y82780D02*
D03*
X209750Y69000D02*
D03*
Y82780D02*
D03*
X166000Y69000D02*
D03*
Y82780D02*
D03*
X122250Y69000D02*
D03*
Y82780D02*
D03*
X78500Y69000D02*
D03*
Y82780D02*
D03*
X35500Y69110D02*
D03*
Y82890D02*
D03*
D17*
X54500Y38000D02*
D03*
X30091D02*
D03*
D18*
X43870Y19496D02*
D03*
D19*
X273500Y70500D02*
D03*
X281000Y55500D02*
D03*
Y25500D02*
D03*
X266000Y55500D02*
D03*
X258500Y40500D02*
D03*
X266000Y25500D02*
D03*
X258500Y10500D02*
D03*
X243500Y40500D02*
D03*
Y10500D02*
D03*
X236000Y25500D02*
D03*
X228500Y10500D02*
D03*
X213500Y40500D02*
D03*
Y10500D02*
D03*
X198500Y40500D02*
D03*
Y10500D02*
D03*
X191000Y25500D02*
D03*
X183500Y10500D02*
D03*
X168500Y40500D02*
D03*
Y10500D02*
D03*
X153500Y40500D02*
D03*
Y10500D02*
D03*
X146000Y25500D02*
D03*
X138500Y10500D02*
D03*
X123500Y40500D02*
D03*
Y10500D02*
D03*
X108500Y40500D02*
D03*
Y10500D02*
D03*
X101000Y25500D02*
D03*
X93500Y10500D02*
D03*
X78500Y40500D02*
D03*
Y10500D02*
D03*
X63500Y40500D02*
D03*
Y10500D02*
D03*
X56000Y25500D02*
D03*
X48500Y10500D02*
D03*
X33500D02*
D03*
X26000Y55500D02*
D03*
X18500Y40500D02*
D03*
X26000Y25500D02*
D03*
D20*
X154000Y62000D02*
D03*
X157937D02*
D03*
X161874D02*
D03*
X165811D02*
D03*
X169748D02*
D03*
X173685D02*
D03*
X177622D02*
D03*
X181559D02*
D03*
X185496D02*
D03*
X189433D02*
D03*
X193370D02*
D03*
X197307D02*
D03*
X201244D02*
D03*
X205181D02*
D03*
X209118D02*
D03*
X256689D02*
D03*
X252752D02*
D03*
X248815D02*
D03*
X244878D02*
D03*
X240941D02*
D03*
X237004D02*
D03*
X233067D02*
D03*
X229130D02*
D03*
X225193D02*
D03*
X221256D02*
D03*
X217319D02*
D03*
X213382D02*
D03*
X94882D02*
D03*
X98819D02*
D03*
X102756D02*
D03*
X106693D02*
D03*
X110630D02*
D03*
X114567D02*
D03*
X118504D02*
D03*
X122441D02*
D03*
X126378D02*
D03*
X130315D02*
D03*
X134252D02*
D03*
X138189D02*
D03*
X142126D02*
D03*
X146063D02*
D03*
X150000D02*
D03*
X90618D02*
D03*
X86681D02*
D03*
X82744D02*
D03*
X78807D02*
D03*
X74870D02*
D03*
X70933D02*
D03*
X66996D02*
D03*
X63059D02*
D03*
X59122D02*
D03*
X55185D02*
D03*
X51248D02*
D03*
X47311D02*
D03*
X43374D02*
D03*
X39437D02*
D03*
X35500D02*
D03*
M02*
